<?xml version="1.0" encoding="UTF-8"?>
<svg id="Layer_2" data-name="Layer 2" xmlns="http://www.w3.org/2000/svg" viewBox="0 0 831.82 794.5">
  <defs>
    <style>
      .cls-1 {
        fill: #fff;
        stroke-miterlimit: 10;
      }

      .cls-1, .cls-2, .cls-3, .cls-4, .cls-5 {
        stroke: #fff;
      }

      .cls-2 {
        stroke-dasharray: 14.17 14.17;
        stroke-width: .5px;
      }

      .cls-2, .cls-3, .cls-4, .cls-5 {
        fill: none;
        stroke-linecap: round;
        stroke-linejoin: round;
      }

      .cls-3 {
        stroke-width: 1.5px;
      }

      .cls-5 {
        stroke-width: .75px;
      }
    </style>
  </defs>
  <g id="line">
    <line class="cls-5" x1="321.42" y1=".75" x2="283.81" y2=".75"/>
    <line class="cls-5" x1="505.69" y1="231.34" x2="577.44" y2="231.34"/>
    <rect class="cls-5" x="435.92" y="315.83" width="25.45" height="339.61"/>
    <line class="cls-5" x1="321.42" y1="5" x2="283.81" y2="5"/>
    <line class="cls-5" x1="129.37" y1="5" x2="129.37" y2="47.78"/>
    <line class="cls-5" x1="137.34" y1="5" x2="137.34" y2="47.78"/>
    <line class="cls-5" x1="145.31" y1="5" x2="145.31" y2="47.78"/>
    <line class="cls-5" x1="153.28" y1="5" x2="153.28" y2="47.78"/>
    <line class="cls-5" x1="161.25" y1="5" x2="161.25" y2="47.78"/>
    <line class="cls-5" x1="237.5" y1="5" x2="237.5" y2="47.78"/>
    <line class="cls-5" x1="229.53" y1="5" x2="229.53" y2="47.78"/>
    <line class="cls-5" x1="221.56" y1="5" x2="221.56" y2="47.78"/>
    <path class="cls-5" d="M93.59,267.69c-7.97-.11-15.58-3.36-21.16-9.06-5.58-5.69-8.68-13.36-8.63-21.34.05-7.97,3.26-15.6,8.91-21.22,5.66-5.62,13.31-8.77,21.28-8.77"/>
    <path class="cls-5" d="M33.61,267.28c7.97,0,15.62-3.15,21.28-8.77,5.66-5.62,8.86-13.25,8.92-21.22.05-7.97-3.05-15.64-8.63-21.34-5.58-5.69-13.19-8.95-21.16-9.06"/>
    <line class="cls-5" x1="213.59" y1="5" x2="213.59" y2="47.78"/>
    <line class="cls-5" x1="237.5" y1="47.78" x2="245.44" y2="5"/>
    <path class="cls-5" d="M254.73,267.69c-7.97-.11-15.58-3.36-21.16-9.06-5.58-5.69-8.68-13.36-8.63-21.34.05-7.97,3.26-15.6,8.91-21.22,5.66-5.62,13.31-8.77,21.28-8.77"/>
    <path class="cls-5" d="M194.76,267.28c7.97,0,15.62-3.15,21.28-8.77,5.66-5.62,8.86-13.25,8.92-21.22.05-7.97-3.05-15.64-8.63-21.34-5.58-5.69-13.19-8.95-21.16-9.06"/>
    <path class="cls-5" d="M354.33,267.28c7.97,0,15.62-3.15,21.28-8.77,5.66-5.62,8.86-13.25,8.92-21.22.05-7.97-3.05-15.64-8.63-21.34-5.58-5.69-13.19-8.95-21.16-9.06"/>
    <path class="cls-5" d="M414.31,267.69c-7.97-.11-15.58-3.36-21.16-9.06-5.58-5.69-8.68-13.36-8.63-21.34.05-7.97,3.26-15.6,8.91-21.22,5.66-5.62,13.31-8.77,21.28-8.77"/>
    <line class="cls-5" x1="111.65" y1="755.78" x2="111.65" y2="782.47"/>
    <line class="cls-5" x1="119.44" y1="755.78" x2="119.44" y2="782.47"/>
    <line class="cls-5" x1="127.24" y1="755.78" x2="127.24" y2="782.47"/>
    <line class="cls-5" x1="135.03" y1="755.78" x2="135.03" y2="782.47"/>
    <line class="cls-5" x1="142.83" y1="755.78" x2="142.83" y2="782.47"/>
    <line class="cls-5" x1="150.62" y1="755.78" x2="150.62" y2="782.47"/>
    <line class="cls-5" x1="158.42" y1="755.78" x2="158.42" y2="782.47"/>
    <line class="cls-5" x1="166.22" y1="755.78" x2="166.22" y2="782.47"/>
    <line class="cls-5" x1="249.18" y1="755.78" x2="249.18" y2="782.47"/>
    <line class="cls-5" x1="241.39" y1="755.78" x2="241.39" y2="782.47"/>
    <line class="cls-5" x1="233.59" y1="755.78" x2="233.59" y2="782.47"/>
    <line class="cls-5" x1="225.8" y1="755.78" x2="225.8" y2="782.47"/>
    <line class="cls-5" x1="218" y1="755.78" x2="218" y2="782.47"/>
    <line class="cls-5" x1="210.2" y1="755.78" x2="210.2" y2="782.47"/>
    <line class="cls-5" x1="202.41" y1="755.78" x2="202.41" y2="782.47"/>
    <line class="cls-5" x1="249.18" y1="755.78" x2="256.98" y2="782.47"/>
    <rect class="cls-5" x="272.48" y="117.46" width="44.84" height="45.78"/>
  </g>
  <g id="thick_line" data-name="thick line">
    <line class="cls-3" x1="354.74" y1="206.9" x2="354.33" y2="267.28"/>
    <line class="cls-3" x1="414.72" y1="207.3" x2="414.31" y2="267.69"/>
    <line class="cls-3" x1="68.88" y1="686.72" x2="68.88" y2="751.24"/>
    <line class="cls-3" x1="38.91" y1="38.67" x2="38.91" y2="5"/>
    <line class="cls-3" x1="435.92" y1="655.44" x2="435.92" y2="751.24"/>
    <line class="cls-3" x1="435.92" y1="240.1" x2="435.92" y2="655.44"/>
    <line class="cls-3" x1="415.16" y1="746.67" x2="415.16" y2="751.24"/>
    <line class="cls-3" x1="420.31" y1="746.67" x2="415.16" y2="746.67"/>
    <line class="cls-3" x1="428.74" y1="654.69" x2="435.92" y2="654.69"/>
    <line class="cls-3" x1="381.03" y1="743.81" x2="381.03" y2="751.24"/>
    <line class="cls-3" x1="244.89" y1="5" x2="38.91" y2="5"/>
    <line class="cls-3" x1=".84" y1="741.9" x2=".84" y2="37.58"/>
    <line class="cls-3" x1="448.64" y1="655.44" x2="448.64" y2="751.24"/>
    <line class="cls-3" x1="13.63" y1="38.67" x2="13.63" y2="42.92"/>
    <line class="cls-3" x1="244.89" y1=".75" x2="244.89" y2="5"/>
    <line class="cls-3" x1="29.47" y1="661.38" x2="29.47" y2="737.05"/>
    <line class="cls-3" x1="15.32" y1="654.48" x2="21.25" y2="654.48"/>
    <line class="cls-3" x1="28.99" y1="311.27" x2="28.99" y2="237.01"/>
    <line class="cls-3" x1="15.32" y1="317.16" x2="20.91" y2="317.16"/>
    <line class="cls-3" x1="321.42" y1=".75" x2="321.42" y2="5"/>
    <line class="cls-3" x1="283.81" y1=".75" x2="283.81" y2="5"/>
    <line class="cls-3" x1="195.17" y1="206.9" x2="194.76" y2="267.28"/>
    <line class="cls-3" x1="255.14" y1="207.3" x2="254.73" y2="267.69"/>
    <line class="cls-3" x1="34.02" y1="206.9" x2="33.61" y2="267.28"/>
    <line class="cls-3" x1="94" y1="207.3" x2="93.59" y2="267.69"/>
    <path class="cls-3" d="M448.64,751.24c-.33,11.11-4.87,21.67-12.69,29.56-7.82,7.89-18.35,12.52-29.45,12.95"/>
    <line class="cls-3" x1="13.63" y1="42.92" x2="43.16" y2="42.92"/>
    <line class="cls-3" x1="13.63" y1="38.67" x2="43.16" y2="38.67"/>
    <line class="cls-3" x1="15.32" y1="751.24" x2="15.32" y2="42.92"/>
    <line class="cls-3" x1=".78" y1="38.67" x2=".84" y2="38.67"/>
    <line class="cls-3" x1="102.13" y1=".75" x2="102.13" y2="5"/>
    <line class="cls-3" x1="43.16" y1="38.67" x2="43.16" y2="42.92"/>
    <line class="cls-3" x1="20.86" y1="231.34" x2="15.32" y2="231.34"/>
    <line class="cls-3" x1="103.63" y1="793.75" x2="103.63" y2="782.47"/>
    <path class="cls-3" d="M.84,741.9c0,7.13,1.47,14.15,4.4,20.66,2.93,6.51,7.21,12.28,12.54,17.02,5.33,4.74,11.55,8.33,18.25,10.71,6.71,2.38,13.8,3.51,20.9,3.46"/>
    <path class="cls-3" d="M.84,42.92C.12,32.24,3.76,21.72,10.94,13.77,18.11,5.82,28.21,1.12,38.91.75"/>
    <line class="cls-3" x1="419.53" y1="237.01" x2="419.53" y2="310.71"/>
    <line class="cls-3" x1="420.15" y1="5.51" x2="420.15" y2="46.67"/>
    <line class="cls-3" x1="584.97" y1="54.53" x2="736.76" y2="54.53"/>
    <line class="cls-3" x1="427.56" y1="47.5" x2="576.45" y2="47.5"/>
    <line class="cls-3" x1="422.82" y1="225.7" x2="422.82" y2="56.97"/>
    <polyline class="cls-3" points="270.04 155.32 270.04 174.37 336.57 174.37 336.57 107.62 270.04 107.62 270.04 127.3"/>
    <line class="cls-3" x1="493.25" y1="41.83" x2="410.57" y2=".75"/>
    <line class="cls-3" x1="270.04" y1="155.32" x2="264.26" y2="155.32"/>
    <line class="cls-3" x1="264.26" y1="127.3" x2="270.04" y2="127.3"/>
    <line class="cls-3" x1="108.99" y1="47.78" x2="419.54" y2="47.78"/>
    <line class="cls-3" x1="420.31" y1="661.31" x2="420.31" y2="746.67"/>
    <line class="cls-3" x1="376.78" y1="743.81" x2="376.78" y2="746.72"/>
    <line class="cls-3" x1="376.78" y1="743.81" x2="381.03" y2="743.81"/>
    <line class="cls-3" x1="107.4" y1="745.99" x2="107.4" y2="744.06"/>
    <line class="cls-3" x1="415.16" y1="751.24" x2="435.92" y2="751.24"/>
    <line class="cls-3" x1="347.18" y1="746.72" x2="376.78" y2="746.72"/>
    <line class="cls-3" x1="107.4" y1="744.06" x2="343.07" y2="744.06"/>
    <polygon class="cls-3" points="188.61 740.5 188.61 674.82 224.95 674.82 316.4 674.82 325.42 659.37 376.78 659.37 376.78 709.72 381.03 709.72 381.03 659.37 381.03 654.27 322.5 654.27 313.47 669.72 224.95 669.72 136.44 669.72 127.41 654.27 68.88 654.27 68.88 659.37 124.48 659.37 133.51 674.82 184.36 674.82 184.36 740.5 188.61 740.5"/>
    <line class="cls-3" x1="44.73" y1="745.99" x2="44.73" y2="751.24"/>
    <line class="cls-3" x1="30.45" y1="745.99" x2="44.73" y2="745.99"/>
    <line class="cls-3" x1="68.88" y1="745.99" x2="107.4" y2="745.99"/>
    <line class="cls-3" x1="15.32" y1="751.24" x2="44.73" y2="751.24"/>
    <line class="cls-3" x1="68.88" y1="751.24" x2="381.03" y2="751.24"/>
    <line class="cls-3" x1="414.51" y1="237.01" x2="423.38" y2="237.01"/>
    <line class="cls-3" x1="26.53" y1="237.01" x2="33.82" y2="237.01"/>
    <line class="cls-3" x1="93.8" y1="237.01" x2="194.96" y2="237.01"/>
    <line class="cls-3" x1="254.94" y1="237.01" x2="354.54" y2="237.01"/>
    <path class="cls-3" d="M825.16,41.83c2.75.51,5.02,2.47,5.91,5.12"/>
    <path class="cls-3" d="M826.52,240.1c1.14.1,2.28-.27,3.14-1.03.86-.76,1.37-1.83,1.42-2.98"/>
    <line class="cls-3" x1="435.92" y1="240.1" x2="827.25" y2="240.1"/>
    <line class="cls-3" x1="741.66" y1="46.95" x2="791" y2="46.95"/>
    <line class="cls-3" x1="425.82" y1="41.83" x2="825.16" y2="41.83"/>
    <line class="cls-3" x1="831.07" y1="236.09" x2="831.07" y2="46.95"/>
    <line class="cls-3" x1="791" y1="49.7" x2="823.69" y2="49.7"/>
    <line class="cls-3" x1="823.69" y1="49.7" x2="823.69" y2="186.79"/>
    <line class="cls-3" x1="823.69" y1="186.79" x2="827.48" y2="186.79"/>
    <line class="cls-3" x1="827.48" y1="186.79" x2="827.25" y2="240.1"/>
    <line class="cls-3" x1="791" y1="177.48" x2="791" y2="41.83"/>
    <line class="cls-3" x1="792.42" y1="177.48" x2="789.58" y2="177.48"/>
    <line class="cls-3" x1="792.42" y1="177.48" x2="792.42" y2="240.1"/>
    <line class="cls-3" x1="789.58" y1="177.48" x2="789.58" y2="234.29"/>
    <line class="cls-3" x1="741.66" y1="234.29" x2="789.58" y2="234.29"/>
    <line class="cls-3" x1="429.05" y1="231.34" x2="498.73" y2="231.34"/>
    <line class="cls-3" x1="505.69" y1="231.34" x2="505.69" y2="240.1"/>
    <line class="cls-3" x1="577.58" y1="231.34" x2="577.58" y2="240.1"/>
    <line class="cls-3" x1="662.95" y1="228.51" x2="734.86" y2="228.51"/>
    <line class="cls-3" x1="584.24" y1="228.51" x2="656.15" y2="228.51"/>
    <line class="cls-3" x1="106.57" y1="755.78" x2="249.18" y2="755.78"/>
    <line class="cls-3" x1="103.63" y1="782.47" x2="256.98" y2="782.47"/>
    <line class="cls-3" x1="108.36" y1="751.24" x2="108.36" y2="755.78"/>
    <line class="cls-3" x1="56" y1="793.75" x2="103.63" y2="793.75"/>
    <line class="cls-3" x1="103.63" y1="793.75" x2="406.5" y2="793.75"/>
    <polyline class="cls-3" points="264.26 155.32 264.26 178.22 343.21 178.22 343.21 102.48 264.26 102.48 264.26 127.3"/>
    <line class="cls-3" x1="448.64" y1="655.44" x2="435.92" y2="655.44"/>
    <line class="cls-3" x1="410.57" y1=".75" x2="321.42" y2=".75"/>
    <line class="cls-3" x1="425.82" y1="8.33" x2="425.82" y2="41.83"/>
    <line class="cls-3" x1="283.81" y1=".75" x2="38.91" y2=".75"/>
  </g>
  <g id="structure">
    <polyline class="cls-2" points="37.35 656.54 224.95 616.34 412.56 656.54"/>
    <polyline class="cls-2" points="37.35 656.54 224.95 696.74 412.56 656.54"/>
    <polyline class="cls-2" points="31.13 653.23 214.13 614.02 31.13 574.81"/>
    <polyline class="cls-2" points="31.13 659.85 214.13 699.06 30.92 738.32"/>
    <polyline class="cls-2" points="418.77 659.85 235.78 699.06 418.98 738.32"/>
    <polyline class="cls-2" points="32.14 742.69 224.95 701.38 417.77 742.69"/>
    <polygon class="cls-4" points="97.34 234.89 96.35 234.89 96.35 227.8 97.34 227.8 97.34 230.78 113.66 230.78 113.66 227.8 114.65 227.8 114.65 234.89 113.66 234.89 113.66 231.91 97.34 231.91 97.34 234.89"/>
    <polygon class="cls-4" points="136.95 234.89 135.96 234.89 135.96 227.8 136.95 227.8 136.95 230.78 153.27 230.78 153.27 227.8 154.27 227.8 154.27 234.89 153.27 234.89 153.27 231.91 136.95 231.91 136.95 234.89"/>
    <polygon class="cls-4" points="176.57 234.89 175.57 234.89 175.57 227.8 176.57 227.8 176.57 230.78 192.89 230.78 192.89 227.8 193.88 227.8 193.88 234.89 192.89 234.89 192.89 231.91 176.57 231.91 176.57 234.89"/>
    <polygon class="cls-4" points="256.21 234.89 255.22 234.89 255.22 227.8 256.21 227.8 256.21 230.78 272.53 230.78 272.53 227.8 273.53 227.8 273.53 234.89 272.53 234.89 272.53 231.91 256.21 231.91 256.21 234.89"/>
    <polygon class="cls-4" points="295.83 234.89 294.83 234.89 294.83 227.8 295.83 227.8 295.83 230.78 312.15 230.78 312.15 227.8 313.14 227.8 313.14 234.89 312.15 234.89 312.15 231.91 295.83 231.91 295.83 234.89"/>
    <polygon class="cls-4" points="335.44 234.89 334.45 234.89 334.45 227.8 335.44 227.8 335.44 230.78 351.76 230.78 351.76 227.8 352.75 227.8 352.75 234.89 351.76 234.89 351.76 231.91 335.44 231.91 335.44 234.89"/>
    <polygon class="cls-4" points="256.21 47.78 255.22 47.78 255.22 54.87 256.21 54.87 256.21 51.9 272.53 51.9 272.53 54.87 273.53 54.87 273.53 47.78 272.53 47.78 272.53 50.76 256.21 50.76 256.21 47.78"/>
    <polygon class="cls-4" points="176.57 47.78 175.57 47.78 175.57 54.87 176.57 54.87 176.57 51.9 192.89 51.9 192.89 54.87 193.88 54.87 193.88 47.78 192.89 47.78 192.89 50.76 176.57 50.76 176.57 47.78"/>
    <polyline class="cls-2" points="418.77 653.23 235.78 614.02 418.77 574.81"/>
    <polyline class="cls-2" points="37.35 571.5 224.95 611.7 412.56 571.5"/>
    <polygon class="cls-4" points="334.93 47.78 333.94 47.78 333.94 54.87 334.93 54.87 334.93 51.9 351.26 51.9 351.26 54.87 352.25 54.87 352.25 47.78 351.26 47.78 351.26 50.76 334.93 50.76 334.93 47.78"/>
    <polygon class="cls-4" points="374.55 47.78 373.56 47.78 373.56 54.87 374.55 54.87 374.55 51.9 390.87 51.9 390.87 54.87 391.86 54.87 391.86 47.78 390.87 47.78 390.87 50.76 374.55 50.76 374.55 47.78"/>
    <polygon class="cls-4" points="97.34 47.78 96.35 47.78 96.35 54.87 97.34 54.87 97.34 51.9 113.66 51.9 113.66 54.87 114.65 54.87 114.65 47.78 113.66 47.78 113.66 50.76 97.34 50.76 97.34 47.78"/>
    <path class="cls-4" d="M429.05,51.33c0-.71-.13-1.42-.4-2.09-.29-.72-.71-1.37-1.26-1.92-.55-.55-1.2-.98-1.92-1.26-.66-.26-1.37-.4-2.09-.4s-1.42.13-2.09.4c-.72.29-1.37.71-1.92,1.26-.55.55-.98,1.2-1.26,1.92-.26.66-.4,1.37-.4,2.09s.13,1.42.4,2.09c.29.72.71,1.37,1.26,1.92.55.55,1.2.98,1.92,1.26.66.26,1.37.4,2.09.4s1.42-.13,2.09-.4c.72-.29,1.37-.71,1.92-1.26.55-.55.98-1.2,1.26-1.92.26-.66.4-1.37.4-2.09Z"/>
    <polygon class="cls-4" points="109.04 746.47 109.04 747.3 101.96 747.3 101.96 746.47 104.93 746.47 104.93 741.55 101.96 741.55 101.96 740.5 109.04 740.5 109.04 741.55 106.07 741.55 106.07 746.47 109.04 746.47"/>
    <polygon class="cls-4" points="189.56 746.47 189.56 747.3 182.47 747.3 182.47 746.47 185.45 746.47 185.45 741.55 182.47 741.55 182.47 740.5 189.56 740.5 189.56 741.55 186.58 741.55 186.58 746.47 189.56 746.47"/>
    <polygon class="cls-4" points="347.18 746.47 347.18 747.3 340.09 747.3 340.09 746.47 343.07 746.47 343.07 741.55 340.09 741.55 340.09 740.5 347.18 740.5 347.18 741.55 344.2 741.55 344.2 746.47 347.18 746.47"/>
    <polygon class="cls-4" points="268.4 746.47 268.4 747.3 261.31 747.3 261.31 746.47 264.29 746.47 264.29 741.55 261.31 741.55 261.31 740.5 268.4 740.5 268.4 741.55 265.42 741.55 265.42 746.47 268.4 746.47"/>
    <path class="cls-4" d="M32.2,51.33c0-.71-.13-1.42-.4-2.09-.29-.72-.71-1.37-1.26-1.92-.55-.55-1.2-.98-1.92-1.26-.66-.26-1.37-.4-2.09-.4s-1.42.13-2.09.4c-.72.29-1.37.71-1.92,1.26-.55.55-.98,1.2-1.26,1.92-.26.66-.4,1.37-.4,2.09s.13,1.42.4,2.09c.29.72.71,1.37,1.26,1.92.55.55,1.2.98,1.92,1.26.66.26,1.37.4,2.09.4s1.42-.13,2.09-.4c.72-.29,1.37-.71,1.92-1.26.55-.55.98-1.2,1.26-1.92.26-.66.4-1.37.4-2.09Z"/>
    <polygon class="cls-4" points="583.41 227.8 584.24 227.8 584.24 234.89 583.41 234.89 583.41 231.91 578.49 231.91 578.49 234.89 577.44 234.89 577.44 227.8 578.49 227.8 578.49 230.78 583.41 230.78 583.41 227.8"/>
    <polygon class="cls-4" points="662.11 227.8 662.95 227.8 662.95 234.89 662.11 234.89 662.11 231.91 657.2 231.91 657.2 234.89 656.15 234.89 656.15 227.8 657.2 227.8 657.2 230.78 662.11 230.78 662.11 227.8"/>
    <polygon class="cls-4" points="740.82 227.8 741.66 227.8 741.66 234.89 740.82 234.89 740.82 231.91 735.91 231.91 735.91 234.89 734.86 234.89 734.86 227.8 735.91 227.8 735.91 230.78 740.82 230.78 740.82 227.8"/>
    <polygon class="cls-4" points="504.7 47.12 505.53 47.12 505.53 54.21 504.7 54.21 504.7 51.23 499.79 51.23 499.79 54.21 498.73 54.21 498.73 47.12 499.79 47.12 499.79 50.1 504.7 50.1 504.7 47.12"/>
    <polygon class="cls-4" points="583.41 47.12 584.24 47.12 584.24 54.21 583.41 54.21 583.41 51.23 578.49 51.23 578.49 54.21 577.44 54.21 577.44 47.12 578.49 47.12 578.49 50.1 583.41 50.1 583.41 47.12"/>
    <polygon class="cls-4" points="662.11 47.12 662.95 47.12 662.95 54.21 662.11 54.21 662.11 51.23 657.2 51.23 657.2 54.21 656.15 54.21 656.15 47.12 657.2 47.12 657.2 50.1 662.11 50.1 662.11 47.12"/>
    <polygon class="cls-4" points="740.82 47.12 741.66 47.12 741.66 54.21 740.82 54.21 740.82 51.23 735.91 51.23 735.91 54.21 734.86 54.21 734.86 47.12 735.91 47.12 735.91 50.1 740.82 50.1 740.82 47.12"/>
    <polyline class="cls-2" points="37.35 571.5 224.95 531.3 412.56 571.5"/>
    <polyline class="cls-2" points="418.77 568.19 235.78 528.98 418.77 489.77"/>
    <polyline class="cls-2" points="31.13 568.19 214.13 528.98 31.13 489.77"/>
    <polyline class="cls-2" points="31.13 404.73 214.13 443.94 31.13 483.15"/>
    <polyline class="cls-2" points="37.35 486.46 224.95 526.66 412.56 486.46"/>
    <polyline class="cls-2" points="37.35 486.46 224.95 446.26 412.56 486.46"/>
    <polyline class="cls-2" points="418.77 483.15 235.78 443.94 418.77 404.73"/>
    <polyline class="cls-2" points="37.35 401.42 224.95 441.62 412.56 401.42"/>
    <line class="cls-2" x1="224.95" y1="361.22" x2="412.56" y2="401.42"/>
    <line class="cls-2" x1="37.35" y1="401.42" x2="224.95" y2="361.22"/>
    <line class="cls-2" x1="31.13" y1="398.11" x2="214.13" y2="358.9"/>
    <line class="cls-2" x1="235.78" y1="358.9" x2="418.77" y2="398.11"/>
    <line class="cls-2" x1="235.78" y1="273.86" x2="418.77" y2="234.65"/>
    <line class="cls-2" x1="224.95" y1="271.54" x2="417.82" y2="230.21"/>
    <line class="cls-2" x1="224.95" y1="356.58" x2="417.82" y2="315.25"/>
    <line class="cls-2" x1="235.78" y1="358.9" x2="418.77" y2="319.69"/>
    <line class="cls-2" x1="235.78" y1="273.86" x2="418.77" y2="313.08"/>
    <line class="cls-2" x1="224.95" y1="276.18" x2="417.82" y2="317.51"/>
    <line class="cls-2" x1="31.13" y1="319.69" x2="214.13" y2="358.9"/>
    <line class="cls-2" x1="32.08" y1="315.25" x2="224.95" y2="356.58"/>
    <line class="cls-2" x1="32.08" y1="317.51" x2="224.95" y2="276.18"/>
    <line class="cls-2" x1="31.13" y1="313.08" x2="214.13" y2="273.86"/>
    <line class="cls-2" x1="31.13" y1="234.65" x2="214.13" y2="273.86"/>
    <line class="cls-2" x1="32.08" y1="230.21" x2="224.95" y2="271.54"/>
    <path class="cls-4" d="M32.2,741.9c0-.71-.13-1.42-.4-2.09-.29-.72-.71-1.37-1.26-1.92s-1.2-.98-1.92-1.26c-.66-.26-1.37-.4-2.09-.4s-1.42.13-2.09.4c-.72.29-1.37.71-1.92,1.26s-.98,1.2-1.26,1.92c-.26.66-.4,1.37-.4,2.09s.13,1.42.4,2.09c.29.72.71,1.37,1.26,1.92s1.2.98,1.92,1.26c.66.26,1.37.4,2.09.4s1.42-.13,2.09-.4c.72-.29,1.37-.71,1.92-1.26s.98-1.2,1.26-1.92c.26-.66.4-1.37.4-2.09Z"/>
    <path class="cls-4" d="M429.05,741.9c0-.71-.13-1.42-.4-2.09-.29-.72-.71-1.37-1.26-1.92s-1.2-.98-1.92-1.26c-.66-.26-1.37-.4-2.09-.4s-1.42.13-2.09.4c-.72.29-1.37.71-1.92,1.26s-.98,1.2-1.26,1.92c-.26.66-.4,1.37-.4,2.09s.13,1.42.4,2.09c.29.72.71,1.37,1.26,1.92s1.2.98,1.92,1.26c.66.26,1.37.4,2.09.4s1.42-.13,2.09-.4c.72-.29,1.37-.71,1.92-1.26s.98-1.2,1.26-1.92c.26-.66.4-1.37.4-2.09Z"/>
    <path class="cls-4" d="M429.05,656.54c0-.71-.13-1.42-.4-2.09-.29-.72-.71-1.37-1.26-1.92s-1.2-.98-1.92-1.26c-.66-.26-1.37-.4-2.09-.4s-1.42.13-2.09.4c-.72.29-1.37.71-1.92,1.26s-.98,1.2-1.26,1.92c-.26.66-.4,1.37-.4,2.09s.13,1.42.4,2.09c.29.72.71,1.37,1.26,1.92s1.2.98,1.92,1.26c.66.26,1.37.4,2.09.4s1.42-.13,2.09-.4c.72-.29,1.37-.71,1.92-1.26s.98-1.2,1.26-1.92c.26-.66.4-1.37.4-2.09Z"/>
    <path class="cls-4" d="M32.2,656.54c0-.71-.13-1.42-.4-2.09-.29-.72-.71-1.37-1.26-1.92s-1.2-.98-1.92-1.26c-.66-.26-1.37-.4-2.09-.4s-1.42.13-2.09.4c-.72.29-1.37.71-1.92,1.26s-.98,1.2-1.26,1.92c-.26.66-.4,1.37-.4,2.09s.13,1.42.4,2.09c.29.72.71,1.37,1.26,1.92s1.2.98,1.92,1.26c.66.26,1.37.4,2.09.4s1.42-.13,2.09-.4c.72-.29,1.37-.71,1.92-1.26s.98-1.2,1.26-1.92c.26-.66.4-1.37.4-2.09Z"/>
    <path class="cls-4" d="M429.05,571.5c0-.71-.13-1.42-.4-2.09-.29-.72-.71-1.37-1.26-1.92-.55-.55-1.2-.98-1.92-1.26-.66-.26-1.37-.4-2.09-.4s-1.42.13-2.09.4c-.72.29-1.37.71-1.92,1.26-.55.55-.98,1.2-1.26,1.92-.26.66-.4,1.37-.4,2.09s.13,1.42.4,2.09c.29.72.71,1.37,1.26,1.92.55.55,1.2.98,1.92,1.26.66.26,1.37.4,2.09.4s1.42-.13,2.09-.4c.72-.29,1.37-.71,1.92-1.26.55-.55.98-1.2,1.26-1.92.26-.66.4-1.37.4-2.09Z"/>
    <path class="cls-4" d="M32.2,571.5c0-.71-.13-1.42-.4-2.09-.29-.72-.71-1.37-1.26-1.92-.55-.55-1.2-.98-1.92-1.26-.66-.26-1.37-.4-2.09-.4s-1.42.13-2.09.4c-.72.29-1.37.71-1.92,1.26-.55.55-.98,1.2-1.26,1.92-.26.66-.4,1.37-.4,2.09s.13,1.42.4,2.09c.29.72.71,1.37,1.26,1.92.55.55,1.2.98,1.92,1.26.66.26,1.37.4,2.09.4s1.42-.13,2.09-.4c.72-.29,1.37-.71,1.92-1.26.55-.55.98-1.2,1.26-1.92.26-.66.4-1.37.4-2.09Z"/>
    <path class="cls-4" d="M429.05,486.46c0-.71-.13-1.42-.4-2.09-.29-.72-.71-1.37-1.26-1.92-.55-.55-1.2-.98-1.92-1.26-.66-.26-1.37-.4-2.09-.4s-1.42.13-2.09.4c-.72.29-1.37.71-1.92,1.26-.55.55-.98,1.2-1.26,1.92-.26.66-.4,1.37-.4,2.09s.13,1.42.4,2.09c.29.72.71,1.37,1.26,1.92.55.55,1.2.98,1.92,1.26.66.26,1.37.4,2.09.4s1.42-.13,2.09-.4c.72-.29,1.37-.71,1.92-1.26.55-.55.98-1.2,1.26-1.92.26-.66.4-1.37.4-2.09Z"/>
    <path class="cls-4" d="M32.2,486.46c0-.71-.13-1.42-.4-2.09-.29-.72-.71-1.37-1.26-1.92-.55-.55-1.2-.98-1.92-1.26-.66-.26-1.37-.4-2.09-.4s-1.42.13-2.09.4c-.72.29-1.37.71-1.92,1.26-.55.55-.98,1.2-1.26,1.92-.26.66-.4,1.37-.4,2.09s.13,1.42.4,2.09c.29.72.71,1.37,1.26,1.92.55.55,1.2.98,1.92,1.26.66.26,1.37.4,2.09.4s1.42-.13,2.09-.4c.72-.29,1.37-.71,1.92-1.26.55-.55.98-1.2,1.26-1.92.26-.66.4-1.37.4-2.09Z"/>
    <path class="cls-4" d="M429.05,401.42c0-.71-.13-1.42-.4-2.09-.29-.72-.71-1.37-1.26-1.92s-1.2-.98-1.92-1.26c-.66-.26-1.37-.4-2.09-.4s-1.42.13-2.09.4c-.72.29-1.37.71-1.92,1.26s-.98,1.2-1.26,1.92c-.26.66-.4,1.37-.4,2.09s.13,1.42.4,2.09c.29.72.71,1.37,1.26,1.92s1.2.98,1.92,1.26c.66.26,1.37.4,2.09.4s1.42-.13,2.09-.4c.72-.29,1.37-.71,1.92-1.26s.98-1.2,1.26-1.92c.26-.66.4-1.37.4-2.09Z"/>
    <path class="cls-4" d="M32.2,401.42c0-.71-.13-1.42-.4-2.09-.29-.72-.71-1.37-1.26-1.92s-1.2-.98-1.92-1.26c-.66-.26-1.37-.4-2.09-.4s-1.42.13-2.09.4c-.72.29-1.37.71-1.92,1.26s-.98,1.2-1.26,1.92c-.26.66-.4,1.37-.4,2.09s.13,1.42.4,2.09c.29.72.71,1.37,1.26,1.92s1.2.98,1.92,1.26c.66.26,1.37.4,2.09.4s1.42-.13,2.09-.4c.72-.29,1.37-.71,1.92-1.26s.98-1.2,1.26-1.92c.26-.66.4-1.37.4-2.09Z"/>
    <path class="cls-4" d="M429.05,316.38c0-.71-.13-1.42-.4-2.09-.29-.72-.71-1.37-1.26-1.92s-1.2-.98-1.92-1.26c-.66-.26-1.37-.4-2.09-.4s-1.42.13-2.09.4c-.72.29-1.37.71-1.92,1.26-.55.55-.98,1.2-1.26,1.92-.26.66-.4,1.37-.4,2.09s.13,1.42.4,2.09c.29.72.71,1.37,1.26,1.92s1.2.98,1.92,1.26c.66.26,1.37.4,2.09.4s1.42-.13,2.09-.4c.72-.29,1.37-.71,1.92-1.26.55-.55.98-1.2,1.26-1.92.26-.66.4-1.37.4-2.09Z"/>
    <path class="cls-4" d="M32.2,316.38c0-.71-.13-1.42-.4-2.09-.29-.72-.71-1.37-1.26-1.92s-1.2-.98-1.92-1.26c-.66-.26-1.37-.4-2.09-.4s-1.42.13-2.09.4c-.72.29-1.37.71-1.92,1.26-.55.55-.98,1.2-1.26,1.92-.26.66-.4,1.37-.4,2.09s.13,1.42.4,2.09c.29.72.71,1.37,1.26,1.92s1.2.98,1.92,1.26c.66.26,1.37.4,2.09.4s1.42-.13,2.09-.4c.72-.29,1.37-.71,1.92-1.26.55-.55.98-1.2,1.26-1.92.26-.66.4-1.37.4-2.09Z"/>
    <path class="cls-4" d="M429.05,231.34c0-.71-.13-1.42-.4-2.09-.29-.72-.71-1.37-1.26-1.92-.55-.55-1.2-.98-1.92-1.26-.66-.26-1.37-.4-2.09-.4s-1.42.13-2.09.4c-.72.29-1.37.71-1.92,1.26-.55.55-.98,1.2-1.26,1.92-.26.66-.4,1.37-.4,2.09s.13,1.42.4,2.09c.29.72.71,1.37,1.26,1.92.55.55,1.2.98,1.92,1.26.66.26,1.37.4,2.09.4s1.42-.13,2.09-.4c.72-.29,1.37-.71,1.92-1.26.55-.55.98-1.2,1.26-1.92.26-.66.4-1.37.4-2.09Z"/>
    <path class="cls-4" d="M32.2,231.34c0-.71-.13-1.42-.4-2.09-.29-.72-.71-1.37-1.26-1.92-.55-.55-1.2-.98-1.92-1.26-.66-.26-1.37-.4-2.09-.4s-1.42.13-2.09.4c-.72.29-1.37.71-1.92,1.26-.55.55-.98,1.2-1.26,1.92-.26.66-.4,1.37-.4,2.09s.13,1.42.4,2.09c.29.72.71,1.37,1.26,1.92.55.55,1.2.98,1.92,1.26.66.26,1.37.4,2.09.4s1.42-.13,2.09-.4c.72-.29,1.37-.71,1.92-1.26.55-.55.98-1.2,1.26-1.92.26-.66.4-1.37.4-2.09Z"/>
    <polygon class="cls-4" points="136.95 47.78 135.96 47.78 135.96 54.87 136.95 54.87 136.95 51.9 153.27 51.9 153.27 54.87 154.27 54.87 154.27 47.78 153.27 47.78 153.27 50.76 136.95 50.76 136.95 47.78"/>
    <polygon class="cls-4" points="504.7 227.8 505.53 227.8 505.53 234.89 504.7 234.89 504.7 231.91 499.79 231.91 499.79 234.89 498.73 234.89 498.73 227.8 499.79 227.8 499.79 230.78 504.7 230.78 504.7 227.8"/>
  </g>
  <g id="hatch">
    <polygon class="cls-1" points="256.21 47.78 256.21 50.76 272.53 50.76 272.53 47.78 273.53 47.78 273.53 54.87 272.53 54.87 272.53 51.9 256.21 51.9 256.21 54.87 255.22 54.87 255.22 47.78 256.21 47.78"/>
    <polygon class="cls-1" points="136.95 47.78 136.95 50.76 153.27 50.76 153.27 47.78 154.27 47.78 154.27 54.87 153.27 54.87 153.27 51.9 136.95 51.9 136.95 54.87 135.96 54.87 135.96 47.78 136.95 47.78"/>
    <polygon class="cls-1" points="334.93 47.78 334.93 50.76 351.26 50.76 351.26 47.78 352.25 47.78 352.25 54.87 351.26 54.87 351.26 51.9 334.93 51.9 334.93 54.87 333.94 54.87 333.94 47.78 334.93 47.78"/>
    <polygon class="cls-1" points="374.55 47.78 374.55 50.76 390.87 50.76 390.87 47.78 391.86 47.78 391.86 54.87 390.87 54.87 390.87 51.9 374.55 51.9 374.55 54.87 373.56 54.87 373.56 47.78 374.55 47.78"/>
    <polygon class="cls-1" points="97.34 47.78 97.34 50.76 113.66 50.76 113.66 47.78 114.65 47.78 114.65 54.87 113.66 54.87 113.66 51.9 97.34 51.9 97.34 54.87 96.35 54.87 96.35 47.78 97.34 47.78"/>
    <path class="cls-1" d="M429.05,51.33c0,.71-.13,1.42-.4,2.09-.29.72-.71,1.37-1.26,1.92-.55.55-1.2.98-1.92,1.26-.66.26-1.37.4-2.09.4s-1.42-.13-2.09-.4c-.72-.29-1.37-.71-1.92-1.26-.55-.55-.98-1.2-1.26-1.92-.26-.66-.4-1.37-.4-2.09s.13-1.42.4-2.09c.29-.72.71-1.37,1.26-1.92.55-.55,1.2-.98,1.92-1.26.66-.26,1.37-.4,2.09-.4s1.42.13,2.09.4c.72.29,1.37.71,1.92,1.26.55.55.98,1.2,1.26,1.92.26.66.4,1.37.4,2.09Z"/>
    <polygon class="cls-1" points="504.7 47.12 505.53 47.12 505.53 54.21 504.7 54.21 504.7 51.23 499.79 51.23 499.79 54.21 498.73 54.21 498.73 47.12 499.79 47.12 499.79 50.1 504.7 50.1 504.7 47.12"/>
    <polygon class="cls-1" points="583.41 47.12 584.24 47.12 584.24 54.21 583.41 54.21 583.41 51.23 578.49 51.23 578.49 54.21 577.44 54.21 577.44 47.12 578.49 47.12 578.49 50.1 583.41 50.1 583.41 47.12"/>
    <polygon class="cls-1" points="662.11 47.12 662.95 47.12 662.95 54.21 662.11 54.21 662.11 51.23 657.2 51.23 657.2 54.21 656.15 54.21 656.15 47.12 657.2 47.12 657.2 50.1 662.11 50.1 662.11 47.12"/>
    <polygon class="cls-1" points="740.82 47.12 741.66 47.12 741.66 54.21 740.82 54.21 740.82 51.23 735.91 51.23 735.91 54.21 734.86 54.21 734.86 47.12 735.91 47.12 735.91 50.1 740.82 50.1 740.82 47.12"/>
    <path class="cls-1" d="M32.2,231.34c0,.71-.13,1.42-.4,2.09-.29.72-.71,1.37-1.26,1.92-.55.55-1.2.98-1.92,1.26-.66.26-1.37.4-2.09.4s-1.42-.13-2.09-.4c-.72-.29-1.37-.71-1.92-1.26-.55-.55-.98-1.2-1.26-1.92-.26-.66-.4-1.37-.4-2.09s.13-1.42.4-2.09c.29-.72.71-1.37,1.26-1.92.55-.55,1.2-.98,1.92-1.26.66-.26,1.37-.4,2.09-.4s1.42.13,2.09.4c.72.29,1.37.71,1.92,1.26.55.55.98,1.2,1.26,1.92.26.66.4,1.37.4,2.09Z"/>
    <path class="cls-1" d="M429.05,231.34c0,.71-.13,1.42-.4,2.09-.29.72-.71,1.37-1.26,1.92-.55.55-1.2.98-1.92,1.26-.66.26-1.37.4-2.09.4s-1.42-.13-2.09-.4c-.72-.29-1.37-.71-1.92-1.26-.55-.55-.98-1.2-1.26-1.92-.26-.66-.4-1.37-.4-2.09s.13-1.42.4-2.09c.29-.72.71-1.37,1.26-1.92.55-.55,1.2-.98,1.92-1.26.66-.26,1.37-.4,2.09-.4s1.42.13,2.09.4c.72.29,1.37.71,1.92,1.26.55.55.98,1.2,1.26,1.92.26.66.4,1.37.4,2.09Z"/>
    <path class="cls-1" d="M32.2,316.38c0,.71-.13,1.42-.4,2.09-.29.72-.71,1.37-1.26,1.92s-1.2.98-1.92,1.26c-.66.26-1.37.4-2.09.4s-1.42-.13-2.09-.4c-.72-.29-1.37-.71-1.92-1.26-.55-.55-.98-1.2-1.26-1.92-.26-.66-.4-1.37-.4-2.09s.13-1.42.4-2.09c.29-.72.71-1.37,1.26-1.92s1.2-.98,1.92-1.26c.66-.26,1.37-.4,2.09-.4s1.42.13,2.09.4c.72.29,1.37.71,1.92,1.26.55.55.98,1.2,1.26,1.92.26.66.4,1.37.4,2.09Z"/>
    <path class="cls-1" d="M429.05,316.38c0,.71-.13,1.42-.4,2.09-.29.72-.71,1.37-1.26,1.92s-1.2.98-1.92,1.26c-.66.26-1.37.4-2.09.4s-1.42-.13-2.09-.4c-.72-.29-1.37-.71-1.92-1.26-.55-.55-.98-1.2-1.26-1.92-.26-.66-.4-1.37-.4-2.09s.13-1.42.4-2.09c.29-.72.71-1.37,1.26-1.92s1.2-.98,1.92-1.26c.66-.26,1.37-.4,2.09-.4s1.42.13,2.09.4c.72.29,1.37.71,1.92,1.26.55.55.98,1.2,1.26,1.92.26.66.4,1.37.4,2.09Z"/>
    <path class="cls-1" d="M32.2,401.42c0,.71-.13,1.42-.4,2.09-.29.72-.71,1.37-1.26,1.92s-1.2.98-1.92,1.26c-.66.26-1.37.4-2.09.4s-1.42-.13-2.09-.4c-.72-.29-1.37-.71-1.92-1.26s-.98-1.2-1.26-1.92c-.26-.66-.4-1.37-.4-2.09s.13-1.42.4-2.09c.29-.72.71-1.37,1.26-1.92s1.2-.98,1.92-1.26c.66-.26,1.37-.4,2.09-.4s1.42.13,2.09.4c.72.29,1.37.71,1.92,1.26s.98,1.2,1.26,1.92c.26.66.4,1.37.4,2.09Z"/>
    <path class="cls-1" d="M429.05,401.42c0,.71-.13,1.42-.4,2.09-.29.72-.71,1.37-1.26,1.92s-1.2.98-1.92,1.26c-.66.26-1.37.4-2.09.4s-1.42-.13-2.09-.4c-.72-.29-1.37-.71-1.92-1.26s-.98-1.2-1.26-1.92c-.26-.66-.4-1.37-.4-2.09s.13-1.42.4-2.09c.29-.72.71-1.37,1.26-1.92s1.2-.98,1.92-1.26c.66-.26,1.37-.4,2.09-.4s1.42.13,2.09.4c.72.29,1.37.71,1.92,1.26s.98,1.2,1.26,1.92c.26.66.4,1.37.4,2.09Z"/>
    <path class="cls-1" d="M32.2,486.46c0,.71-.13,1.42-.4,2.09-.29.72-.71,1.37-1.26,1.92-.55.55-1.2.98-1.92,1.26-.66.26-1.37.4-2.09.4s-1.42-.13-2.09-.4c-.72-.29-1.37-.71-1.92-1.26-.55-.55-.98-1.2-1.26-1.92-.26-.66-.4-1.37-.4-2.09s.13-1.42.4-2.09c.29-.72.71-1.37,1.26-1.92.55-.55,1.2-.98,1.92-1.26.66-.26,1.37-.4,2.09-.4s1.42.13,2.09.4c.72.29,1.37.71,1.92,1.26.55.55.98,1.2,1.26,1.92.26.66.4,1.37.4,2.09Z"/>
    <path class="cls-1" d="M429.05,486.46c0,.71-.13,1.42-.4,2.09-.29.72-.71,1.37-1.26,1.92-.55.55-1.2.98-1.92,1.26-.66.26-1.37.4-2.09.4s-1.42-.13-2.09-.4c-.72-.29-1.37-.71-1.92-1.26-.55-.55-.98-1.2-1.26-1.92-.26-.66-.4-1.37-.4-2.09s.13-1.42.4-2.09c.29-.72.71-1.37,1.26-1.92.55-.55,1.2-.98,1.92-1.26.66-.26,1.37-.4,2.09-.4s1.42.13,2.09.4c.72.29,1.37.71,1.92,1.26.55.55.98,1.2,1.26,1.92.26.66.4,1.37.4,2.09Z"/>
    <path class="cls-1" d="M32.2,571.5c0,.71-.13,1.42-.4,2.09-.29.72-.71,1.37-1.26,1.92-.55.55-1.2.98-1.92,1.26-.66.26-1.37.4-2.09.4s-1.42-.13-2.09-.4c-.72-.29-1.37-.71-1.92-1.26-.55-.55-.98-1.2-1.26-1.92-.26-.66-.4-1.37-.4-2.09s.13-1.42.4-2.09c.29-.72.71-1.37,1.26-1.92.55-.55,1.2-.98,1.92-1.26.66-.26,1.37-.4,2.09-.4s1.42.13,2.09.4c.72.29,1.37.71,1.92,1.26.55.55.98,1.2,1.26,1.92.26.66.4,1.37.4,2.09Z"/>
    <path class="cls-1" d="M429.05,571.5c0,.71-.13,1.42-.4,2.09-.29.72-.71,1.37-1.26,1.92-.55.55-1.2.98-1.92,1.26-.66.26-1.37.4-2.09.4s-1.42-.13-2.09-.4c-.72-.29-1.37-.71-1.92-1.26-.55-.55-.98-1.2-1.26-1.92-.26-.66-.4-1.37-.4-2.09s.13-1.42.4-2.09c.29-.72.71-1.37,1.26-1.92.55-.55,1.2-.98,1.92-1.26.66-.26,1.37-.4,2.09-.4s1.42.13,2.09.4c.72.29,1.37.71,1.92,1.26.55.55.98,1.2,1.26,1.92.26.66.4,1.37.4,2.09Z"/>
    <path class="cls-1" d="M32.2,656.54c0,.71-.13,1.42-.4,2.09-.29.72-.71,1.37-1.26,1.92s-1.2.98-1.92,1.26c-.66.26-1.37.4-2.09.4s-1.42-.13-2.09-.4c-.72-.29-1.37-.71-1.92-1.26s-.98-1.2-1.26-1.92c-.26-.66-.4-1.37-.4-2.09s.13-1.42.4-2.09c.29-.72.71-1.37,1.26-1.92s1.2-.98,1.92-1.26c.66-.26,1.37-.4,2.09-.4s1.42.13,2.09.4c.72.29,1.37.71,1.92,1.26s.98,1.2,1.26,1.92c.26.66.4,1.37.4,2.09Z"/>
    <path class="cls-1" d="M429.05,656.54c0,.71-.13,1.42-.4,2.09-.29.72-.71,1.37-1.26,1.92s-1.2.98-1.92,1.26c-.66.26-1.37.4-2.09.4s-1.42-.13-2.09-.4c-.72-.29-1.37-.71-1.92-1.26s-.98-1.2-1.26-1.92c-.26-.66-.4-1.37-.4-2.09s.13-1.42.4-2.09c.29-.72.71-1.37,1.26-1.92s1.2-.98,1.92-1.26c.66-.26,1.37-.4,2.09-.4s1.42.13,2.09.4c.72.29,1.37.71,1.92,1.26s.98,1.2,1.26,1.92c.26.66.4,1.37.4,2.09Z"/>
    <path class="cls-1" d="M429.05,741.9c0,.71-.13,1.42-.4,2.09-.29.72-.71,1.37-1.26,1.92s-1.2.98-1.92,1.26c-.66.26-1.37.4-2.09.4s-1.42-.13-2.09-.4c-.72-.29-1.37-.71-1.92-1.26s-.98-1.2-1.26-1.92c-.26-.66-.4-1.37-.4-2.09s.13-1.42.4-2.09c.29-.72.71-1.37,1.26-1.92s1.2-.98,1.92-1.26c.66-.26,1.37-.4,2.09-.4s1.42.13,2.09.4c.72.29,1.37.71,1.92,1.26s.98,1.2,1.26,1.92c.26.66.4,1.37.4,2.09Z"/>
    <path class="cls-1" d="M32.2,741.9c0,.71-.13,1.42-.4,2.09-.29.72-.71,1.37-1.26,1.92s-1.2.98-1.92,1.26c-.66.26-1.37.4-2.09.4s-1.42-.13-2.09-.4c-.72-.29-1.37-.71-1.92-1.26s-.98-1.2-1.26-1.92c-.26-.66-.4-1.37-.4-2.09s.13-1.42.4-2.09c.29-.72.71-1.37,1.26-1.92s1.2-.98,1.92-1.26c.66-.26,1.37-.4,2.09-.4s1.42.13,2.09.4c.72.29,1.37.71,1.92,1.26s.98,1.2,1.26,1.92c.26.66.4,1.37.4,2.09Z"/>
    <polygon class="cls-1" points="97.34 234.89 96.35 234.89 96.35 227.8 97.34 227.8 97.34 230.78 113.66 230.78 113.66 227.8 114.65 227.8 114.65 234.89 113.66 234.89 113.66 231.91 97.34 231.91 97.34 234.89"/>
    <polygon class="cls-1" points="136.95 234.89 135.96 234.89 135.96 227.8 136.95 227.8 136.95 230.78 153.27 230.78 153.27 227.8 154.27 227.8 154.27 234.89 153.27 234.89 153.27 231.91 136.95 231.91 136.95 234.89"/>
    <polygon class="cls-1" points="176.57 234.89 175.57 234.89 175.57 227.8 176.57 227.8 176.57 230.78 192.89 230.78 192.89 227.8 193.88 227.8 193.88 234.89 192.89 234.89 192.89 231.91 176.57 231.91 176.57 234.89"/>
    <polygon class="cls-1" points="256.21 234.89 255.22 234.89 255.22 227.8 256.21 227.8 256.21 230.78 272.53 230.78 272.53 227.8 273.53 227.8 273.53 234.89 272.53 234.89 272.53 231.91 256.21 231.91 256.21 234.89"/>
    <polygon class="cls-1" points="295.83 234.89 294.83 234.89 294.83 227.8 295.83 227.8 295.83 230.78 312.15 230.78 312.15 227.8 313.14 227.8 313.14 234.89 312.15 234.89 312.15 231.91 295.83 231.91 295.83 234.89"/>
    <polygon class="cls-1" points="335.44 234.89 334.45 234.89 334.45 227.8 335.44 227.8 335.44 230.78 351.76 230.78 351.76 227.8 352.75 227.8 352.75 234.89 351.76 234.89 351.76 231.91 335.44 231.91 335.44 234.89"/>
    <polygon class="cls-1" points="109.04 746.47 109.04 747.3 101.96 747.3 101.96 746.47 104.93 746.47 104.93 741.55 101.96 741.55 101.96 740.5 109.04 740.5 109.04 741.55 106.07 741.55 106.07 746.47 109.04 746.47"/>
    <polygon class="cls-1" points="189.56 746.47 189.56 747.3 182.47 747.3 182.47 746.47 185.45 746.47 185.45 741.55 182.47 741.55 182.47 740.5 189.56 740.5 189.56 741.55 186.58 741.55 186.58 746.47 189.56 746.47"/>
    <polygon class="cls-1" points="347.18 746.47 347.18 747.3 340.09 747.3 340.09 746.47 343.07 746.47 343.07 741.55 340.09 741.55 340.09 740.5 347.18 740.5 347.18 741.55 344.2 741.55 344.2 746.47 347.18 746.47"/>
    <polygon class="cls-1" points="268.4 746.47 268.4 747.3 261.31 747.3 261.31 746.47 264.29 746.47 264.29 741.55 261.31 741.55 261.31 740.5 268.4 740.5 268.4 741.55 265.42 741.55 265.42 746.47 268.4 746.47"/>
    <polygon class="cls-1" points="504.7 227.8 505.53 227.8 505.53 234.89 504.7 234.89 504.7 231.91 499.79 231.91 499.79 234.89 498.73 234.89 498.73 227.8 499.79 227.8 499.79 230.78 504.7 230.78 504.7 227.8"/>
    <polygon class="cls-1" points="583.41 227.8 584.24 227.8 584.24 234.89 583.41 234.89 583.41 231.91 578.49 231.91 578.49 234.89 577.44 234.89 577.44 227.8 578.49 227.8 578.49 230.78 583.41 230.78 583.41 227.8"/>
    <polygon class="cls-1" points="662.11 227.8 662.95 227.8 662.95 234.89 662.11 234.89 662.11 231.91 657.2 231.91 657.2 234.89 656.15 234.89 656.15 227.8 657.2 227.8 657.2 230.78 662.11 230.78 662.11 227.8"/>
    <polygon class="cls-1" points="740.82 227.8 741.66 227.8 741.66 234.89 740.82 234.89 740.82 231.91 735.91 231.91 735.91 234.89 734.86 234.89 734.86 227.8 735.91 227.8 735.91 230.78 740.82 230.78 740.82 227.8"/>
    <path class="cls-1" d="M32.2,51.33c0,.71-.13,1.42-.4,2.09-.29.72-.71,1.37-1.26,1.92-.55.55-1.2.98-1.92,1.26-.66.26-1.37.4-2.09.4s-1.42-.13-2.09-.4c-.72-.29-1.37-.71-1.92-1.26-.55-.55-.98-1.2-1.26-1.92-.26-.66-.4-1.37-.4-2.09s.13-1.42.4-2.09c.29-.72.71-1.37,1.26-1.92.55-.55,1.2-.98,1.92-1.26.66-.26,1.37-.4,2.09-.4s1.42.13,2.09.4c.72.29,1.37.71,1.92,1.26.55.55.98,1.2,1.26,1.92.26.66.4,1.37.4,2.09Z"/>
    <polygon class="cls-1" points="176.57 47.78 176.57 50.76 192.89 50.76 192.89 47.78 193.88 47.78 193.88 54.87 192.89 54.87 192.89 51.9 176.57 51.9 176.57 54.87 175.57 54.87 175.57 47.78 176.57 47.78"/>
    <polygon class="cls-1" points="188.61 740.5 184.36 740.5 184.36 674.82 133.51 674.82 124.48 659.37 68.88 659.37 68.88 654.27 127.41 654.27 136.44 669.72 224.95 669.72 313.47 669.72 322.5 654.27 381.03 654.27 381.03 659.37 381.03 709.72 376.78 709.72 376.78 659.37 325.42 659.37 316.4 674.82 224.95 674.82 188.61 674.82 188.61 740.5"/>
  </g>
</svg>