<?xml version="1.0" encoding="UTF-8"?>
<svg id="Layer_2" data-name="Layer 2" xmlns="http://www.w3.org/2000/svg" viewBox="0 0 756.24 396.61">
  <defs>
    <style>
      .cls-1, .cls-2, .cls-3, .cls-4, .cls-5, .cls-6, .cls-7, .cls-8, .cls-9, .cls-10, .cls-11 {
        stroke: #fff;
      }

      .cls-1, .cls-2, .cls-3, .cls-5, .cls-6, .cls-7, .cls-8, .cls-9, .cls-10, .cls-11 {
        fill: none;
      }

      .cls-1, .cls-5, .cls-10 {
        stroke-width: .75px;
      }

      .cls-12, .cls-4 {
        fill: #fff;
      }

      .cls-2 {
        stroke-width: .35px;
      }

      .cls-2, .cls-3, .cls-4, .cls-5, .cls-6, .cls-7, .cls-8, .cls-9, .cls-10 {
        stroke-linecap: round;
      }

      .cls-6 {
        stroke-width: 2px;
      }

      .cls-7 {
        stroke-width: .5px;
      }

      .cls-8 {
        stroke-width: 2.5px;
      }

      .cls-9, .cls-11 {
        stroke-width: 1.5px;
      }

      .cls-10 {
        stroke-miterlimit: 10;
      }
    </style>
  </defs>
  <g id="line">
    <line class="cls-7" x1="88.47" y1="334.31" x2="105.9" y2="334.31"/>
    <line class="cls-7" x1="88.47" y1="337.74" x2="105.9" y2="337.74"/>
    <line class="cls-7" x1="88.47" y1="341.18" x2="105.9" y2="341.18"/>
    <line class="cls-7" x1="88.47" y1="344.61" x2="105.9" y2="344.61"/>
    <line class="cls-7" x1="88.47" y1="348.05" x2="105.9" y2="348.05"/>
    <line class="cls-7" x1="88.47" y1="351.49" x2="105.9" y2="351.49"/>
    <line class="cls-7" x1="88.47" y1="354.92" x2="105.9" y2="354.92"/>
    <line class="cls-7" x1="88.47" y1="358.36" x2="105.9" y2="358.36"/>
    <line class="cls-7" x1="88.47" y1="361.79" x2="105.9" y2="361.79"/>
    <line class="cls-7" x1="88.47" y1="365.23" x2="105.9" y2="365.23"/>
    <line class="cls-7" x1="88.47" y1="368.66" x2="105.9" y2="368.66"/>
    <line class="cls-7" x1="70.03" y1="368.66" x2="85.52" y2="368.66"/>
    <line class="cls-7" x1="70.03" y1="365.23" x2="85.52" y2="365.23"/>
    <line class="cls-7" x1="70.03" y1="361.79" x2="85.52" y2="361.79"/>
    <line class="cls-7" x1="70.03" y1="358.36" x2="85.52" y2="358.36"/>
    <line class="cls-7" x1="70.03" y1="354.92" x2="85.52" y2="354.92"/>
    <line class="cls-7" x1="70.03" y1="351.49" x2="85.52" y2="351.49"/>
    <line class="cls-5" x1="71.7" y1="267.41" x2="71.7" y2="298.03"/>
    <line class="cls-7" x1="70.03" y1="348.05" x2="85.52" y2="348.05"/>
    <line class="cls-7" x1="70.03" y1="344.61" x2="85.52" y2="344.61"/>
    <line class="cls-7" x1="70.03" y1="341.18" x2="85.52" y2="341.18"/>
    <line class="cls-7" x1="70.03" y1="337.74" x2="85.52" y2="337.74"/>
    <line class="cls-7" x1="70.03" y1="334.31" x2="85.52" y2="334.31"/>
    <line class="cls-7" x1="70.03" y1="330.84" x2="85.52" y2="330.84"/>
    <line class="cls-7" x1="665.62" y1="368.66" x2="648.18" y2="368.66"/>
    <line class="cls-7" x1="665.62" y1="365.23" x2="648.18" y2="365.23"/>
    <line class="cls-7" x1="665.62" y1="361.79" x2="648.18" y2="361.79"/>
    <line class="cls-7" x1="665.62" y1="358.36" x2="648.18" y2="358.36"/>
    <line class="cls-7" x1="665.62" y1="354.92" x2="648.18" y2="354.92"/>
    <line class="cls-7" x1="665.62" y1="351.49" x2="648.18" y2="351.49"/>
    <line class="cls-7" x1="665.62" y1="348.05" x2="648.18" y2="348.05"/>
    <line class="cls-7" x1="665.62" y1="344.61" x2="648.18" y2="344.61"/>
    <line class="cls-7" x1="665.62" y1="341.18" x2="648.18" y2="341.18"/>
    <line class="cls-7" x1="665.62" y1="337.74" x2="648.18" y2="337.74"/>
    <line class="cls-7" x1="665.62" y1="334.31" x2="648.18" y2="334.31"/>
    <line class="cls-7" x1="290.34" y1="392.73" x2="465.81" y2="392.73"/>
    <line class="cls-5" x1="261.7" y1="298.03" x2="277.82" y2="298.03"/>
    <line class="cls-7" x1="473" y1="298.03" x2="492.48" y2="298.03"/>
    <line class="cls-7" x1="279.65" y1="268.4" x2="292.41" y2="268.4"/>
    <line class="cls-7" x1="408.33" y1="269.8" x2="426.19" y2="269.8"/>
    <line class="cls-5" x1="504.53" y1="254.54" x2="504.53" y2="263.8"/>
    <line class="cls-7" x1="153.93" y1="254.61" x2="153.93" y2="263.53"/>
    <line class="cls-7" x1="625.38" y1="272.51" x2="634.3" y2="272.51"/>
    <line class="cls-7" x1="737.67" y1="17.67" x2="741.06" y2="17.67"/>
    <line class="cls-5" x1="737.48" y1="246.77" x2="741.06" y2="246.77"/>
    <line class="cls-7" x1="640.01" y1="1.25" x2="681.59" y2="1.25"/>
    <line class="cls-7" x1="113.16" y1="1.25" x2="70.11" y2="1.25"/>
    <line class="cls-7" x1="685.96" y1="330.84" x2="668.56" y2="330.84"/>
    <line class="cls-7" x1="685.96" y1="334.31" x2="668.56" y2="334.31"/>
    <line class="cls-7" x1="685.96" y1="337.74" x2="668.56" y2="337.74"/>
    <line class="cls-7" x1="685.96" y1="341.18" x2="668.56" y2="341.18"/>
    <line class="cls-7" x1="685.96" y1="344.61" x2="668.56" y2="344.61"/>
    <line class="cls-7" x1="685.96" y1="348.05" x2="668.56" y2="348.05"/>
    <line class="cls-7" x1="685.96" y1="351.49" x2="668.56" y2="351.49"/>
    <line class="cls-7" x1="685.96" y1="354.92" x2="668.56" y2="354.92"/>
    <line class="cls-7" x1="685.96" y1="358.36" x2="668.56" y2="358.36"/>
    <line class="cls-7" x1="685.96" y1="361.79" x2="668.56" y2="361.79"/>
    <line class="cls-7" x1="685.96" y1="365.23" x2="668.56" y2="365.23"/>
    <line class="cls-7" x1="685.96" y1="368.66" x2="668.56" y2="368.66"/>
    <line class="cls-5" x1="681.29" y1="267.41" x2="681.29" y2="298.03"/>
    <line class="cls-2" x1="330.54" y1="360.97" x2="330.54" y2="392.73"/>
    <line class="cls-2" x1="378.2" y1="386.28" x2="378.2" y2="392.73"/>
    <line class="cls-2" x1="421.6" y1="360.97" x2="421.6" y2="392.73"/>
    <line class="cls-2" x1="436.77" y1="360.97" x2="436.77" y2="383.03"/>
    <line class="cls-2" x1="436.77" y1="388.32" x2="436.77" y2="392.73"/>
    <line class="cls-2" x1="406.42" y1="360.97" x2="406.42" y2="383.03"/>
    <line class="cls-2" x1="406.42" y1="388.32" x2="406.42" y2="392.73"/>
    <line class="cls-2" x1="391.24" y1="360.97" x2="391.24" y2="383.03"/>
    <line class="cls-2" x1="391.24" y1="388.32" x2="391.24" y2="392.73"/>
    <line class="cls-2" x1="360.89" y1="360.97" x2="360.89" y2="383.03"/>
    <line class="cls-2" x1="360.89" y1="388.32" x2="360.89" y2="392.73"/>
    <line class="cls-2" x1="345.72" y1="360.97" x2="345.72" y2="383.03"/>
    <line class="cls-2" x1="345.72" y1="388.32" x2="345.72" y2="392.73"/>
    <line class="cls-2" x1="315.36" y1="360.97" x2="315.36" y2="383.03"/>
    <line class="cls-2" x1="315.36" y1="388.32" x2="315.36" y2="392.73"/>
    <line class="cls-7" x1="741.06" y1="17.67" x2="741.06" y2="246.77"/>
  </g>
  <g id="Thickline">
    <polyline class="cls-9" points="634.3 272.51 673.87 272.51 673.87 267.41 681.29 267.41"/>
    <rect class="cls-5" x="223.18" y="9.54" width="3.98" height="3.86"/>
    <path class="cls-9" d="M215,9.54c-.51,0-1,.2-1.36.57s-.57.85-.57,1.36.2,1,.57,1.36c.36.36.85.57,1.36.57h20.34c.51,0,1-.2,1.36-.57s.57-.85.57-1.36-.2-1-.57-1.36c-.36-.36-.85-.57-1.36-.57h-20.34Z"/>
    <path class="cls-9" d="M254.96,9.54c-.51,0-1,.2-1.36.57s-.57.85-.57,1.36.2,1,.57,1.36.85.57,1.36.57h20.34c.51,0,1-.2,1.36-.57s.57-.85.57-1.36-.2-1-.56-1.36c-.36-.36-.85-.57-1.36-.57h-20.34Z"/>
    <rect class="cls-5" x="263.14" y="9.54" width="3.98" height="3.86"/>
    <line class="cls-9" x1="237.27" y1="11.47" x2="253.03" y2="11.47"/>
    <line class="cls-9" x1="202.09" y1="7.35" x2="202.09" y2="1.25"/>
    <line class="cls-9" x1="206.22" y1="11.47" x2="213.07" y2="11.47"/>
    <line class="cls-9" x1="277.22" y1="11.47" x2="285.92" y2="11.47"/>
    <line class="cls-9" x1="290.04" y1="7.35" x2="290.04" y2="1.25"/>
    <rect class="cls-5" x="528.83" y="9.54" width="3.98" height="3.86"/>
    <path class="cls-9" d="M540.99,9.54c.51,0,1,.2,1.36.57.36.36.57.85.57,1.36s-.2,1-.57,1.36c-.36.36-.85.57-1.36.57h-20.34c-.51,0-1-.2-1.36-.57s-.57-.85-.57-1.36.2-1,.57-1.36.85-.57,1.36-.57h20.34Z"/>
    <path class="cls-9" d="M501.03,9.54c.51,0,1,.2,1.36.57s.57.85.57,1.36-.2,1-.57,1.36c-.36.36-.85.57-1.36.57h-20.34c-.51,0-1-.2-1.36-.57s-.57-.85-.57-1.36.2-1,.57-1.36.85-.57,1.36-.57h20.34Z"/>
    <polyline class="cls-8" points="1.38 264.74 1.38 267.41 72.07 267.41"/>
    <polyline class="cls-7" points="18.32 1.25 1 1.25 1 264.74"/>
    <line class="cls-8" x1="70.11" y1="1.25" x2="18.32" y2="1.25"/>
    <rect class="cls-5" x="488.88" y="9.54" width="3.98" height="3.86"/>
    <line class="cls-8" x1="378" y1="1.25" x2="113.16" y2="1.25"/>
    <polyline class="cls-9" points="754.99 264.74 754.99 267.41 684.29 267.41"/>
    <polyline class="cls-7" points="737.67 1.25 754.99 1.25 754.99 264.74"/>
    <line class="cls-8" x1="681.59" y1="1.25" x2="737.67" y2="1.25"/>
    <line class="cls-9" x1="518.72" y1="11.47" x2="502.96" y2="11.47"/>
    <line class="cls-8" x1="378" y1="1.25" x2="640.01" y2="1.25"/>
    <line class="cls-9" x1="553.9" y1="7.35" x2="553.9" y2="1.25"/>
    <line class="cls-9" x1="737.48" y1="246.77" x2="729.8" y2="246.77"/>
    <line class="cls-9" x1="549.77" y1="11.47" x2="542.92" y2="11.47"/>
    <line class="cls-9" x1="724.47" y1="17.67" x2="737.67" y2="17.67"/>
    <polyline class="cls-9" points="562.09 246.77 542.82 246.77 542.82 272.51 602.06 272.51 602.06 246.77 575.43 246.77"/>
    <line class="cls-9" x1="478.77" y1="11.47" x2="470.07" y2="11.47"/>
    <line class="cls-9" x1="619.17" y1="272.51" x2="625.38" y2="272.51"/>
    <line class="cls-9" x1="465.95" y1="7.35" x2="465.95" y2="1.25"/>
    <line class="cls-9" x1="153.93" y1="263.53" x2="153.93" y2="269.57"/>
    <line class="cls-9" x1="153.93" y1="246.77" x2="153.93" y2="254.61"/>
    <line class="cls-9" x1="564.11" y1="11.47" x2="558.02" y2="11.47"/>
    <polyline class="cls-9" points="504.53 254.54 504.53 247.05 247.97 247.05 247.97 269.8 279.65 269.8"/>
    <polyline class="cls-9" points="426.19 269.8 504.53 269.8 504.53 263.8"/>
    <line class="cls-9" x1="633.38" y1="11.47" x2="637.73" y2="11.47"/>
    <line class="cls-9" x1="292.41" y1="269.8" x2="408.33" y2="269.8"/>
    <polyline class="cls-9" points="426.19 266.06 430.13 266.06 430.13 247.05 388.02 247.05 388.02 266.06 408.33 266.06"/>
    <line class="cls-9" x1="408.33" y1="266.06" x2="408.33" y2="269.8"/>
    <line class="cls-9" x1="191.88" y1="11.47" x2="197.97" y2="11.47"/>
    <line class="cls-9" x1="292.41" y1="267.01" x2="320.44" y2="267.01"/>
    <line class="cls-9" x1="272.04" y1="267.01" x2="279.65" y2="267.01"/>
    <line class="cls-9" x1="292.41" y1="269.8" x2="292.41" y2="267.01"/>
    <line class="cls-9" x1="279.65" y1="269.8" x2="279.65" y2="267.01"/>
    <line class="cls-9" x1="292.41" y1="269.8" x2="320.44" y2="269.8"/>
    <line class="cls-9" x1="272.04" y1="269.8" x2="279.65" y2="269.8"/>
    <line class="cls-9" x1="122.61" y1="11.47" x2="118.26" y2="11.47"/>
    <rect class="cls-3" x="199.4" y="328.92" width="5.38" height="4.81"/>
    <line class="cls-8" x1="635.03" y1="395.36" x2="648.18" y2="395.36"/>
    <polyline class="cls-9" points="648.18 395.36 648.18 298.03 635.03 298.03 635.03 395.36"/>
    <polyline class="cls-8" points="681.29 298.03 691.69 298.03 691.69 395.36 648.18 395.36"/>
    <line class="cls-3" x1="665.63" y1="298.03" x2="681.29" y2="298.03"/>
    <line class="cls-3" x1="665.63" y1="306.74" x2="685.96" y2="306.74"/>
    <line class="cls-3" x1="665.63" y1="298.03" x2="665.63" y2="306.74"/>
    <line class="cls-9" x1="492.48" y1="298.03" x2="504.09" y2="298.03"/>
    <line class="cls-9" x1="282.99" y1="298.03" x2="282.99" y2="360.97"/>
    <line class="cls-9" x1="229.72" y1="298.03" x2="261.7" y2="298.03"/>
    <line class="cls-9" x1="251.9" y1="298.03" x2="251.9" y2="395.36"/>
    <line class="cls-9" x1="686.51" y1="302.34" x2="689.54" y2="302.34"/>
    <line class="cls-9" x1="688.02" y1="302.34" x2="688.02" y2="305.77"/>
    <line class="cls-9" x1="686.51" y1="305.77" x2="689.54" y2="305.77"/>
    <line class="cls-9" x1="686.51" y1="386.62" x2="689.54" y2="386.62"/>
    <line class="cls-9" x1="688.02" y1="383.18" x2="688.02" y2="386.62"/>
    <line class="cls-9" x1="686.51" y1="383.18" x2="689.54" y2="383.18"/>
    <line class="cls-9" x1="63.67" y1="383.18" x2="66.69" y2="383.18"/>
    <line class="cls-9" x1="65.18" y1="383.18" x2="65.18" y2="386.62"/>
    <line class="cls-9" x1="63.67" y1="386.62" x2="66.69" y2="386.62"/>
    <line class="cls-9" x1="63.67" y1="305.77" x2="66.69" y2="305.77"/>
    <line class="cls-9" x1="65.18" y1="302.34" x2="65.18" y2="305.77"/>
    <line class="cls-9" x1="63.67" y1="302.34" x2="66.69" y2="302.34"/>
    <line class="cls-9" x1="685.96" y1="388.05" x2="648.18" y2="388.05"/>
    <line class="cls-9" x1="647.34" y1="298.03" x2="648.18" y2="298.03"/>
    <line class="cls-11" x1="292.73" y1="360.97" x2="375.92" y2="360.97"/>
    <line class="cls-11" x1="282.99" y1="360.97" x2="287.36" y2="360.97"/>
    <rect class="cls-3" x="199.4" y="362.72" width="5.38" height="4.81"/>
    <rect class="cls-3" x="287.36" y="328.92" width="5.38" height="4.81"/>
    <rect class="cls-3" x="287.36" y="362.72" width="5.38" height="4.81"/>
    <line class="cls-11" x1="463.46" y1="360.97" x2="380.89" y2="360.97"/>
    <rect class="cls-9" x="463.46" y="353.73" width="4.7" height="22.53"/>
    <polyline class="cls-9" points="319.83 320.05 319.83 313.41 344.34 313.41 344.34 323.05 359.67 323.05 359.67 313.41 378 313.41"/>
    <polyline class="cls-9" points="294.54 312.77 303.71 312.77 303.71 320.05"/>
    <line class="cls-9" x1="319.83" y1="320.05" x2="319.83" y2="323.05"/>
    <line class="cls-9" x1="303.71" y1="320.05" x2="303.71" y2="323.05"/>
    <rect class="cls-12" x="435.56" y="394.25" width="2.43" height="2.32"/>
    <rect class="cls-12" x="405.74" y="394.25" width="2.43" height="2.32"/>
    <rect class="cls-12" x="375.92" y="394.25" width="2.43" height="2.32"/>
    <rect class="cls-12" x="346.1" y="394.25" width="2.43" height="2.32"/>
    <rect class="cls-12" x="316.28" y="394.25" width="2.43" height="2.32"/>
    <rect class="cls-9" x="463.26" y="328.92" width="5.38" height="4.81"/>
    <polyline class="cls-9" points="215.65 298.03 215.65 348.39 206.09 348.39 206.09 395.36 195.71 395.36"/>
    <line class="cls-9" x1="195.71" y1="298.03" x2="215.65" y2="298.03"/>
    <line class="cls-9" x1="195.71" y1="298.03" x2="195.71" y2="395.36"/>
    <line class="cls-9" x1="62.39" y1="298.03" x2="87.74" y2="298.03"/>
    <line class="cls-9" x1="105.9" y1="305.26" x2="113.79" y2="305.26"/>
    <rect class="cls-12" x="744.52" y="236.77" width="4.51" height="1.77"/>
    <rect class="cls-12" x="744.52" y="216.15" width="4.51" height="1.77"/>
    <rect class="cls-12" x="744.52" y="195.54" width="4.51" height="1.77"/>
    <rect class="cls-12" x="744.52" y="174.93" width="4.51" height="1.77"/>
    <rect class="cls-12" x="744.52" y="154.31" width="4.51" height="1.77"/>
    <rect class="cls-12" x="744.52" y="133.7" width="4.51" height="1.77"/>
    <rect class="cls-12" x="744.52" y="113.08" width="4.51" height="1.77"/>
    <rect class="cls-12" x="744.52" y="92.47" width="4.51" height="1.77"/>
    <rect class="cls-12" x="744.52" y="71.86" width="4.51" height="1.77"/>
    <rect class="cls-12" x="744.52" y="51.24" width="4.51" height="1.77"/>
    <rect class="cls-12" x="744.52" y="30.63" width="4.51" height="1.77"/>
    <rect class="cls-12" x="6.96" y="236.77" width="4.51" height="1.77"/>
    <rect class="cls-12" x="6.96" y="216.15" width="4.51" height="1.77"/>
    <rect class="cls-12" x="6.96" y="133.7" width="4.51" height="1.77"/>
    <rect class="cls-12" x="6.96" y="113.08" width="4.51" height="1.77"/>
    <rect class="cls-12" x="6.96" y="92.47" width="4.51" height="1.77"/>
    <rect class="cls-12" x="6.96" y="71.86" width="4.51" height="1.77"/>
    <rect class="cls-12" x="6.96" y="51.24" width="4.51" height="1.77"/>
    <rect class="cls-12" x="6.96" y="30.63" width="4.51" height="1.77"/>
    <line class="cls-5" x1="465.81" y1="376.26" x2="465.95" y2="381.14"/>
    <line class="cls-5" x1="465.95" y1="319.93" x2="465.95" y2="314.62"/>
    <line class="cls-5" x1="465.95" y1="376.52" x2="465.95" y2="381.14"/>
    <rect class="cls-9" x="463.26" y="319.93" width="5.38" height="22.79"/>
    <line class="cls-5" x1="465.95" y1="342.72" x2="465.95" y2="353.73"/>
    <line class="cls-9" x1="468.21" y1="306.45" x2="463.69" y2="306.45"/>
    <line class="cls-9" x1="468.21" y1="314.62" x2="463.69" y2="314.62"/>
    <line class="cls-9" x1="465.95" y1="306.45" x2="465.95" y2="314.62"/>
    <line class="cls-9" x1="290.04" y1="306.45" x2="290.04" y2="314.62"/>
    <line class="cls-9" x1="292.3" y1="314.62" x2="287.78" y2="314.62"/>
    <line class="cls-9" x1="292.3" y1="306.45" x2="287.78" y2="306.45"/>
    <line class="cls-1" x1="290.04" y1="342.72" x2="290.04" y2="353.73"/>
    <rect class="cls-3" x="287.36" y="353.73" width="5.38" height="22.79"/>
    <rect class="cls-3" x="287.36" y="319.93" width="5.38" height="22.79"/>
    <line class="cls-5" x1="290.04" y1="376.52" x2="290.04" y2="381.14"/>
    <line class="cls-5" x1="290.04" y1="319.93" x2="290.04" y2="314.62"/>
    <line class="cls-5" x1="202.09" y1="319.93" x2="202.09" y2="314.62"/>
    <line class="cls-5" x1="202.09" y1="376.52" x2="202.09" y2="381.14"/>
    <rect class="cls-3" x="199.4" y="319.93" width="5.38" height="22.79"/>
    <rect class="cls-3" x="199.4" y="353.73" width="5.38" height="22.79"/>
    <line class="cls-5" x1="202.09" y1="342.72" x2="202.09" y2="353.73"/>
    <line class="cls-9" x1="204.35" y1="306.45" x2="199.83" y2="306.45"/>
    <line class="cls-9" x1="204.35" y1="314.62" x2="199.83" y2="314.62"/>
    <line class="cls-9" x1="202.09" y1="306.45" x2="202.09" y2="314.62"/>
    <line class="cls-9" x1="116.11" y1="300.29" x2="111.59" y2="300.29"/>
    <line class="cls-9" x1="116.11" y1="308.46" x2="111.59" y2="308.46"/>
    <line class="cls-9" x1="113.85" y1="300.29" x2="113.85" y2="308.46"/>
    <line class="cls-9" x1="639.59" y1="300.29" x2="639.59" y2="308.46"/>
    <line class="cls-9" x1="637.33" y1="308.46" x2="641.85" y2="308.46"/>
    <line class="cls-9" x1="637.33" y1="300.29" x2="641.85" y2="300.29"/>
    <line class="cls-9" x1="648.18" y1="305.26" x2="639.64" y2="305.26"/>
    <rect class="cls-12" x="744.52" y="236.77" width="4.51" height="1.77"/>
    <rect class="cls-12" x="744.52" y="216.15" width="4.51" height="1.77"/>
    <rect class="cls-12" x="744.52" y="195.54" width="4.51" height="1.77"/>
    <rect class="cls-12" x="744.52" y="174.93" width="4.51" height="1.77"/>
    <rect class="cls-12" x="744.52" y="154.31" width="4.51" height="1.77"/>
    <rect class="cls-12" x="744.52" y="133.7" width="4.51" height="1.77"/>
    <rect class="cls-12" x="744.52" y="113.08" width="4.51" height="1.77"/>
    <rect class="cls-12" x="744.52" y="92.47" width="4.51" height="1.77"/>
    <rect class="cls-12" x="744.52" y="71.86" width="4.51" height="1.77"/>
    <rect class="cls-12" x="744.52" y="51.24" width="4.51" height="1.77"/>
    <rect class="cls-12" x="744.52" y="30.63" width="4.51" height="1.77"/>
    <rect class="cls-12" x="6.96" y="195.54" width="4.51" height="1.77"/>
    <rect class="cls-12" x="6.96" y="174.93" width="4.51" height="1.77"/>
    <rect class="cls-12" x="6.96" y="154.31" width="4.51" height="1.77"/>
    <line class="cls-5" x1="290.04" y1="376.26" x2="290.04" y2="381.14"/>
    <line class="cls-5" x1="465.95" y1="376.26" x2="465.95" y2="381.14"/>
    <polyline class="cls-9" points="180.53 297.94 158.85 297.94 158.85 390.07"/>
    <polyline class="cls-9" points="119.05 298.12 141.34 298.12 141.34 307.66"/>
    <line class="cls-8" x1="119.05" y1="395.36" x2="105.9" y2="395.36"/>
    <polyline class="cls-9" points="105.9 395.04 105.9 298.12 119.05 298.12 119.05 395.36"/>
    <line class="cls-9" x1="105.9" y1="395.36" x2="105.9" y2="395.04"/>
    <polyline class="cls-8" points="71.7 298.03 62.39 298.03 62.39 395.36 105.9 395.36"/>
    <line class="cls-9" x1="87.74" y1="298.03" x2="71.7" y2="298.03"/>
    <line class="cls-9" x1="473" y1="298.03" x2="473" y2="360.97"/>
    <line class="cls-9" x1="504.09" y1="298.03" x2="504.09" y2="395.36"/>
    <line class="cls-9" x1="504.09" y1="298.03" x2="494.29" y2="298.03"/>
    <polyline class="cls-9" points="591.33 339.61 591.33 298.03 647.34 298.03"/>
    <rect class="cls-5" x="665.62" y="328.26" width="2.95" height="43.54"/>
    <line class="cls-9" x1="468.16" y1="362.72" x2="463.46" y2="362.72"/>
    <line class="cls-9" x1="463.46" y1="367.53" x2="468.16" y2="367.53"/>
    <rect class="cls-3" x="112.02" y="331.74" width="3.66" height="27.07"/>
    <rect class="cls-3" x="637.76" y="331.74" width="3.66" height="27.07"/>
    <polyline class="cls-9" points="459.88 312.77 452.28 312.77 452.28 323.05 436.16 323.05 436.16 313.41 411.65 313.41 411.65 323.05 396.32 323.05 396.32 313.41 378 313.41"/>
    <line class="cls-9" x1="459.88" y1="360.97" x2="459.88" y2="298.03"/>
    <line class="cls-9" x1="294.54" y1="360.97" x2="294.54" y2="298.03"/>
    <line class="cls-9" x1="277.82" y1="298.03" x2="294.54" y2="298.03"/>
    <line class="cls-9" x1="473" y1="360.97" x2="468.16" y2="360.97"/>
    <polyline class="cls-10" points="18.32 11.47 8.18 11.47 8.18 253.13 18.16 253.13"/>
    <line class="cls-5" x1="11.47" y1="12.58" x2="11.41" y2="251.97"/>
    <line class="cls-3" x1="685.96" y1="306.74" x2="685.96" y2="388.05"/>
    <line class="cls-9" x1="119.05" y1="350.19" x2="142.08" y2="350.19"/>
    <line class="cls-9" x1="628.25" y1="390.66" x2="635.03" y2="390.66"/>
    <line class="cls-9" x1="540.53" y1="390.66" x2="606.86" y2="390.66"/>
    <line class="cls-9" x1="504.09" y1="390.66" x2="518.89" y2="390.66"/>
    <line class="cls-9" x1="540.53" y1="390.66" x2="540.53" y2="395.36"/>
    <line class="cls-9" x1="518.89" y1="390.66" x2="518.89" y2="395.36"/>
    <line class="cls-9" x1="606.86" y1="390.66" x2="606.86" y2="395.36"/>
    <line class="cls-9" x1="628.25" y1="390.66" x2="628.25" y2="395.36"/>
    <rect class="cls-9" x="398.77" y="383.03" width="4.9" height="5.29"/>
    <rect class="cls-9" x="389.55" y="383.03" width="23.65" height="5.29"/>
    <rect class="cls-9" x="441.2" y="383.03" width="4.9" height="5.29"/>
    <rect class="cls-9" x="431.98" y="383.03" width="23.65" height="5.29"/>
    <line class="cls-9" x1="455.63" y1="360.97" x2="455.63" y2="390.66"/>
    <line class="cls-9" x1="423.91" y1="313.41" x2="423.91" y2="360.97"/>
    <rect class="cls-5" x="390.23" y="323.05" width="27.51" height="26.4"/>
    <rect class="cls-5" x="430.15" y="323.05" width="27.51" height="26.4"/>
    <line class="cls-5" x1="455.63" y1="395.36" x2="378" y2="395.36"/>
    <line class="cls-8" x1="518.89" y1="395.36" x2="455.63" y2="395.36"/>
    <line class="cls-5" x1="540.53" y1="395.36" x2="518.89" y2="395.36"/>
    <line class="cls-8" x1="606.86" y1="395.36" x2="540.53" y2="395.36"/>
    <line class="cls-5" x1="628.25" y1="395.36" x2="606.86" y2="395.36"/>
    <line class="cls-8" x1="636.94" y1="395.36" x2="628.25" y2="395.36"/>
    <rect class="cls-9" x="352.32" y="383.03" width="4.9" height="5.29"/>
    <rect class="cls-9" x="342.79" y="383.03" width="23.65" height="5.29"/>
    <rect class="cls-9" x="309.89" y="383.03" width="4.9" height="5.29"/>
    <rect class="cls-9" x="300.36" y="383.03" width="23.65" height="5.29"/>
    <line class="cls-9" x1="174" y1="390.07" x2="195.71" y2="390.07"/>
    <line class="cls-9" x1="135.21" y1="390.07" x2="163.11" y2="390.07"/>
    <line class="cls-9" x1="119.05" y1="390.07" x2="123.7" y2="390.07"/>
    <line class="cls-9" x1="238.72" y1="390.07" x2="251.9" y2="390.07"/>
    <line class="cls-9" x1="206.09" y1="390.07" x2="228.99" y2="390.07"/>
    <line class="cls-9" x1="238.72" y1="390.07" x2="238.72" y2="395.36"/>
    <line class="cls-9" x1="228.99" y1="390.07" x2="228.99" y2="395.36"/>
    <line class="cls-9" x1="135.21" y1="390.07" x2="135.21" y2="395.36"/>
    <line class="cls-9" x1="123.7" y1="390.07" x2="123.7" y2="395.36"/>
    <line class="cls-9" x1="174" y1="390.07" x2="174" y2="395.36"/>
    <line class="cls-9" x1="163.11" y1="390.07" x2="163.11" y2="395.36"/>
    <line class="cls-5" x1="11.41" y1="251.97" x2="18.16" y2="251.97"/>
    <line class="cls-10" x1="11.47" y1="12.58" x2="18.32" y2="12.58"/>
    <line class="cls-9" x1="31.52" y1="17.67" x2="14.93" y2="17.67"/>
    <line class="cls-7" x1="14.93" y1="17.67" x2="14.93" y2="246.77"/>
    <line class="cls-9" x1="14.93" y1="246.77" x2="26.19" y2="246.77"/>
    <line class="cls-9" x1="26.19" y1="246.77" x2="153.93" y2="246.77"/>
    <rect class="cls-6" x="1" y="264.74" width="73.7" height="2.67"/>
    <polyline class="cls-9" points="74.7 266.08 79.77 266.08 79.77 269.8 210.92 269.8 210.92 247.05 191.12 247.05"/>
    <line class="cls-9" x1="153.93" y1="246.77" x2="178.85" y2="246.77"/>
    <rect class="cls-9" x="32.42" y="3.37" width="9.07" height="8.1"/>
    <rect class="cls-9" x="18.32" y="11.47" width="13.2" height="6.2"/>
    <line class="cls-8" x1="18.32" y1="11.47" x2="18.32" y2="1.25"/>
    <line class="cls-9" x1="30.31" y1="11.47" x2="64.26" y2="11.47"/>
    <line class="cls-9" x1="64.26" y1="11.47" x2="64.26" y2="1.25"/>
    <line class="cls-9" x1="272.04" y1="247.05" x2="272.04" y2="269.8"/>
    <line class="cls-9" x1="426.19" y1="266.06" x2="426.19" y2="269.8"/>
    <rect class="cls-9" x="430.13" y="247.05" width="26.45" height="19.01"/>
    <polyline class="cls-9" points="456.58 266.06 459.08 266.06 459.08 267.93 474.33 267.93 474.33 269.8"/>
    <line class="cls-9" x1="320.44" y1="269.8" x2="320.44" y2="247.05"/>
    <line class="cls-9" x1="320.44" y1="268.44" x2="408.09" y2="268.44"/>
    <line class="cls-9" x1="195.71" y1="311" x2="174.73" y2="311"/>
    <line class="cls-9" x1="215.65" y1="311.39" x2="237.57" y2="311.39"/>
    <line class="cls-7" x1="300.36" y1="395.36" x2="378" y2="395.36"/>
    <line class="cls-8" x1="238.72" y1="395.36" x2="300.36" y2="395.36"/>
    <line class="cls-7" x1="228.99" y1="395.36" x2="238.72" y2="395.36"/>
    <line class="cls-8" x1="174" y1="395.36" x2="228.99" y2="395.36"/>
    <line class="cls-7" x1="163.11" y1="395.36" x2="174" y2="395.36"/>
    <line class="cls-8" x1="135.21" y1="395.36" x2="163.11" y2="395.36"/>
    <line class="cls-7" x1="123.7" y1="395.36" x2="135.21" y2="395.36"/>
    <line class="cls-8" x1="119.05" y1="395.36" x2="123.7" y2="395.36"/>
    <rect class="cls-5" x="85.52" y="328.26" width="2.95" height="43.54"/>
    <line class="cls-9" x1="70.03" y1="388.05" x2="105.9" y2="388.05"/>
    <line class="cls-9" x1="70.03" y1="306.74" x2="70.03" y2="388.05"/>
    <line class="cls-9" x1="87.74" y1="306.74" x2="70.03" y2="306.74"/>
    <line class="cls-9" x1="87.74" y1="298.03" x2="87.74" y2="306.74"/>
    <rect class="cls-9" x="602.06" y="246.77" width="17.11" height="25.74"/>
    <rect class="cls-9" x="564.11" y="1.25" width="69.27" height="10.22"/>
    <line class="cls-9" x1="737.48" y1="253.13" x2="737.48" y2="246.77"/>
    <line class="cls-6" x1="737.48" y1="264.74" x2="737.48" y2="253.13"/>
    <line class="cls-9" x1="721.73" y1="246.77" x2="721.73" y2="264.74"/>
    <line class="cls-9" x1="691.73" y1="11.47" x2="691.73" y2="1.25"/>
    <line class="cls-9" x1="725.68" y1="11.47" x2="691.73" y2="11.47"/>
    <line class="cls-8" x1="737.67" y1="11.47" x2="737.67" y2="1.25"/>
    <line class="cls-9" x1="724.47" y1="11.47" x2="737.67" y2="11.47"/>
    <polyline class="cls-9" points="737.67 11.47 737.67 17.67 724.47 17.67 724.47 11.47"/>
    <rect class="cls-9" x="714.5" y="3.37" width="9.07" height="8.1"/>
    <polyline class="cls-6" points="681.29 267.41 681.29 264.74 754.99 264.74"/>
    <polyline class="cls-8" points="754.99 264.74 754.99 267.41 681.29 267.41"/>
    <line class="cls-9" x1="729.8" y1="246.77" x2="602.06" y2="246.77"/>
    <rect class="cls-5" x="298.33" y="323.05" width="27.51" height="26.4"/>
    <line class="cls-5" x1="744.52" y1="12.58" x2="737.67" y2="12.58"/>
    <line class="cls-5" x1="744.58" y1="251.97" x2="737.83" y2="251.97"/>
    <line class="cls-5" x1="744.52" y1="12.58" x2="744.58" y2="251.97"/>
    <polyline class="cls-5" points="737.67 11.47 747.81 11.47 747.81 253.13 737.83 253.13"/>
    <rect class="cls-9" x="122.61" y="1.25" width="69.27" height="10.22"/>
    <line class="cls-9" x1="18.51" y1="253.13" x2="18.51" y2="246.77"/>
    <line class="cls-6" x1="18.51" y1="264.74" x2="18.51" y2="253.13"/>
    <line class="cls-9" x1="34.26" y1="246.77" x2="34.26" y2="264.74"/>
    <line class="cls-9" x1="300.36" y1="360.97" x2="300.36" y2="390.05"/>
    <line class="cls-9" x1="332.08" y1="313.41" x2="332.08" y2="360.97"/>
    <rect class="cls-5" x="338.25" y="323.05" width="27.51" height="26.4"/>
    <line class="cls-9" x1="459.88" y1="298.03" x2="473" y2="298.03"/>
    <line class="cls-9" x1="455.78" y1="390.66" x2="465.95" y2="390.66"/>
    <line class="cls-9" x1="466.14" y1="391.1" x2="466.14" y2="395.36"/>
    <line class="cls-9" x1="289.52" y1="390.07" x2="299.69" y2="390.07"/>
    <line class="cls-9" x1="290.04" y1="390.59" x2="290.04" y2="394.85"/>
  </g>
  <g id="Layer_4" data-name="Layer 4">
    <rect class="cls-3" x="375.51" y="336.58" width="5.38" height="4.81"/>
    <rect class="cls-3" x="375.51" y="364.61" width="5.38" height="4.81"/>
    <line class="cls-9" x1="378.2" y1="316.12" x2="378.2" y2="324.28"/>
    <line class="cls-9" x1="380.46" y1="324.28" x2="375.94" y2="324.28"/>
    <line class="cls-9" x1="380.46" y1="316.12" x2="375.94" y2="316.12"/>
    <line class="cls-1" x1="378.34" y1="350.38" x2="378.34" y2="355.62"/>
    <line class="cls-1" x1="388.86" y1="385.68" x2="382.33" y2="385.68"/>
    <line class="cls-1" x1="461.91" y1="385.68" x2="455.38" y2="385.68"/>
    <line class="cls-1" x1="300.61" y1="385.68" x2="294.08" y2="385.68"/>
    <line class="cls-1" x1="431.98" y1="385.68" x2="413.54" y2="385.68"/>
    <line class="cls-1" x1="342.62" y1="385.68" x2="324.18" y2="385.68"/>
    <line class="cls-1" x1="373.43" y1="385.68" x2="366.89" y2="385.68"/>
    <rect class="cls-3" x="375.51" y="355.62" width="5.38" height="22.79"/>
    <rect class="cls-3" x="375.51" y="327.59" width="5.38" height="22.79"/>
    <line class="cls-5" x1="378.2" y1="378.41" x2="378.2" y2="383.03"/>
    <line class="cls-5" x1="378.2" y1="327.59" x2="378.2" y2="322.28"/>
    <line class="cls-5" x1="378.2" y1="378.41" x2="378.2" y2="383.03"/>
  </g>
  <g id="hatch">
    <path class="cls-4" d="M30.31,11.47c0-.52-.1-1.03-.29-1.52-.21-.52-.52-1-.92-1.4s-.87-.71-1.4-.92c-.48-.19-1-.29-1.52-.29s-1.03.1-1.52.29c-.52.21-1,.52-1.4.92s-.71.87-.92,1.4c-.19.48-.29,1-.29,1.52s.1,1.03.29,1.52c.21.52.52,1,.92,1.4s.87.71,1.4.92c.48.19,1,.29,1.52.29s1.03-.1,1.52-.29c.52-.21,1-.52,1.4-.92s.71-.87.92-1.4c.19-.48.29-1,.29-1.52Z"/>
    <path class="cls-4" d="M206.22,385.27c0,.52-.1,1.03-.29,1.52-.21.52-.52,1-.92,1.4-.4.4-.87.71-1.4.92-.48.19-1,.29-1.52.29s-1.03-.1-1.52-.29c-.52-.21-1-.52-1.4-.92s-.71-.87-.92-1.4c-.19-.48-.29-1-.29-1.52s.1-1.03.29-1.52c.21-.52.52-1,.92-1.4.4-.4.87-.71,1.4-.92.48-.19,1-.29,1.52-.29s1.03.1,1.52.29c.52.21,1,.52,1.4.92.4.4.71.87.92,1.4.19.48.29,1,.29,1.52Z"/>
    <path class="cls-4" d="M294.17,385.27c0,.52-.1,1.03-.29,1.52-.21.52-.52,1-.92,1.4-.4.4-.87.71-1.4.92-.48.19-1,.29-1.52.29s-1.03-.1-1.52-.29c-.52-.21-1-.52-1.4-.92-.4-.4-.71-.87-.92-1.4-.19-.48-.29-1-.29-1.52s.1-1.03.29-1.52c.21-.52.52-1,.92-1.4.4-.4.87-.71,1.4-.92.48-.19,1-.29,1.52-.29s1.03.1,1.52.29c.52.21,1,.52,1.4.92.4.4.71.87.92,1.4.19.48.29,1,.29,1.52Z"/>
    <path class="cls-4" d="M382.12,385.27c0,.52-.1,1.03-.29,1.52-.21.52-.52,1-.92,1.4-.4.4-.87.71-1.4.92-.48.19-1,.29-1.52.29s-1.03-.1-1.52-.29c-.52-.21-1-.52-1.4-.92s-.71-.87-.92-1.4c-.19-.48-.29-1-.29-1.52s.1-1.03.29-1.52c.21-.52.52-1,.92-1.4.4-.4.87-.71,1.4-.92.48-.19,1-.29,1.52-.29s1.03.1,1.52.29c.52.21,1,.52,1.4.92.4.4.71.87.92,1.4.19.48.29,1,.29,1.52Z"/>
    <path class="cls-4" d="M470.07,385.27c0,.52-.1,1.03-.29,1.52-.21.52-.52,1-.92,1.4-.4.4-.87.71-1.4.92-.48.19-1,.29-1.52.29s-1.03-.1-1.52-.29c-.52-.21-1-.52-1.4-.92s-.71-.87-.92-1.4c-.19-.48-.29-1-.29-1.52s.1-1.03.29-1.52c.21-.52.52-1,.92-1.4.4-.4.87-.71,1.4-.92.48-.19,1-.29,1.52-.29s1.03.1,1.52.29c.52.21,1,.52,1.4.92.4.4.71.87.92,1.4.19.48.29,1,.29,1.52Z"/>
    <path class="cls-4" d="M558.02,385.27c0,.52-.1,1.03-.29,1.52-.21.52-.52,1-.92,1.4-.4.4-.87.71-1.4.92-.48.19-1,.29-1.52.29s-1.03-.1-1.52-.29c-.52-.21-1-.52-1.4-.92s-.71-.87-.92-1.4c-.19-.48-.29-1-.29-1.52s.1-1.03.29-1.52c.21-.52.52-1,.92-1.4.4-.4.87-.71,1.4-.92.48-.19,1-.29,1.52-.29s1.03.1,1.52.29c.52.21,1,.52,1.4.92.4.4.71.87.92,1.4.19.48.29,1,.29,1.52Z"/>
    <path class="cls-4" d="M645.97,385.27c0,.52-.1,1.03-.29,1.52-.21.52-.52,1-.92,1.4-.4.4-.87.71-1.4.92-.48.19-1,.29-1.52.29s-1.03-.1-1.52-.29c-.52-.21-1-.52-1.4-.92-.4-.4-.71-.87-.92-1.4-.19-.48-.29-1-.29-1.52s.1-1.03.29-1.52c.21-.52.52-1,.92-1.4.4-.4.87-.71,1.4-.92.48-.19,1-.29,1.52-.29s1.03.1,1.52.29c.52.21,1,.52,1.4.92.4.4.71.87.92,1.4.19.48.29,1,.29,1.52Z"/>
    <path class="cls-4" d="M733.92,251.97c0,.52-.1,1.03-.29,1.52-.21.52-.52,1-.92,1.4-.4.4-.87.71-1.4.92-.48.19-1,.29-1.52.29s-1.03-.1-1.52-.29c-.52-.21-1-.52-1.4-.92-.4-.4-.71-.87-.92-1.4-.19-.48-.29-1-.29-1.52s.1-1.03.29-1.52c.21-.52.52-1,.92-1.4s.87-.71,1.4-.92c.48-.19,1-.29,1.52-.29s1.03.1,1.52.29c.52.21,1,.52,1.4.92.4.4.71.87.92,1.4.19.48.29,1,.29,1.52Z"/>
    <path class="cls-4" d="M645.97,251.97c0,.52-.1,1.03-.29,1.52-.21.52-.52,1-.92,1.4s-.87.71-1.4.92c-.48.19-1,.29-1.52.29s-1.03-.1-1.52-.29c-.52-.21-1-.52-1.4-.92-.4-.4-.71-.87-.92-1.4-.19-.48-.29-1-.29-1.52s.1-1.03.29-1.52c.21-.52.52-1,.92-1.4.4-.4.87-.71,1.4-.92.48-.19,1-.29,1.52-.29s1.03.1,1.52.29c.52.21,1,.52,1.4.92.4.4.71.87.92,1.4.19.48.29,1,.29,1.52Z"/>
    <path class="cls-4" d="M558.02,251.97c0,.52-.1,1.03-.29,1.52-.21.52-.52,1-.92,1.4s-.87.71-1.4.92c-.48.19-1,.29-1.52.29s-1.03-.1-1.52-.29c-.52-.21-1-.52-1.4-.92s-.71-.87-.92-1.4c-.19-.48-.29-1-.29-1.52s.1-1.03.29-1.52c.21-.52.52-1,.92-1.4s.87-.71,1.4-.92c.48-.19,1-.29,1.52-.29s1.03.1,1.52.29c.52.21,1,.52,1.4.92s.71.87.92,1.4c.19.48.29,1,.29,1.52Z"/>
    <path class="cls-4" d="M118.26,385.27c0,.52-.1,1.03-.29,1.52-.21.52-.52,1-.92,1.4-.4.4-.87.71-1.4.92-.48.19-1,.29-1.52.29s-1.03-.1-1.52-.29c-.52-.21-1-.52-1.4-.92s-.71-.87-.92-1.4c-.19-.48-.29-1-.29-1.52s.1-1.03.29-1.52c.21-.52.52-1,.92-1.4.4-.4.87-.71,1.4-.92.48-.19,1-.29,1.52-.29s1.03.1,1.52.29c.52.21,1,.52,1.4.92.4.4.71.87.92,1.4.19.48.29,1,.29,1.52Z"/>
    <path class="cls-4" d="M470.07,251.97c0,.52-.1,1.03-.29,1.52-.21.52-.52,1-.92,1.4s-.87.71-1.4.92c-.48.19-1,.29-1.52.29s-1.03-.1-1.52-.29c-.52-.21-1-.52-1.4-.92s-.71-.87-.92-1.4c-.19-.48-.29-1-.29-1.52s.1-1.03.29-1.52c.21-.52.52-1,.92-1.4s.87-.71,1.4-.92c.48-.19,1-.29,1.52-.29s1.03.1,1.52.29c.52.21,1,.52,1.4.92s.71.87.92,1.4c.19.48.29,1,.29,1.52Z"/>
    <path class="cls-4" d="M382.12,251.97c0,.52-.1,1.03-.29,1.52-.21.52-.52,1-.92,1.4-.4.4-.87.71-1.4.92-.48.19-1,.29-1.52.29s-1.03-.1-1.52-.29c-.52-.21-1-.52-1.4-.92s-.71-.87-.92-1.4c-.19-.48-.29-1-.29-1.52s.1-1.03.29-1.52c.21-.52.52-1,.92-1.4s.87-.71,1.4-.92c.48-.19,1-.29,1.52-.29s1.03.1,1.52.29c.52.21,1,.52,1.4.92s.71.87.92,1.4c.19.48.29,1,.29,1.52Z"/>
    <path class="cls-4" d="M294.17,251.97c0,.52-.1,1.03-.29,1.52-.21.52-.52,1-.92,1.4-.4.4-.87.71-1.4.92-.48.19-1,.29-1.52.29s-1.03-.1-1.52-.29c-.52-.21-1-.52-1.4-.92-.4-.4-.71-.87-.92-1.4-.19-.48-.29-1-.29-1.52s.1-1.03.29-1.52c.21-.52.52-1,.92-1.4.4-.4.87-.71,1.4-.92.48-.19,1-.29,1.52-.29s1.03.1,1.52.29c.52.21,1,.52,1.4.92.4.4.71.87.92,1.4.19.48.29,1,.29,1.52Z"/>
    <path class="cls-4" d="M206.22,251.97c0,.52-.1,1.03-.29,1.52-.21.52-.52,1-.92,1.4s-.87.71-1.4.92c-.48.19-1,.29-1.52.29s-1.03-.1-1.52-.29c-.52-.21-1-.52-1.4-.92s-.71-.87-.92-1.4c-.19-.48-.29-1-.29-1.52s.1-1.03.29-1.52c.21-.52.52-1,.92-1.4.4-.4.87-.71,1.4-.92.48-.19,1-.29,1.52-.29s1.03.1,1.52.29c.52.21,1,.52,1.4.92s.71.87.92,1.4c.19.48.29,1,.29,1.52Z"/>
    <path class="cls-4" d="M118.26,251.97c0,.52-.1,1.03-.29,1.52-.21.52-.52,1-.92,1.4s-.87.71-1.4.92c-.48.19-1,.29-1.52.29s-1.03-.1-1.52-.29c-.52-.21-1-.52-1.4-.92s-.71-.87-.92-1.4c-.19-.48-.29-1-.29-1.52s.1-1.03.29-1.52c.21-.52.52-1,.92-1.4s.87-.71,1.4-.92c.48-.19,1-.29,1.52-.29s1.03.1,1.52.29c.52.21,1,.52,1.4.92s.71.87.92,1.4c.19.48.29,1,.29,1.52Z"/>
    <path class="cls-4" d="M30.31,251.97c0,.52-.1,1.03-.29,1.52-.21.52-.52,1-.92,1.4s-.87.71-1.4.92c-.48.19-1,.29-1.52.29s-1.03-.1-1.52-.29c-.52-.21-1-.52-1.4-.92s-.71-.87-.92-1.4c-.19-.48-.29-1-.29-1.52s.1-1.03.29-1.52c.21-.52.52-1,.92-1.4s.87-.71,1.4-.92c.48-.19,1-.29,1.52-.29s1.03.1,1.52.29c.52.21,1,.52,1.4.92s.71.87.92,1.4c.19.48.29,1,.29,1.52Z"/>
    <path class="cls-4" d="M733.92,11.47c0,.52-.1,1.03-.29,1.52-.21.52-.52,1-.92,1.4-.4.4-.87.71-1.4.92-.48.19-1,.29-1.52.29s-1.03-.1-1.52-.29c-.52-.21-1-.52-1.4-.92-.4-.4-.71-.87-.92-1.4-.19-.48-.29-1-.29-1.52s.1-1.03.29-1.52c.21-.52.52-1,.92-1.4s.87-.71,1.4-.92c.48-.19,1-.29,1.52-.29s1.03.1,1.52.29c.52.21,1,.52,1.4.92.4.4.71.87.92,1.4.19.48.29,1,.29,1.52Z"/>
    <path class="cls-4" d="M645.97,11.47c0,.52-.1,1.03-.29,1.52-.21.52-.52,1-.92,1.4s-.87.71-1.4.92c-.48.19-1,.29-1.52.29s-1.03-.1-1.52-.29c-.52-.21-1-.52-1.4-.92-.4-.4-.71-.87-.92-1.4-.19-.48-.29-1-.29-1.52s.1-1.03.29-1.52c.21-.52.52-1,.92-1.4.4-.4.87-.71,1.4-.92.48-.19,1-.29,1.52-.29s1.03.1,1.52.29c.52.21,1,.52,1.4.92.4.4.71.87.92,1.4.19.48.29,1,.29,1.52Z"/>
    <path class="cls-4" d="M558.02,11.47c0,.52-.1,1.03-.29,1.52-.21.52-.52,1-.92,1.4s-.87.71-1.4.92c-.48.19-1,.29-1.52.29s-1.03-.1-1.52-.29c-.52-.21-1-.52-1.4-.92s-.71-.87-.92-1.4c-.19-.48-.29-1-.29-1.52s.1-1.03.29-1.52c.21-.52.52-1,.92-1.4s.87-.71,1.4-.92c.48-.19,1-.29,1.52-.29s1.03.1,1.52.29c.52.21,1,.52,1.4.92s.71.87.92,1.4c.19.48.29,1,.29,1.52Z"/>
    <path class="cls-4" d="M470.07,11.47c0,.52-.1,1.03-.29,1.52-.21.52-.52,1-.92,1.4s-.87.71-1.4.92c-.48.19-1,.29-1.52.29s-1.03-.1-1.52-.29c-.52-.21-1-.52-1.4-.92s-.71-.87-.92-1.4c-.19-.48-.29-1-.29-1.52s.1-1.03.29-1.52c.21-.52.52-1,.92-1.4s.87-.71,1.4-.92c.48-.19,1-.29,1.52-.29s1.03.1,1.52.29c.52.21,1,.52,1.4.92s.71.87.92,1.4c.19.48.29,1,.29,1.52Z"/>
    <path class="cls-4" d="M382.12,11.47c0,.52-.1,1.03-.29,1.52-.21.52-.52,1-.92,1.4-.4.4-.87.71-1.4.92-.48.19-1,.29-1.52.29s-1.03-.1-1.52-.29c-.52-.21-1-.52-1.4-.92s-.71-.87-.92-1.4c-.19-.48-.29-1-.29-1.52s.1-1.03.29-1.52c.21-.52.52-1,.92-1.4s.87-.71,1.4-.92c.48-.19,1-.29,1.52-.29s1.03.1,1.52.29c.52.21,1,.52,1.4.92s.71.87.92,1.4c.19.48.29,1,.29,1.52Z"/>
    <path class="cls-4" d="M294.17,11.47c0,.52-.1,1.03-.29,1.52-.21.52-.52,1-.92,1.4-.4.4-.87.71-1.4.92-.48.19-1,.29-1.52.29s-1.03-.1-1.52-.29c-.52-.21-1-.52-1.4-.92-.4-.4-.71-.87-.92-1.4-.19-.48-.29-1-.29-1.52s.1-1.03.29-1.52c.21-.52.52-1,.92-1.4.4-.4.87-.71,1.4-.92.48-.19,1-.29,1.52-.29s1.03.1,1.52.29c.52.21,1,.52,1.4.92.4.4.71.87.92,1.4.19.48.29,1,.29,1.52Z"/>
    <path class="cls-4" d="M206.22,11.47c0,.52-.1,1.03-.29,1.52-.21.52-.52,1-.92,1.4s-.87.71-1.4.92c-.48.19-1,.29-1.52.29s-1.03-.1-1.52-.29c-.52-.21-1-.52-1.4-.92s-.71-.87-.92-1.4c-.19-.48-.29-1-.29-1.52s.1-1.03.29-1.52c.21-.52.52-1,.92-1.4.4-.4.87-.71,1.4-.92.48-.19,1-.29,1.52-.29s1.03.1,1.52.29c.52.21,1,.52,1.4.92s.71.87.92,1.4c.19.48.29,1,.29,1.52Z"/>
    <path class="cls-4" d="M118.26,11.47c0,.52-.1,1.03-.29,1.52-.21.52-.52,1-.92,1.4s-.87.71-1.4.92c-.48.19-1,.29-1.52.29s-1.03-.1-1.52-.29c-.52-.21-1-.52-1.4-.92s-.71-.87-.92-1.4c-.19-.48-.29-1-.29-1.52s.1-1.03.29-1.52c.21-.52.52-1,.92-1.4s.87-.71,1.4-.92c.48-.19,1-.29,1.52-.29s1.03.1,1.52.29c.52.21,1,.52,1.4.92s.71.87.92,1.4c.19.48.29,1,.29,1.52Z"/>
    <path class="cls-4" d="M30.31,11.47c0,.52-.1,1.03-.29,1.52-.21.52-.52,1-.92,1.4s-.87.71-1.4.92c-.48.19-1,.29-1.52.29s-1.03-.1-1.52-.29c-.52-.21-1-.52-1.4-.92s-.71-.87-.92-1.4c-.19-.48-.29-1-.29-1.52s.1-1.03.29-1.52c.21-.52.52-1,.92-1.4s.87-.71,1.4-.92c.48-.19,1-.29,1.52-.29s1.03.1,1.52.29c.52.21,1,.52,1.4.92s.71.87.92,1.4c.19.48.29,1,.29,1.52Z"/>
    <path class="cls-4" d="M118.26,385.27c0-.52-.1-1.03-.29-1.52-.21-.52-.52-1-.92-1.4-.4-.4-.87-.71-1.4-.92-.48-.19-1-.29-1.52-.29s-1.03.1-1.52.29c-.52.21-1,.52-1.4.92-.4.4-.71.87-.92,1.4-.19.48-.29,1-.29,1.52s.1,1.03.29,1.52c.21.52.52,1,.92,1.4.4.4.87.71,1.4.92.48.19,1,.29,1.52.29s1.03-.1,1.52-.29c.52-.21,1-.52,1.4-.92s.71-.87.92-1.4c.19-.48.29-1,.29-1.52Z"/>
    <path class="cls-4" d="M206.22,385.27c0-.52-.1-1.03-.29-1.52-.21-.52-.52-1-.92-1.4-.4-.4-.87-.71-1.4-.92-.48-.19-1-.29-1.52-.29s-1.03.1-1.52.29c-.52.21-1,.52-1.4.92-.4.4-.71.87-.92,1.4-.19.48-.29,1-.29,1.52s.1,1.03.29,1.52c.21.52.52,1,.92,1.4.4.4.87.71,1.4.92.48.19,1,.29,1.52.29s1.03-.1,1.52-.29c.52-.21,1-.52,1.4-.92s.71-.87.92-1.4c.19-.48.29-1,.29-1.52Z"/>
    <path class="cls-4" d="M294.17,385.27c0-.52-.1-1.03-.29-1.52-.21-.52-.52-1-.92-1.4-.4-.4-.87-.71-1.4-.92-.48-.19-1-.29-1.52-.29s-1.03.1-1.52.29c-.52.21-1,.52-1.4.92-.4.4-.71.87-.92,1.4-.19.48-.29,1-.29,1.52s.1,1.03.29,1.52c.21.52.52,1,.92,1.4.4.4.87.71,1.4.92.48.19,1,.29,1.52.29s1.03-.1,1.52-.29c.52-.21,1-.52,1.4-.92.4-.4.71-.87.92-1.4.19-.48.29-1,.29-1.52Z"/>
    <path class="cls-4" d="M382.12,385.27c0-.52-.1-1.03-.29-1.52-.21-.52-.52-1-.92-1.4-.4-.4-.87-.71-1.4-.92-.48-.19-1-.29-1.52-.29s-1.03.1-1.52.29c-.52.21-1,.52-1.4.92-.4.4-.71.87-.92,1.4-.19.48-.29,1-.29,1.52s.1,1.03.29,1.52c.21.52.52,1,.92,1.4.4.4.87.71,1.4.92.48.19,1,.29,1.52.29s1.03-.1,1.52-.29c.52-.21,1-.52,1.4-.92s.71-.87.92-1.4c.19-.48.29-1,.29-1.52Z"/>
    <path class="cls-4" d="M470.07,385.27c0-.52-.1-1.03-.29-1.52-.21-.52-.52-1-.92-1.4-.4-.4-.87-.71-1.4-.92-.48-.19-1-.29-1.52-.29s-1.03.1-1.52.29c-.52.21-1,.52-1.4.92-.4.4-.71.87-.92,1.4-.19.48-.29,1-.29,1.52s.1,1.03.29,1.52c.21.52.52,1,.92,1.4.4.4.87.71,1.4.92.48.19,1,.29,1.52.29s1.03-.1,1.52-.29c.52-.21,1-.52,1.4-.92s.71-.87.92-1.4c.19-.48.29-1,.29-1.52Z"/>
    <path class="cls-4" d="M558.02,385.27c0-.52-.1-1.03-.29-1.52-.21-.52-.52-1-.92-1.4-.4-.4-.87-.71-1.4-.92-.48-.19-1-.29-1.52-.29s-1.03.1-1.52.29c-.52.21-1,.52-1.4.92-.4.4-.71.87-.92,1.4-.19.48-.29,1-.29,1.52s.1,1.03.29,1.52c.21.52.52,1,.92,1.4.4.4.87.71,1.4.92.48.19,1,.29,1.52.29s1.03-.1,1.52-.29c.52-.21,1-.52,1.4-.92s.71-.87.92-1.4c.19-.48.29-1,.29-1.52Z"/>
    <path class="cls-4" d="M645.97,385.27c0-.52-.1-1.03-.29-1.52-.21-.52-.52-1-.92-1.4-.4-.4-.87-.71-1.4-.92-.48-.19-1-.29-1.52-.29s-1.03.1-1.52.29c-.52.21-1,.52-1.4.92-.4.4-.71.87-.92,1.4-.19.48-.29,1-.29,1.52s.1,1.03.29,1.52c.21.52.52,1,.92,1.4.4.4.87.71,1.4.92.48.19,1,.29,1.52.29s1.03-.1,1.52-.29c.52-.21,1-.52,1.4-.92.4-.4.71-.87.92-1.4.19-.48.29-1,.29-1.52Z"/>
    <path class="cls-4" d="M733.92,251.97c0-.52-.1-1.03-.29-1.52-.21-.52-.52-1-.92-1.4-.4-.4-.87-.71-1.4-.92-.48-.19-1-.29-1.52-.29s-1.03.1-1.52.29c-.52.21-1,.52-1.4.92-.4.4-.71.87-.92,1.4-.19.48-.29,1-.29,1.52s.1,1.03.29,1.52c.21.52.52,1,.92,1.4s.87.71,1.4.92c.48.19,1,.29,1.52.29s1.03-.1,1.52-.29c.52-.21,1-.52,1.4-.92.4-.4.71-.87.92-1.4.19-.48.29-1,.29-1.52Z"/>
    <path class="cls-4" d="M118.26,11.47c0-.52-.1-1.03-.29-1.52-.21-.52-.52-1-.92-1.4s-.87-.71-1.4-.92c-.48-.19-1-.29-1.52-.29s-1.03.1-1.52.29c-.52.21-1,.52-1.4.92s-.71.87-.92,1.4c-.19.48-.29,1-.29,1.52s.1,1.03.29,1.52c.21.52.52,1,.92,1.4s.87.71,1.4.92c.48.19,1,.29,1.52.29s1.03-.1,1.52-.29c.52-.21,1-.52,1.4-.92s.71-.87.92-1.4c.19-.48.29-1,.29-1.52Z"/>
    <path class="cls-4" d="M206.22,11.47c0-.52-.1-1.03-.29-1.52-.21-.52-.52-1-.92-1.4s-.87-.71-1.4-.92c-.48-.19-1-.29-1.52-.29s-1.03.1-1.52.29c-.52.21-1,.52-1.4.92s-.71.87-.92,1.4c-.19.48-.29,1-.29,1.52s.1,1.03.29,1.52c.21.52.52,1,.92,1.4.4.4.87.71,1.4.92.48.19,1,.29,1.52.29s1.03-.1,1.52-.29c.52-.21,1-.52,1.4-.92s.71-.87.92-1.4c.19-.48.29-1,.29-1.52Z"/>
    <path class="cls-4" d="M294.17,11.47c0-.52-.1-1.03-.29-1.52-.21-.52-.52-1-.92-1.4-.4-.4-.87-.71-1.4-.92-.48-.19-1-.29-1.52-.29s-1.03.1-1.52.29c-.52.21-1,.52-1.4.92-.4.4-.71.87-.92,1.4-.19.48-.29,1-.29,1.52s.1,1.03.29,1.52c.21.52.52,1,.92,1.4.4.4.87.71,1.4.92.48.19,1,.29,1.52.29s1.03-.1,1.52-.29c.52-.21,1-.52,1.4-.92.4-.4.71-.87.92-1.4.19-.48.29-1,.29-1.52Z"/>
    <path class="cls-4" d="M382.12,11.47c0-.52-.1-1.03-.29-1.52-.21-.52-.52-1-.92-1.4-.4-.4-.87-.71-1.4-.92-.48-.19-1-.29-1.52-.29s-1.03.1-1.52.29c-.52.21-1,.52-1.4.92s-.71.87-.92,1.4c-.19.48-.29,1-.29,1.52s.1,1.03.29,1.52c.21.52.52,1,.92,1.4s.87.71,1.4.92c.48.19,1,.29,1.52.29s1.03-.1,1.52-.29c.52-.21,1-.52,1.4-.92s.71-.87.92-1.4c.19-.48.29-1,.29-1.52Z"/>
    <path class="cls-4" d="M470.07,11.47c0-.52-.1-1.03-.29-1.52-.21-.52-.52-1-.92-1.4s-.87-.71-1.4-.92c-.48-.19-1-.29-1.52-.29s-1.03.1-1.52.29c-.52.21-1,.52-1.4.92s-.71.87-.92,1.4c-.19.48-.29,1-.29,1.52s.1,1.03.29,1.52c.21.52.52,1,.92,1.4s.87.71,1.4.92c.48.19,1,.29,1.52.29s1.03-.1,1.52-.29c.52-.21,1-.52,1.4-.92s.71-.87.92-1.4c.19-.48.29-1,.29-1.52Z"/>
    <path class="cls-4" d="M558.02,11.47c0-.52-.1-1.03-.29-1.52-.21-.52-.52-1-.92-1.4s-.87-.71-1.4-.92c-.48-.19-1-.29-1.52-.29s-1.03.1-1.52.29c-.52.21-1,.52-1.4.92s-.71.87-.92,1.4c-.19.48-.29,1-.29,1.52s.1,1.03.29,1.52c.21.52.52,1,.92,1.4s.87.71,1.4.92c.48.19,1,.29,1.52.29s1.03-.1,1.52-.29c.52-.21,1-.52,1.4-.92s.71-.87.92-1.4c.19-.48.29-1,.29-1.52Z"/>
    <path class="cls-4" d="M645.97,11.47c0-.52-.1-1.03-.29-1.52-.21-.52-.52-1-.92-1.4s-.87-.71-1.4-.92c-.48-.19-1-.29-1.52-.29s-1.03.1-1.52.29c-.52.21-1,.52-1.4.92-.4.4-.71.87-.92,1.4-.19.48-.29,1-.29,1.52s.1,1.03.29,1.52c.21.52.52,1,.92,1.4.4.4.87.71,1.4.92.48.19,1,.29,1.52.29s1.03-.1,1.52-.29c.52-.21,1-.52,1.4-.92.4-.4.71-.87.92-1.4.19-.48.29-1,.29-1.52Z"/>
    <path class="cls-4" d="M733.92,11.47c0-.52-.1-1.03-.29-1.52-.21-.52-.52-1-.92-1.4-.4-.4-.87-.71-1.4-.92-.48-.19-1-.29-1.52-.29s-1.03.1-1.52.29c-.52.21-1,.52-1.4.92-.4.4-.71.87-.92,1.4-.19.48-.29,1-.29,1.52s.1,1.03.29,1.52c.21.52.52,1,.92,1.4s.87.71,1.4.92c.48.19,1,.29,1.52.29s1.03-.1,1.52-.29c.52-.21,1-.52,1.4-.92.4-.4.71-.87.92-1.4.19-.48.29-1,.29-1.52Z"/>
    <path class="cls-4" d="M30.31,251.97c0-.52-.1-1.03-.29-1.52-.21-.52-.52-1-.92-1.4s-.87-.71-1.4-.92c-.48-.19-1-.29-1.52-.29s-1.03.1-1.52.29c-.52.21-1,.52-1.4.92s-.71.87-.92,1.4c-.19.48-.29,1-.29,1.52s.1,1.03.29,1.52c.21.52.52,1,.92,1.4s.87.71,1.4.92c.48.19,1,.29,1.52.29s1.03-.1,1.52-.29c.52-.21,1-.52,1.4-.92s.71-.87.92-1.4c.19-.48.29-1,.29-1.52Z"/>
    <path class="cls-4" d="M118.26,251.97c0-.52-.1-1.03-.29-1.52-.21-.52-.52-1-.92-1.4s-.87-.71-1.4-.92c-.48-.19-1-.29-1.52-.29s-1.03.1-1.52.29c-.52.21-1,.52-1.4.92s-.71.87-.92,1.4c-.19.48-.29,1-.29,1.52s.1,1.03.29,1.52c.21.52.52,1,.92,1.4s.87.71,1.4.92c.48.19,1,.29,1.52.29s1.03-.1,1.52-.29c.52-.21,1-.52,1.4-.92s.71-.87.92-1.4c.19-.48.29-1,.29-1.52Z"/>
    <path class="cls-4" d="M206.22,251.97c0-.52-.1-1.03-.29-1.52-.21-.52-.52-1-.92-1.4s-.87-.71-1.4-.92c-.48-.19-1-.29-1.52-.29s-1.03.1-1.52.29c-.52.21-1,.52-1.4.92s-.71.87-.92,1.4c-.19.48-.29,1-.29,1.52s.1,1.03.29,1.52c.21.52.52,1,.92,1.4.4.4.87.71,1.4.92.48.19,1,.29,1.52.29s1.03-.1,1.52-.29c.52-.21,1-.52,1.4-.92s.71-.87.92-1.4c.19-.48.29-1,.29-1.52Z"/>
    <path class="cls-4" d="M294.17,251.97c0-.52-.1-1.03-.29-1.52-.21-.52-.52-1-.92-1.4-.4-.4-.87-.71-1.4-.92-.48-.19-1-.29-1.52-.29s-1.03.1-1.52.29c-.52.21-1,.52-1.4.92-.4.4-.71.87-.92,1.4-.19.48-.29,1-.29,1.52s.1,1.03.29,1.52c.21.52.52,1,.92,1.4.4.4.87.71,1.4.92.48.19,1,.29,1.52.29s1.03-.1,1.52-.29c.52-.21,1-.52,1.4-.92.4-.4.71-.87.92-1.4.19-.48.29-1,.29-1.52Z"/>
    <path class="cls-4" d="M382.12,251.97c0-.52-.1-1.03-.29-1.52-.21-.52-.52-1-.92-1.4-.4-.4-.87-.71-1.4-.92-.48-.19-1-.29-1.52-.29s-1.03.1-1.52.29c-.52.21-1,.52-1.4.92s-.71.87-.92,1.4c-.19.48-.29,1-.29,1.52s.1,1.03.29,1.52c.21.52.52,1,.92,1.4s.87.71,1.4.92c.48.19,1,.29,1.52.29s1.03-.1,1.52-.29c.52-.21,1-.52,1.4-.92s.71-.87.92-1.4c.19-.48.29-1,.29-1.52Z"/>
    <path class="cls-4" d="M470.07,251.97c0-.52-.1-1.03-.29-1.52-.21-.52-.52-1-.92-1.4s-.87-.71-1.4-.92c-.48-.19-1-.29-1.52-.29s-1.03.1-1.52.29c-.52.21-1,.52-1.4.92s-.71.87-.92,1.4c-.19.48-.29,1-.29,1.52s.1,1.03.29,1.52c.21.52.52,1,.92,1.4s.87.71,1.4.92c.48.19,1,.29,1.52.29s1.03-.1,1.52-.29c.52-.21,1-.52,1.4-.92s.71-.87.92-1.4c.19-.48.29-1,.29-1.52Z"/>
    <path class="cls-4" d="M558.02,251.97c0-.52-.1-1.03-.29-1.52-.21-.52-.52-1-.92-1.4s-.87-.71-1.4-.92c-.48-.19-1-.29-1.52-.29s-1.03.1-1.52.29c-.52.21-1,.52-1.4.92s-.71.87-.92,1.4c-.19.48-.29,1-.29,1.52s.1,1.03.29,1.52c.21.52.52,1,.92,1.4s.87.71,1.4.92c.48.19,1,.29,1.52.29s1.03-.1,1.52-.29c.52-.21,1-.52,1.4-.92s.71-.87.92-1.4c.19-.48.29-1,.29-1.52Z"/>
    <path class="cls-4" d="M645.97,251.97c0-.52-.1-1.03-.29-1.52-.21-.52-.52-1-.92-1.4s-.87-.71-1.4-.92c-.48-.19-1-.29-1.52-.29s-1.03.1-1.52.29c-.52.21-1,.52-1.4.92-.4.4-.71.87-.92,1.4-.19.48-.29,1-.29,1.52s.1,1.03.29,1.52c.21.52.52,1,.92,1.4.4.4.87.71,1.4.92.48.19,1,.29,1.52.29s1.03-.1,1.52-.29c.52-.21,1-.52,1.4-.92.4-.4.71-.87.92-1.4.19-.48.29-1,.29-1.52Z"/>
  </g>
</svg>