<?xml version="1.0" encoding="UTF-8"?>
<svg id="Layer_2" data-name="Layer 2" xmlns="http://www.w3.org/2000/svg" viewBox="0 0 484.61 222.3">
  <defs>
    <style>
      .cls-1 {
        stroke-width: .25px;
      }

      .cls-1, .cls-2 {
        stroke: #f7f7f7;
      }

      .cls-1, .cls-2, .cls-3 {
        fill: none;
        stroke-linecap: round;
        stroke-linejoin: round;
      }

      .cls-4, .cls-5 {
        fill: #fff;
      }

      .cls-5 {
        opacity: .8;
      }

      .cls-2 {
        stroke-width: .1px;
      }

      .cls-3 {
        stroke: #fff;
        stroke-width: .3px;
      }
    </style>
  </defs>
  <g id="top_layer" data-name="top layer">
    <line class="cls-3" x1="120.2" y1="208.37" x2="188.09" y2="208.37"/>
    <polyline class="cls-3" points="116.48 113.74 116.48 90.04 .15 90.04 .15 207.94 112.44 207.94"/>
    <line class="cls-3" x1="120.2" y1="117.78" x2="183.49" y2="117.78"/>
    <polyline class="cls-3" points="192.82 212.68 192.82 222.15 484.46 222.15 484.46 8.42 474.67 8.42"/>
    <line class="cls-3" x1="192.17" y1=".15" x2="192.17" y2="1.5"/>
    <polyline class="cls-3" points="192.17 .15 183.49 .15 183.49 141.95 403.93 141.95 403.93 10.18"/>
    <polyline class="cls-3" points="192.17 1.5 184.83 1.5 184.83 140.6 402.59 140.6 402.59 10.18"/>
  </g>
  <g id="hatch">
    <circle class="cls-4" cx="193.37" cy="131.85" r="6.71"/>
    <path class="cls-5" d="M392.73,113.18h1.81s.02,0,.02,0v12h0s0,.02,0,.02c-.56-.08-1.1-.08-1.66-.02-.04,0-.07,0-.11.01-.02,0-.04,0-.05,0-.01,0,0-.01,0-.02v-12.01Z"/>
    <polygon class="cls-4" points="467.14 211.7 466.57 211.13 466.57 204.11 467.14 203.54 472.53 203.54 473.1 204.11 473.1 211.13 472.53 211.7 467.14 211.7"/>
    <polygon class="cls-4" points="467.14 135.76 466.57 135.19 466.57 128.16 467.14 127.59 472.53 127.59 473.1 128.16 473.1 135.19 472.53 135.76 467.14 135.76"/>
    <polygon class="cls-4" points="467.02 12.15 466.3 11.57 466.3 4.37 467.02 3.79 473.94 3.79 474.67 4.37 474.67 11.57 473.94 12.15 467.02 12.15"/>
    <polygon class="cls-4" points="343.38 134.5 343.38 129.26 341.97 127.84 336.72 127.84 335.3 129.26 335.3 134.5 336.72 135.92 341.97 135.92 343.38 134.5"/>
    <circle class="cls-4" cx="193.37" cy="8.15" r="6.71"/>
    <circle class="cls-4" cx="293.51" cy="8.15" r="6.71"/>
    <polygon class="cls-4" points="242.51 134.5 242.51 129.26 243.92 127.84 249.17 127.84 250.59 129.26 250.59 134.5 249.17 135.92 243.92 135.92 242.51 134.5"/>
    <path class="cls-4" d="M393.64,14.86c-3.71,0-6.71-3-6.71-6.71s3-6.71,6.71-6.71,6.71,3,6.71,6.71-3,6.71-6.71,6.71Z"/>
    <polygon class="cls-4" points="389.1 211.02 389.1 204.89 390.76 203.23 396.89 203.23 398.55 204.89 398.55 211.02 396.89 212.68 390.76 212.68 389.1 211.02"/>
    <path class="cls-4" d="M393.64,138.57c-3.71,0-6.71-3-6.71-6.71s3-6.71,6.71-6.71,6.71,3,6.71,6.71-3,6.71-6.71,6.71Z"/>
    <rect class="cls-5" x="236.82" y="19.27" width="2.94" height="2.85"/>
    <polygon class="cls-4" points="188.09 211.02 188.09 204.89 189.75 203.23 195.88 203.23 197.54 204.89 197.54 211.02 195.88 212.68 189.75 212.68 188.09 211.02"/>
    <rect class="cls-5" x="237.89" y="9.14" width=".79" height="10.13"/>
    <polygon class="cls-5" points="263.16 129.7 264.01 128.85 293.44 128.85 322.86 128.85 323.71 129.7 323.71 130.27 293.44 130.27 263.16 130.27 263.16 129.7"/>
    <polygon class="cls-4" points="343.38 134.5 341.97 135.92 336.72 135.92 335.3 134.5 335.3 129.26 336.72 127.84 341.97 127.84 343.38 129.26 343.38 134.5"/>
    <rect class="cls-5" x="347.25" y="19.27" width="2.94" height="2.85"/>
    <rect class="cls-5" x="348.33" y="9.14" width=".79" height="10.13"/>
    <path class="cls-5" d="M286.87,9.14h-86.84s-.02,0-.02,0c0-.01,0-.03,0-.04,0-.05.01-.11.02-.16.03-.21.04-.43.04-.65,0-.21,0-.43-.02-.64,0-.11-.02-.22-.03-.33,0-.05-.01-.11-.02-.16,0-.03,0-.05-.01-.08,0-.01,0-.03,0-.04,0,0,0,0,0-.01,0,0,0,0,0,0h86.89s.01,0,0,0c0,0,0,.01,0,.02,0,.05-.02.11-.03.16-.03.22-.05.43-.06.65-.02.43,0,.86.07,1.29Z"/>
    <polygon class="cls-4" points="391.7 26.68 390.44 28.05 390.44 33.11 391.7 34.48 396.4 34.48 397.66 33.11 397.66 28.05 396.4 26.68 391.7 26.68"/>
    <path class="cls-5" d="M192.03,125.28V14.74s.01,0,.02,0c0,0,.02,0,.03,0,.02,0,.03,0,.05.01.03,0,.07.01.1.02.07.01.14.02.21.03.55.08,1.08.09,1.63.03.02,0,.03,0,.05,0,0,0,.02,0,.03,0,0,0,.01,0,.01,0h0v110.35s0,.02,0,.02h-.03s-.03,0-.05,0c-.14-.01-.27-.02-.41-.03-.55-.02-1.09.02-1.64.13Z"/>
    <polygon class="cls-4" points="112.44 210.56 112.44 205.31 113.85 203.9 119.1 203.9 120.52 205.31 120.52 210.56 119.1 211.98 113.85 211.98 112.44 210.56"/>
    <rect class="cls-4" x="93.73" y="185.12" width="5.44" height="5.44"/>
    <rect class="cls-4" x="17.37" y="185.12" width="5.44" height="5.44"/>
    <rect class="cls-4" x="93.73" y="123.07" width="5.44" height="5.44"/>
    <rect class="cls-4" x="17.37" y="123.07" width="5.44" height="5.44"/>
    <polygon class="cls-4" points="112.12 120.4 112.12 115.15 113.53 113.74 118.78 113.74 120.2 115.15 120.2 120.4 118.78 121.82 113.53 121.82 112.12 120.4"/>
    <path class="cls-5" d="M387,9.14h-86.84s-.02,0-.02,0c0-.01,0-.03,0-.04,0-.05.01-.11.02-.16.02-.21.04-.43.04-.65,0-.21,0-.43-.02-.64,0-.11-.02-.22-.03-.33,0-.05-.01-.11-.02-.16,0-.03,0-.05-.01-.08,0-.01,0-.03,0-.04,0,0,0,0,0-.01,0,0,0,0,0,0h86.89s.01,0,0,0c0,0,0,.01,0,.02,0,.05-.02.11-.03.16-.03.22-.05.43-.06.65-.02.43,0,.86.07,1.29Z"/>
    <polygon class="cls-4" points="391.7 26.68 396.4 26.68 397.66 28.05 397.66 33.11 396.4 34.48 391.7 34.48 390.44 33.11 390.44 28.05 391.7 26.68"/>
    <polygon class="cls-4" points="242.51 134.5 242.51 129.26 243.92 127.84 249.17 127.84 250.59 129.26 250.59 134.5 249.17 135.92 243.92 135.92 242.51 134.5"/>
    <rect class="cls-5" x="250.59" y="130.5" width="14.54" height="2.13"/>
    <path class="cls-5" d="M242.51,132.63h-42.46s0,0,0-.02c0,0,0-.01,0-.02,0-.05.01-.11.02-.16.02-.22.03-.43.02-.65,0-.22-.02-.43-.04-.65-.01-.11-.03-.22-.04-.33,0-.06-.02-.11-.03-.17,0-.03-.01-.06-.02-.08,0-.01,0-.03,0-.04,0-.01.01,0,.02,0h42.53s.01,0,.01,0h0v2.13Z"/>
    <polygon class="cls-5" points="293.51 132.63 290.59 132.63 290.59 130.5 293.51 130.5 295.75 130.5 295.75 132.63 293.51 132.63"/>
    <path class="cls-5" d="M424.12,8.15h-23.77s0,0,0,0c0-.06,0-.13,0-.19,0-.27-.03-.53-.07-.79-.01-.07-.02-.13-.03-.2,0-.03-.01-.07-.02-.1,0,0,0,0,0,0h29.4s0-.02,0-.02v-3.01s0-.01,0-.01h-30.89s0,0,0,0c0,0,0,0,0-.01,0,0-.01-.01-.02-.02-.02-.03-.05-.06-.07-.08-.05-.06-.1-.11-.15-.16-.21-.22-.43-.42-.66-.6-.06-.05-.12-.09-.18-.14,0,0,0,0-.01,0,0,0,0,0,0,0h72.84s0,0,0,0h0v1.03s0,.01,0,.01h-35.86s0,.01,0,.02v3.02h0s0,.01-.01.01h-2.46s-.02,0-.02,0v1.28h0s0,.03,0,.03h-1.09s0,.01,0,.02v2h0s0,.01,0,.01h-6.87s-.02,0-.02,0v-2.03Z"/>
    <rect class="cls-4" x="236.82" y="86.27" width="2.94" height="2.85"/>
    <rect class="cls-4" x="347.25" y="86.27" width="2.94" height="2.85"/>
    <polygon class="cls-5" points="323.78 130.5 335.3 130.5 335.3 132.63 321.89 132.63 321.89 130.5 323.78 130.5"/>
    <path class="cls-5" d="M386.98,132.63h-43.59s0,0,0,0v-2.08s0-.04,0-.04h43.67s0,0,0,0c0,0,0,.01,0,.02,0,.03-.01.06-.02.09-.04.23-.07.45-.09.68-.04.45-.03.89.02,1.33Z"/>
    <polygon class="cls-5" points="394.73 44.23 394.73 34.48 392.61 34.48 392.61 45.84 394.73 45.84 394.73 44.23"/>
    <rect class="cls-5" x="95.43" y="176.25" width="1.5" height="8.38"/>
    <polygon class="cls-5" points="395.58 95.47 396.43 94.75 396.43 69.85 396.43 44.95 395.58 44.23 395.02 44.23 395.02 69.85 395.02 95.47 395.58 95.47"/>
    <rect class="cls-5" x="95.43" y="128.51" width="1.5" height="8.38"/>
    <polygon class="cls-4" points="398.42 69.85 398.42 72.32 396.29 72.32 396.29 69.85 396.29 67.95 398.42 67.95 398.42 69.85"/>
    <rect class="cls-5" x="98.51" y="155.1" width="1.49" height="2.95"/>
    <rect class="cls-5" x="96.93" y="135.94" width="1.57" height="41.26"/>
    <rect class="cls-5" x="19.09" y="128.51" width="1.92" height="56.61"/>
    <rect class="cls-5" x="22.8" y="186.67" width="70.92" height="1.92"/>
    <rect class="cls-5" x="22.8" y="125.01" width="70.92" height="1.92"/>
    <rect class="cls-5" x="392.61" y="94.57" width="2.13" height="12.3"/>
    <polygon class="cls-4" points="391.9 113.18 396.09 113.18 397.22 111.98 397.22 107.54 396.09 106.34 391.9 106.34 390.77 107.54 390.77 111.98 391.9 113.18"/>
    <path class="cls-5" d="M392.93,26.68v-11.85s0,0,.01,0c0,0,0,0,.01,0,0,0,.02,0,.03,0,.02,0,.03,0,.05,0,.03,0,.07,0,.1,0,.27.02.54.02.81.01.14,0,.28-.02.41-.03.07,0,.14-.02.21-.03.04,0,.07-.01.11-.02.02,0,.04,0,.05,0,0,0,.02,0,.03,0,0,0,0,0,0,.01h0v11.9s-.02,0-.02,0h-1.81Z"/>
  </g>
  <g id="column">
    <line class="cls-2" x1="393.25" y1="158.46" x2="466.57" y2="158.46"/>
    <rect class="cls-2" x="93.73" y="123.07" width="5.44" height="5.44"/>
    <rect class="cls-2" x="17.37" y="185.12" width="5.44" height="5.44"/>
    <rect class="cls-2" x="93.73" y="185.12" width="5.44" height="5.44"/>
    <line class="cls-1" x1="466.57" y1="204.11" x2="466.57" y2="11.78"/>
    <line class="cls-1" x1="473.1" y1="204.11" x2="473.1" y2="12.15"/>
    <line class="cls-2" x1="183.49" y1="141.95" x2="184.83" y2="140.6"/>
    <line class="cls-2" x1="402.59" y1="140.6" x2="398.08" y2="136.89"/>
    <line class="cls-2" x1="403.93" y1="141.95" x2="402.59" y2="140.6"/>
    <line class="cls-2" x1="184.83" y1="140.6" x2="188.45" y2="136.41"/>
    <rect class="cls-2" x="22.8" y="125.01" width="70.92" height="1.92"/>
    <line class="cls-2" x1="394.76" y1="26.68" x2="394.76" y2="14.77"/>
    <line class="cls-2" x1="392.93" y1="26.68" x2="392.93" y2="14.82"/>
    <rect class="cls-2" x="22.8" y="186.67" width="70.92" height="1.92"/>
    <line class="cls-2" x1="194.16" y1="123.13" x2="392.73" y2="123.13"/>
    <line class="cls-2" x1="394.56" y1="113.18" x2="394.56" y2="125.21"/>
    <line class="cls-2" x1="392.73" y1="113.18" x2="392.73" y2="125.21"/>
    <line class="cls-2" x1="392.61" y1="106.34" x2="392.61" y2="94.57"/>
    <line class="cls-2" x1="394.73" y1="106.34" x2="394.73" y2="94.57"/>
    <rect class="cls-2" x="19.09" y="128.51" width="1.92" height="56.61"/>
    <polygon class="cls-2" points="391.7 26.68 390.44 28.05 390.44 33.11 391.7 34.48 396.4 34.48 397.66 33.11 397.66 28.05 396.4 26.68 391.7 26.68"/>
    <rect class="cls-2" x="96.93" y="135.94" width="1.57" height="41.26"/>
    <polygon class="cls-2" points="391.9 113.18 390.77 111.98 390.77 107.54 391.9 106.34 396.09 106.34 397.22 107.54 397.22 111.98 396.09 113.18 391.9 113.18"/>
    <rect class="cls-2" x="98.51" y="155.1" width="1.49" height="2.95"/>
    <line class="cls-2" x1="96.93" y1="156.57" x2="98.51" y2="156.57"/>
    <line class="cls-2" x1="394.73" y1="94.57" x2="392.61" y2="94.57"/>
    <line class="cls-2" x1="396.29" y1="72.32" x2="398.42" y2="72.32"/>
    <line class="cls-2" x1="396.29" y1="67.95" x2="398.42" y2="67.95"/>
    <rect class="cls-2" x="95.43" y="128.51" width="1.5" height="8.38"/>
    <line class="cls-2" x1="395.02" y1="95.47" x2="395.02" y2="69.85"/>
    <line class="cls-2" x1="396.15" y1="94.75" x2="396.15" y2="69.85"/>
    <line class="cls-2" x1="395.3" y1="95.47" x2="394.73" y2="95.47"/>
    <line class="cls-2" x1="396.15" y1="94.75" x2="395.3" y2="95.47"/>
    <line class="cls-2" x1="394.73" y1="45.84" x2="392.61" y2="45.84"/>
    <line class="cls-2" x1="395.02" y1="44.23" x2="395.02" y2="69.85"/>
    <line class="cls-2" x1="396.15" y1="44.95" x2="396.15" y2="69.85"/>
    <line class="cls-2" x1="395.3" y1="44.23" x2="394.73" y2="44.23"/>
    <line class="cls-2" x1="396.15" y1="44.95" x2="395.3" y2="44.23"/>
    <line class="cls-2" x1="392.61" y1="34.48" x2="392.61" y2="45.84"/>
    <line class="cls-2" x1="394.73" y1="34.48" x2="394.73" y2="45.84"/>
    <rect class="cls-2" x="95.43" y="176.25" width="1.5" height="8.38"/>
    <line class="cls-2" x1="100.39" y1="90.04" x2="100.39" y2="207.94"/>
    <line class="cls-2" x1="95.02" y1="128.51" x2="95.02" y2="185.12"/>
    <line class="cls-2" x1="387.07" y1="130.5" x2="343.38" y2="130.5"/>
    <line class="cls-2" x1="21.01" y1="142.55" x2="95.02" y2="142.55"/>
    <line class="cls-2" x1="21.01" y1="157.06" x2="95.02" y2="157.06"/>
    <line class="cls-2" x1="21.01" y1="171.56" x2="95.02" y2="171.56"/>
    <line class="cls-2" x1=".15" y1="101.33" x2="100.39" y2="101.33"/>
    <line class="cls-2" x1=".15" y1="114.07" x2="100.39" y2="114.07"/>
    <line class="cls-2" x1=".15" y1="125.94" x2="17.37" y2="125.79"/>
    <line class="cls-2" x1="199.95" y1="130.5" x2="242.51" y2="130.5"/>
    <line class="cls-2" x1="8.76" y1="125.87" x2="8.76" y2="187.02"/>
    <line class="cls-2" x1=".15" y1="187.66" x2="17.37" y2="187.66"/>
    <line class="cls-2" x1="17.37" y1="190.56" x2=".15" y2="207.94"/>
    <polygon class="cls-2" points="112.12 120.4 113.53 121.82 118.78 121.82 120.2 120.4 120.2 115.15 118.78 113.74 113.53 113.74 112.12 115.15 112.12 120.4"/>
    <polygon class="cls-2" points="112.44 210.56 113.85 211.98 119.1 211.98 120.52 210.56 120.52 205.31 119.1 203.9 113.85 203.9 112.44 205.31 112.44 210.56"/>
    <line class="cls-1" x1="116.48" y1="203.9" x2="116.48" y2="121.82"/>
    <circle class="cls-2" cx="193.37" cy="8.15" r="6.71"/>
    <circle class="cls-2" cx="293.51" cy="8.15" r="6.71"/>
    <path class="cls-2" d="M393.64,14.86c3.71,0,6.71-3,6.71-6.71s-3-6.71-6.71-6.71-6.71,3-6.71,6.71,3,6.71,6.71,6.71Z"/>
    <circle class="cls-2" cx="193.37" cy="131.85" r="6.71"/>
    <path class="cls-2" d="M393.64,138.57c3.71,0,6.71-3,6.71-6.71s-3-6.71-6.71-6.71-6.71,3-6.71,6.71,3,6.71,6.71,6.71Z"/>
    <polygon class="cls-2" points="188.09 211.02 189.75 212.68 195.88 212.68 197.54 211.02 197.54 204.89 195.88 203.23 189.75 203.23 188.09 204.89 188.09 211.02"/>
    <polygon class="cls-2" points="389.1 211.02 390.76 212.68 396.89 212.68 398.55 211.02 398.55 204.89 396.89 203.23 390.76 203.23 389.1 204.89 389.1 211.02"/>
    <polygon class="cls-2" points="242.51 134.5 243.92 135.92 249.17 135.92 250.59 134.5 250.59 129.26 249.17 127.84 243.92 127.84 242.51 129.26 242.51 134.5"/>
    <line class="cls-2" x1="199.99" y1="7.01" x2="286.89" y2="7.01"/>
    <line class="cls-2" x1="300.12" y1="7.01" x2="387.03" y2="7.01"/>
    <line class="cls-2" x1="295.75" y1="130.5" x2="295.75" y2="132.63"/>
    <line class="cls-2" x1="335.3" y1="130.5" x2="321.89" y2="130.5"/>
    <line class="cls-2" x1="335.23" y1="132.4" x2="321.82" y2="132.4"/>
    <line class="cls-2" x1="386.98" y1="132.63" x2="343.38" y2="132.63"/>
    <line class="cls-2" x1="250.59" y1="130.5" x2="265.13" y2="130.5"/>
    <line class="cls-2" x1="250.59" y1="132.63" x2="265.13" y2="132.63"/>
    <line class="cls-2" x1="200.04" y1="132.63" x2="242.51" y2="132.63"/>
    <line class="cls-1" x1="236.06" y1="9.14" x2="236.06" y2="90.09"/>
    <line class="cls-1" x1="351.17" y1="90.09" x2="351.17" y2="9.14"/>
    <line class="cls-1" x1="236.06" y1="90.09" x2="351.17" y2="90.09"/>
    <rect class="cls-2" x="236.82" y="86.27" width="2.94" height="2.85"/>
    <rect class="cls-2" x="347.25" y="86.27" width="2.94" height="2.85"/>
    <rect class="cls-2" x="348.33" y="9.14" width=".79" height="10.13"/>
    <rect class="cls-2" x="347.25" y="19.27" width="2.94" height="2.85"/>
    <rect class="cls-2" x="237.89" y="9.14" width=".79" height="10.13"/>
    <rect class="cls-2" x="236.82" y="19.27" width="2.94" height="2.85"/>
    <line class="cls-2" x1="243.49" y1="90.09" x2="243.49" y2="123.13"/>
    <line class="cls-2" x1="260.09" y1="90.09" x2="260.09" y2="123.13"/>
    <line class="cls-2" x1="276.33" y1="90.09" x2="276.33" y2="123.13"/>
    <line class="cls-2" x1="293.23" y1="90.09" x2="293.23" y2="123.13"/>
    <line class="cls-2" x1="308.35" y1="90.09" x2="308.35" y2="123.13"/>
    <line class="cls-2" x1="323.24" y1="90.09" x2="323.24" y2="123.13"/>
    <line class="cls-2" x1="339.36" y1="90.09" x2="339.36" y2="123.13"/>
    <line class="cls-2" x1="238.78" y1="22.12" x2="238.78" y2="84.6"/>
    <line class="cls-2" x1="348.07" y1="84.6" x2="348.07" y2="22.12"/>
    <line class="cls-2" x1="238.78" y1="84.6" x2="348.07" y2="84.6"/>
    <line class="cls-2" x1="332.8" y1="84.6" x2="332.8" y2="9.14"/>
    <line class="cls-2" x1="317.1" y1="84.6" x2="317.1" y2="9.14"/>
    <line class="cls-2" x1="301.4" y1="84.6" x2="301.4" y2="9.14"/>
    <line class="cls-2" x1="285.7" y1="84.6" x2="285.7" y2="9.14"/>
    <line class="cls-2" x1="270" y1="84.6" x2="270" y2="9.14"/>
    <line class="cls-2" x1="254.3" y1="84.6" x2="254.3" y2="9.14"/>
    <line class="cls-2" x1="355.4" y1="9.14" x2="355.4" y2="123.13"/>
    <line class="cls-2" x1="370.57" y1="9.14" x2="370.57" y2="123.13"/>
    <line class="cls-2" x1="385.18" y1="9.14" x2="385.18" y2="123.13"/>
    <line class="cls-2" x1="226.11" y1="9.14" x2="226.11" y2="123.13"/>
    <line class="cls-2" x1="210.21" y1="9.14" x2="210.21" y2="123.13"/>
    <rect class="cls-2" x="424.12" y="8.15" width="6.89" height="2.03"/>
    <polyline class="cls-2" points="400.35 8.15 432.12 8.15 432.12 6.84 400.22 6.84"/>
    <line class="cls-2" x1="400.04" y1="10.18" x2="466.3" y2="10.18"/>
    <rect class="cls-2" x="429.63" y="3.79" width="4.98" height="3.05"/>
    <polyline class="cls-2" points="398.74 3.79 470.48 3.79 470.48 2.75 397.63 2.75"/>
    <line class="cls-2" x1="473.1" y1="42.83" x2="484.46" y2="42.83"/>
    <line class="cls-2" x1="403.93" y1="42.83" x2="466.57" y2="42.83"/>
    <line class="cls-2" x1="473.1" y1="59.35" x2="484.46" y2="59.35"/>
    <line class="cls-2" x1="403.93" y1="59.35" x2="466.57" y2="59.35"/>
    <line class="cls-2" x1="473.1" y1="75.87" x2="484.46" y2="75.87"/>
    <line class="cls-2" x1="403.93" y1="75.87" x2="466.57" y2="75.87"/>
    <line class="cls-2" x1="473.1" y1="92.39" x2="484.46" y2="92.39"/>
    <line class="cls-2" x1="403.93" y1="92.39" x2="466.57" y2="92.39"/>
    <line class="cls-2" x1="473.1" y1="108.91" x2="484.46" y2="108.91"/>
    <line class="cls-2" x1="403.93" y1="108.91" x2="466.57" y2="108.91"/>
    <line class="cls-2" x1="473.1" y1="26.31" x2="484.46" y2="26.31"/>
    <line class="cls-2" x1="403.93" y1="26.31" x2="466.57" y2="26.31"/>
    <line class="cls-2" x1="473.1" y1="125.43" x2="484.46" y2="125.43"/>
    <line class="cls-2" x1="403.93" y1="125.43" x2="466.57" y2="125.43"/>
    <line class="cls-2" x1="473.1" y1="158.46" x2="484.46" y2="158.46"/>
    <rect class="cls-2" x="17.37" y="123.07" width="5.44" height="5.44"/>
    <line class="cls-2" x1="473.1" y1="174.98" x2="484.46" y2="174.98"/>
    <line class="cls-2" x1="393.25" y1="174.98" x2="466.57" y2="174.98"/>
    <line class="cls-2" x1="473.1" y1="191.5" x2="484.46" y2="191.5"/>
    <line class="cls-2" x1="393.25" y1="191.5" x2="466.57" y2="191.5"/>
    <line class="cls-2" x1="473.1" y1="141.95" x2="484.46" y2="141.95"/>
    <line class="cls-2" x1="403.93" y1="141.95" x2="466.57" y2="141.95"/>
    <polygon class="cls-2" points="343.38 134.5 341.97 135.92 336.72 135.92 335.3 134.5 335.3 129.26 336.72 127.84 341.97 127.84 343.38 129.26 343.38 134.5"/>
    <line class="cls-2" x1="199.99" y1="9.14" x2="286.87" y2="9.14"/>
    <line class="cls-2" x1="300.15" y1="9.14" x2="387.03" y2="9.14"/>
    <polygon class="cls-2" points="467.02 12.15 473.94 12.15 474.67 11.57 474.67 4.37 473.94 3.79 467.02 3.79 466.3 4.37 466.3 11.57 467.02 12.15"/>
    <polygon class="cls-2" points="467.14 135.76 472.53 135.76 473.1 135.19 473.1 128.16 472.53 127.59 467.14 127.59 466.57 128.16 466.57 135.19 467.14 135.76"/>
    <line class="cls-2" x1="192.03" y1="14.73" x2="192.03" y2="125.28"/>
    <line class="cls-2" x1="194.16" y1="14.73" x2="194.16" y2="125.19"/>
    <polygon class="cls-2" points="467.14 211.7 472.53 211.7 473.1 211.13 473.1 204.11 472.53 203.54 467.14 203.54 466.57 204.11 466.57 211.13 467.14 211.7"/>
    <line class="cls-1" x1="389.18" y1="211.1" x2="197.54" y2="211.02"/>
    <line class="cls-1" x1="466.57" y1="211.13" x2="398.46" y2="211.11"/>
    <line class="cls-1" x1="398.55" y1="204.89" x2="466.57" y2="204.89"/>
    <line class="cls-1" x1="197.54" y1="204.89" x2="389.1" y2="204.89"/>
    <line class="cls-2" x1="393.25" y1="203.23" x2="393.25" y2="141.95"/>
    <line class="cls-2" x1="393.25" y1="222.15" x2="393.25" y2="212.68"/>
    <line class="cls-2" x1="209.29" y1="204.89" x2="209.29" y2="141.95"/>
    <line class="cls-2" x1="209.29" y1="222.15" x2="209.29" y2="211.03"/>
    <line class="cls-2" x1="226.01" y1="204.89" x2="226.01" y2="141.95"/>
    <line class="cls-2" x1="226.01" y1="222.15" x2="226.01" y2="211.03"/>
    <line class="cls-2" x1="242.73" y1="204.89" x2="242.73" y2="141.95"/>
    <line class="cls-2" x1="242.73" y1="222.15" x2="242.73" y2="211.04"/>
    <line class="cls-2" x1="259.46" y1="204.89" x2="259.46" y2="141.95"/>
    <line class="cls-2" x1="259.46" y1="222.15" x2="259.46" y2="211.05"/>
    <line class="cls-2" x1="276.18" y1="204.89" x2="276.18" y2="141.95"/>
    <line class="cls-2" x1="276.18" y1="222.15" x2="276.18" y2="211.05"/>
    <line class="cls-2" x1="292.91" y1="204.89" x2="292.91" y2="141.95"/>
    <line class="cls-2" x1="292.91" y1="222.15" x2="292.91" y2="211.06"/>
    <line class="cls-2" x1="309.63" y1="204.89" x2="309.63" y2="141.95"/>
    <line class="cls-2" x1="309.63" y1="222.15" x2="309.63" y2="211.07"/>
    <line class="cls-2" x1="326.36" y1="204.89" x2="326.36" y2="141.95"/>
    <line class="cls-2" x1="326.36" y1="222.15" x2="326.36" y2="211.08"/>
    <line class="cls-2" x1="343.08" y1="204.89" x2="343.08" y2="141.95"/>
    <line class="cls-2" x1="343.08" y1="222.15" x2="343.08" y2="211.08"/>
    <line class="cls-2" x1="359.81" y1="204.89" x2="359.81" y2="141.95"/>
    <line class="cls-2" x1="359.81" y1="222.15" x2="359.81" y2="211.09"/>
    <line class="cls-2" x1="376.53" y1="204.89" x2="376.53" y2="141.95"/>
    <line class="cls-2" x1="376.53" y1="222.15" x2="376.53" y2="211.1"/>
    <line class="cls-2" x1="473.1" y1="208.02" x2="484.46" y2="208.02"/>
    <line class="cls-1" x1="192.82" y1="203.23" x2="192.82" y2="141.95"/>
    <line class="cls-2" x1="265.13" y1="130.5" x2="265.13" y2="132.63"/>
    <line class="cls-2" x1="116.48" y1="193.27" x2="167.99" y2="193.27"/>
    <line class="cls-2" x1="116.48" y1="178.17" x2="167.99" y2="178.17"/>
    <line class="cls-2" x1="116.48" y1="163.07" x2="167.99" y2="163.07"/>
    <line class="cls-2" x1="116.48" y1="147.97" x2="167.99" y2="147.97"/>
    <line class="cls-2" x1="116.48" y1="132.87" x2="183.49" y2="132.87"/>
    <line class="cls-2" x1="263.16" y1="130.27" x2="293.44" y2="130.27"/>
    <line class="cls-2" x1="180.45" y1="145.11" x2="180.45" y2="197.16"/>
    <rect class="cls-1" x="167.99" y="145.11" width="24.92" height="52.05"/>
    <line class="cls-2" x1="322.86" y1="128.85" x2="323.71" y2="129.7"/>
    <line class="cls-2" x1="323.71" y1="129.7" x2="323.71" y2="130.27"/>
    <line class="cls-2" x1="322.86" y1="128.85" x2="293.44" y2="128.85"/>
    <line class="cls-2" x1="321.89" y1="132.63" x2="293.51" y2="132.63"/>
    <line class="cls-2" x1="323.71" y1="130.27" x2="293.44" y2="130.27"/>
    <line class="cls-2" x1="321.89" y1="130.5" x2="321.89" y2="132.63"/>
    <line class="cls-2" x1="264.01" y1="128.85" x2="263.16" y2="129.7"/>
    <line class="cls-2" x1="263.16" y1="129.7" x2="263.16" y2="130.27"/>
    <line class="cls-2" x1="264.01" y1="128.85" x2="293.44" y2="128.85"/>
    <line class="cls-2" x1="290.59" y1="130.5" x2="290.59" y2="132.63"/>
    <line class="cls-2" x1="265.13" y1="132.63" x2="293.51" y2="132.63"/>
  </g>
</svg>