<?xml version="1.0" encoding="UTF-8"?>
<svg id="Layer_2" xmlns="http://www.w3.org/2000/svg" version="1.1" viewBox="0 0 484.8 222.5">
  <!-- Generator: Adobe Illustrator 30.5.1, SVG Export Plug-In . SVG Version: 2.1.4 Build 3)  -->
  <defs>
    <style>
      .st0 {
        stroke-width: .2px;
      }

      .st0, .st1, .st2, .st3, .st4, .st5, .st6 {
        fill: none;
        stroke-linecap: round;
        stroke-linejoin: round;
      }

      .st0, .st1, .st2, .st5, .st6 {
        stroke: #f7f7f7;
      }

      .st1 {
        stroke-width: .2px;
      }

      .st7, .st8 {
        fill: #fff;
      }

      .st2, .st3 {
        stroke-width: .5px;
      }

      .st3, .st4 {
        stroke: #fff;
      }

      .st4 {
        stroke-width: .3px;
      }

      .st5 {
        stroke-width: .1px;
      }

      .st6 {
        stroke-width: .4px;
      }

      .st8 {
        isolation: isolate;
        opacity: .8;
      }
    </style>
  </defs>
  <g id="top_layer">
    <line class="st3" x1="120.3" y1="208.5" x2="188.2" y2="208.5"/>
    <polyline class="st3" points="116.6 113.8 116.6 90.1 .2 90.1 .2 208 112.5 208"/>
    <line class="st3" x1="120.3" y1="117.9" x2="183.6" y2="117.9"/>
    <polyline class="st3" points="192.9 212.8 192.9 222.2 484.6 222.2 484.6 8.5 474.8 8.5"/>
    <line class="st4" x1="192.3" y1=".2" x2="192.3" y2="1.6"/>
    <polyline class="st3" points="192.3 .2 183.6 .2 183.6 142 404 142 404 10.3"/>
    <polyline class="st3" points="192.3 1.6 184.9 1.6 184.9 140.7 402.7 140.7 402.7 10.3"/>
  </g>
  <g id="hatch">
    <circle class="st7" cx="193.5" cy="132" r="6.7"/>
    <path class="st8" d="M392.8,113.3h1.8v12h0c-.6,0-1.1,0-1.7,0,0,0,0,0-.1,0h0s0,0,0,0v-12h0Z"/>
    <polygon class="st7" points="467.2 211.8 466.7 211.2 466.7 204.2 467.2 203.6 472.6 203.6 473.2 204.2 473.2 211.2 472.6 211.8 467.2 211.8"/>
    <polygon class="st7" points="467.2 135.9 466.7 135.3 466.7 128.3 467.2 127.7 472.6 127.7 473.2 128.3 473.2 135.3 472.6 135.9 467.2 135.9"/>
    <polygon class="st7" points="467.1 12.2 466.4 11.7 466.4 4.5 467.1 3.9 474 3.9 474.8 4.5 474.8 11.7 474 12.2 467.1 12.2"/>
    <polygon class="st7" points="343.5 134.6 343.5 129.4 342.1 127.9 336.8 127.9 335.4 129.4 335.4 134.6 336.8 136 342.1 136 343.5 134.6"/>
    <circle class="st7" cx="193.5" cy="8.2" r="6.7"/>
    <circle class="st7" cx="293.6" cy="8.2" r="6.7"/>
    <polygon class="st7" points="242.6 134.6 242.6 129.4 244 127.9 249.3 127.9 250.7 129.4 250.7 134.6 249.3 136 244 136 242.6 134.6"/>
    <path class="st7" d="M393.7,15c-3.7,0-6.7-3-6.7-6.7s3-6.7,6.7-6.7,6.7,3,6.7,6.7-3,6.7-6.7,6.7Z"/>
    <polygon class="st7" points="389.2 211.1 389.2 205 390.9 203.3 397 203.3 398.6 205 398.6 211.1 397 212.8 390.9 212.8 389.2 211.1"/>
    <path class="st7" d="M393.7,138.7c-3.7,0-6.7-3-6.7-6.7s3-6.7,6.7-6.7,6.7,3,6.7,6.7-3,6.7-6.7,6.7Z"/>
    <rect class="st8" x="236.9" y="19.4" width="2.9" height="2.9"/>
    <polygon class="st7" points="188.2 211.1 188.2 205 189.8 203.3 196 203.3 197.6 205 197.6 211.1 196 212.8 189.8 212.8 188.2 211.1"/>
    <rect class="st8" x="238" y="9.2" width=".8" height="10.1"/>
    <polygon class="st8" points="263.3 129.8 264.1 129 293.5 129 323 129 323.8 129.8 323.8 130.4 293.5 130.4 263.3 130.4 263.3 129.8"/>
    <polygon class="st7" points="343.5 134.6 342.1 136 336.8 136 335.4 134.6 335.4 129.4 336.8 127.9 342.1 127.9 343.5 129.4 343.5 134.6"/>
    <rect class="st8" x="347.3" y="19.4" width="2.9" height="2.9"/>
    <rect class="st8" x="348.4" y="9.2" width=".8" height="10.1"/>
    <path class="st8" d="M287,9.2h-86.9c0,0,0-.1,0-.2,0-.2,0-.4,0-.6s0-.4,0-.6c0-.1,0-.2,0-.3,0,0,0-.1,0-.2,0,0,0,0,0,0h0c0,0,86.9,0,86.9,0,0,0,0,0,0,0h0c0,0,0,.1,0,.2,0,.2,0,.4,0,.7,0,.4,0,.9,0,1.3h0Z"/>
    <polygon class="st7" points="391.8 26.8 390.5 28.1 390.5 33.2 391.8 34.6 396.5 34.6 397.8 33.2 397.8 28.1 396.5 26.8 391.8 26.8"/>
    <path class="st8" d="M192.1,125.4V14.8h0s0,0,0,0c0,0,0,0,.1,0,0,0,.1,0,.2,0,.6,0,1.1,0,1.6,0h0v110.4h0s0,0,0,0h0c-.1,0-.3,0-.4,0-.6,0-1.1,0-1.6.1h0Z"/>
    <polygon class="st7" points="112.5 210.7 112.5 205.4 113.9 204 119.2 204 120.6 205.4 120.6 210.7 119.2 212.1 113.9 212.1 112.5 210.7"/>
    <rect class="st7" x="93.8" y="185.2" width="5.4" height="5.4"/>
    <rect class="st7" x="17.5" y="185.2" width="5.4" height="5.4"/>
    <rect class="st7" x="93.8" y="123.2" width="5.4" height="5.4"/>
    <rect class="st7" x="17.5" y="123.2" width="5.4" height="5.4"/>
    <polygon class="st7" points="112.2 120.5 112.2 115.3 113.6 113.8 118.9 113.8 120.3 115.3 120.3 120.5 118.9 121.9 113.6 121.9 112.2 120.5"/>
    <path class="st8" d="M387.1,9.2h-86.9c0,0,0-.1,0-.2,0-.2,0-.4,0-.6s0-.4,0-.6c0-.1,0-.2,0-.3,0,0,0-.1,0-.2,0,0,0,0,0,0h0c0,0,86.9,0,86.9,0,0,0,0,0,0,0h0c0,0,0,.1,0,.2,0,.2,0,.4,0,.7,0,.4,0,.9,0,1.3h0Z"/>
    <polygon class="st7" points="391.8 26.8 396.5 26.8 397.8 28.1 397.8 33.2 396.5 34.6 391.8 34.6 390.5 33.2 390.5 28.1 391.8 26.8"/>
    <polygon class="st7" points="242.6 134.6 242.6 129.4 244 127.9 249.3 127.9 250.7 129.4 250.7 134.6 249.3 136 244 136 242.6 134.6"/>
    <rect class="st8" x="250.7" y="130.6" width="14.5" height="2.1"/>
    <path class="st8" d="M242.6,132.7h-42.5c0,0,0-.2,0-.2,0-.2,0-.4,0-.6,0-.2,0-.4,0-.6s0-.2,0-.3c0,0,0-.1,0-.2,0,0,0,0,0,0h0s0,0,0,0h42.5v2.1h0Z"/>
    <polygon class="st8" points="293.6 132.7 290.7 132.7 290.7 130.6 293.6 130.6 295.8 130.6 295.8 132.7 293.6 132.7"/>
    <path class="st8" d="M424.2,8.2h-23.8v-.2c0-.3,0-.5,0-.8,0,0,0-.1,0-.2,0,0,0,0,0,0h29.4v-3h0s-30.9,0-30.9,0h0s0,0,0,0c0,0,0,0,0,0,0,0-.1-.1-.1-.2-.2-.2-.4-.4-.7-.6,0,0-.1,0-.2-.1h0,72.8v1h0s-35.9,0-35.9,0h0v3h0s0,0,0,0h-2.5v1.3h0s-1.1,0-1.1,0h0v2h0s-6.9,0-6.9,0h0v-2h0Z"/>
    <rect class="st7" x="236.9" y="86.4" width="2.9" height="2.8"/>
    <rect class="st7" x="347.3" y="86.4" width="2.9" height="2.8"/>
    <polygon class="st8" points="323.9 130.6 335.4 130.6 335.4 132.7 322 132.7 322 130.6 323.9 130.6"/>
    <path class="st8" d="M387.1,132.7h-43.6v-2.1h0s43.7,0,43.7,0h0c0,0,0,0,0,.1,0,.2,0,.4,0,.7,0,.4,0,.9,0,1.3h0Z"/>
    <polygon class="st8" points="394.8 44.3 394.8 34.6 392.7 34.6 392.7 45.9 394.8 45.9 394.8 44.3"/>
    <rect class="st8" x="95.5" y="176.3" width="1.5" height="8.4"/>
    <polygon class="st8" points="395.7 95.6 396.5 94.8 396.5 69.9 396.5 45.1 395.7 44.3 395.1 44.3 395.1 69.9 395.1 95.6 395.7 95.6"/>
    <rect class="st8" x="95.5" y="128.6" width="1.5" height="8.4"/>
    <polygon class="st7" points="398.5 69.9 398.5 72.4 396.4 72.4 396.4 69.9 396.4 68 398.5 68 398.5 69.9"/>
    <rect class="st8" x="98.6" y="155.2" width="1.5" height="2.9"/>
    <rect class="st8" x="97" y="136" width="1.6" height="41.3"/>
    <rect class="st8" x="19.2" y="128.6" width="1.9" height="56.6"/>
    <rect class="st8" x="22.9" y="186.8" width="70.9" height="1.9"/>
    <rect class="st8" x="22.9" y="125.1" width="70.9" height="1.9"/>
    <rect class="st8" x="392.7" y="94.7" width="2.1" height="12.3"/>
    <polygon class="st7" points="392 113.3 396.2 113.3 397.3 112.1 397.3 107.6 396.2 106.4 392 106.4 390.9 107.6 390.9 112.1 392 113.3"/>
    <path class="st8" d="M393,26.8v-11.9h.2c.3,0,.5,0,.8,0,.1,0,.3,0,.4,0,0,0,.1,0,.2,0,0,0,0,0,.1,0h0v11.9h-1.8,0Z"/>
  </g>
  <g id="column">
    <line class="st1" x1="393.3" y1="158.6" x2="466.7" y2="158.6"/>
    <rect class="st5" x="93.8" y="123.2" width="5.4" height="5.4"/>
    <rect class="st5" x="17.5" y="185.2" width="5.4" height="5.4"/>
    <rect class="st5" x="93.8" y="185.2" width="5.4" height="5.4"/>
    <line class="st6" x1="466.7" y1="204.2" x2="466.7" y2="11.9"/>
    <line class="st6" x1="473.2" y1="204.2" x2="473.2" y2="12.2"/>
    <line class="st5" x1="183.6" y1="142" x2="184.9" y2="140.7"/>
    <line class="st5" x1="402.7" y1="140.7" x2="398.2" y2="137"/>
    <line class="st5" x1="404" y1="142" x2="402.7" y2="140.7"/>
    <line class="st5" x1="184.9" y1="140.7" x2="188.5" y2="136.5"/>
    <rect class="st5" x="22.9" y="125.1" width="70.9" height="1.9"/>
    <line class="st5" x1="394.9" y1="26.8" x2="394.9" y2="14.9"/>
    <line class="st5" x1="393" y1="26.8" x2="393" y2="14.9"/>
    <rect class="st5" x="22.9" y="186.8" width="70.9" height="1.9"/>
    <line class="st0" x1="194.3" y1="123.2" x2="392.8" y2="123.2"/>
    <line class="st5" x1="394.7" y1="113.3" x2="394.7" y2="125.3"/>
    <line class="st5" x1="392.8" y1="113.3" x2="392.8" y2="125.3"/>
    <line class="st5" x1="392.7" y1="106.4" x2="392.7" y2="94.7"/>
    <line class="st5" x1="394.8" y1="106.4" x2="394.8" y2="94.7"/>
    <rect class="st5" x="19.2" y="128.6" width="1.9" height="56.6"/>
    <polygon class="st5" points="391.8 26.8 390.5 28.1 390.5 33.2 391.8 34.6 396.5 34.6 397.8 33.2 397.8 28.1 396.5 26.8 391.8 26.8"/>
    <rect class="st5" x="97" y="136" width="1.6" height="41.3"/>
    <polygon class="st5" points="392 113.3 390.9 112.1 390.9 107.6 392 106.4 396.2 106.4 397.3 107.6 397.3 112.1 396.2 113.3 392 113.3"/>
    <rect class="st5" x="98.6" y="155.2" width="1.5" height="2.9"/>
    <line class="st5" x1="97" y1="156.7" x2="98.6" y2="156.7"/>
    <line class="st5" x1="394.8" y1="94.7" x2="392.7" y2="94.7"/>
    <line class="st5" x1="396.4" y1="72.4" x2="398.5" y2="72.4"/>
    <line class="st5" x1="396.4" y1="68" x2="398.5" y2="68"/>
    <rect class="st5" x="95.5" y="128.6" width="1.5" height="8.4"/>
    <line class="st5" x1="395.1" y1="95.6" x2="395.1" y2="69.9"/>
    <line class="st5" x1="396.2" y1="94.8" x2="396.2" y2="69.9"/>
    <line class="st5" x1="395.4" y1="95.6" x2="394.8" y2="95.6"/>
    <line class="st5" x1="396.2" y1="94.8" x2="395.4" y2="95.6"/>
    <line class="st5" x1="394.8" y1="45.9" x2="392.7" y2="45.9"/>
    <line class="st5" x1="395.1" y1="44.3" x2="395.1" y2="69.9"/>
    <line class="st5" x1="396.2" y1="45.1" x2="396.2" y2="69.9"/>
    <line class="st5" x1="395.4" y1="44.3" x2="394.8" y2="44.3"/>
    <line class="st5" x1="396.2" y1="45.1" x2="395.4" y2="44.3"/>
    <line class="st5" x1="392.7" y1="34.6" x2="392.7" y2="45.9"/>
    <line class="st5" x1="394.8" y1="34.6" x2="394.8" y2="45.9"/>
    <rect class="st5" x="95.5" y="176.3" width="1.5" height="8.4"/>
    <line class="st0" x1="100.5" y1="90.1" x2="100.5" y2="208"/>
    <line class="st5" x1="95.1" y1="128.6" x2="95.1" y2="185.2"/>
    <line class="st5" x1="387.2" y1="130.6" x2="343.5" y2="130.6"/>
    <line class="st0" x1="21.1" y1="142.7" x2="95.1" y2="142.7"/>
    <line class="st0" x1="21.1" y1="157.2" x2="95.1" y2="157.2"/>
    <line class="st0" x1="21.1" y1="171.7" x2="95.1" y2="171.7"/>
    <line class="st0" x1=".2" y1="101.4" x2="100.5" y2="101.4"/>
    <line class="st0" x1=".2" y1="114.2" x2="100.5" y2="114.2"/>
    <line class="st0" x1=".2" y1="126" x2="17.5" y2="125.9"/>
    <line class="st5" x1="200" y1="130.6" x2="242.6" y2="130.6"/>
    <line class="st0" x1="8.9" y1="126" x2="8.9" y2="187.1"/>
    <line class="st0" x1=".2" y1="187.8" x2="17.5" y2="187.8"/>
    <line class="st0" x1="17.5" y1="190.7" x2=".2" y2="208"/>
    <polygon class="st5" points="112.2 120.5 113.6 121.9 118.9 121.9 120.3 120.5 120.3 115.3 118.9 113.8 113.6 113.8 112.2 115.3 112.2 120.5"/>
    <polygon class="st5" points="112.5 210.7 113.9 212.1 119.2 212.1 120.6 210.7 120.6 205.4 119.2 204 113.9 204 112.5 205.4 112.5 210.7"/>
    <line class="st0" x1="116.6" y1="204" x2="116.6" y2="121.9"/>
    <circle class="st5" cx="193.5" cy="8.2" r="6.7"/>
    <circle class="st5" cx="293.6" cy="8.2" r="6.7"/>
    <path class="st5" d="M393.7,15c3.7,0,6.7-3,6.7-6.7s-3-6.7-6.7-6.7-6.7,3-6.7,6.7,3,6.7,6.7,6.7Z"/>
    <circle class="st5" cx="193.5" cy="132" r="6.7"/>
    <path class="st5" d="M393.7,138.7c3.7,0,6.7-3,6.7-6.7s-3-6.7-6.7-6.7-6.7,3-6.7,6.7,3,6.7,6.7,6.7Z"/>
    <polygon class="st5" points="188.2 211.1 189.8 212.8 196 212.8 197.6 211.1 197.6 205 196 203.3 189.8 203.3 188.2 205 188.2 211.1"/>
    <polygon class="st5" points="389.2 211.1 390.9 212.8 397 212.8 398.6 211.1 398.6 205 397 203.3 390.9 203.3 389.2 205 389.2 211.1"/>
    <polygon class="st5" points="242.6 134.6 244 136 249.3 136 250.7 134.6 250.7 129.4 249.3 127.9 244 127.9 242.6 129.4 242.6 134.6"/>
    <line class="st5" x1="200.1" y1="7.1" x2="287" y2="7.1"/>
    <line class="st5" x1="300.2" y1="7.1" x2="387.1" y2="7.1"/>
    <line class="st5" x1="295.8" y1="130.6" x2="295.8" y2="132.7"/>
    <line class="st5" x1="335.4" y1="130.6" x2="322" y2="130.6"/>
    <line class="st5" x1="335.3" y1="132.5" x2="321.9" y2="132.5"/>
    <line class="st5" x1="387.1" y1="132.7" x2="343.5" y2="132.7"/>
    <line class="st5" x1="250.7" y1="130.6" x2="265.2" y2="130.6"/>
    <line class="st5" x1="250.7" y1="132.7" x2="265.2" y2="132.7"/>
    <line class="st5" x1="200.1" y1="132.7" x2="242.6" y2="132.7"/>
    <line class="st2" x1="236.2" y1="9.2" x2="236.2" y2="90.2"/>
    <line class="st2" x1="351.3" y1="90.2" x2="351.3" y2="9.2"/>
    <line class="st2" x1="236.2" y1="90.2" x2="351.3" y2="90.2"/>
    <rect class="st5" x="236.9" y="86.4" width="2.9" height="2.8"/>
    <rect class="st5" x="347.3" y="86.4" width="2.9" height="2.8"/>
    <rect class="st5" x="348.4" y="9.2" width=".8" height="10.1"/>
    <rect class="st5" x="347.3" y="19.4" width="2.9" height="2.9"/>
    <rect class="st5" x="238" y="9.2" width=".8" height="10.1"/>
    <rect class="st5" x="236.9" y="19.4" width="2.9" height="2.9"/>
    <line class="st0" x1="243.6" y1="90.2" x2="243.6" y2="123.2"/>
    <line class="st0" x1="260.2" y1="90.2" x2="260.2" y2="123.2"/>
    <line class="st0" x1="276.4" y1="90.2" x2="276.4" y2="123.2"/>
    <line class="st0" x1="293.3" y1="90.2" x2="293.3" y2="123.2"/>
    <line class="st0" x1="308.5" y1="90.2" x2="308.5" y2="123.2"/>
    <line class="st0" x1="323.3" y1="90.2" x2="323.3" y2="123.2"/>
    <line class="st0" x1="339.5" y1="90.2" x2="339.5" y2="123.2"/>
    <line class="st0" x1="238.9" y1="22.2" x2="238.9" y2="84.7"/>
    <line class="st0" x1="348.2" y1="84.7" x2="348.2" y2="22.2"/>
    <line class="st0" x1="238.9" y1="84.7" x2="348.2" y2="84.7"/>
    <line class="st0" x1="332.9" y1="84.7" x2="332.9" y2="9.2"/>
    <line class="st0" x1="317.2" y1="84.7" x2="317.2" y2="9.2"/>
    <line class="st0" x1="301.5" y1="84.7" x2="301.5" y2="9.2"/>
    <line class="st0" x1="285.8" y1="84.7" x2="285.8" y2="9.2"/>
    <line class="st0" x1="270.1" y1="84.7" x2="270.1" y2="9.2"/>
    <line class="st0" x1="254.4" y1="84.7" x2="254.4" y2="9.2"/>
    <line class="st0" x1="355.5" y1="9.2" x2="355.5" y2="123.2"/>
    <line class="st0" x1="370.7" y1="9.2" x2="370.7" y2="123.2"/>
    <line class="st0" x1="385.3" y1="9.2" x2="385.3" y2="123.2"/>
    <line class="st0" x1="226.2" y1="9.2" x2="226.2" y2="123.2"/>
    <line class="st0" x1="210.3" y1="9.2" x2="210.3" y2="123.2"/>
    <rect class="st5" x="424.2" y="8.2" width="6.9" height="2"/>
    <polyline class="st5" points="400.5 8.2 432.2 8.2 432.2 6.9 400.3 6.9"/>
    <line class="st0" x1="400.1" y1="10.3" x2="466.4" y2="10.3"/>
    <rect class="st5" x="429.7" y="3.9" width="5" height="3.1"/>
    <polyline class="st5" points="398.8 3.9 470.6 3.9 470.6 2.8 397.7 2.8"/>
    <line class="st0" x1="473.2" y1="42.9" x2="484.6" y2="42.9"/>
    <line class="st1" x1="404" y1="42.9" x2="466.7" y2="42.9"/>
    <line class="st0" x1="473.2" y1="59.4" x2="484.6" y2="59.4"/>
    <line class="st1" x1="404" y1="59.4" x2="466.7" y2="59.4"/>
    <line class="st0" x1="473.2" y1="76" x2="484.6" y2="76"/>
    <line class="st1" x1="404" y1="76" x2="466.7" y2="76"/>
    <line class="st0" x1="473.2" y1="92.5" x2="484.6" y2="92.5"/>
    <line class="st1" x1="404" y1="92.5" x2="466.7" y2="92.5"/>
    <line class="st0" x1="473.2" y1="109" x2="484.6" y2="109"/>
    <line class="st1" x1="404" y1="109" x2="466.7" y2="109"/>
    <line class="st0" x1="473.2" y1="26.4" x2="484.6" y2="26.4"/>
    <line class="st1" x1="404" y1="26.4" x2="466.7" y2="26.4"/>
    <line class="st0" x1="473.2" y1="125.5" x2="484.6" y2="125.5"/>
    <line class="st1" x1="404" y1="125.5" x2="466.7" y2="125.5"/>
    <line class="st0" x1="473.2" y1="158.6" x2="484.6" y2="158.6"/>
    <rect class="st5" x="17.5" y="123.2" width="5.4" height="5.4"/>
    <line class="st0" x1="473.2" y1="175.1" x2="484.6" y2="175.1"/>
    <line class="st1" x1="393.3" y1="175.1" x2="466.7" y2="175.1"/>
    <line class="st0" x1="473.2" y1="191.6" x2="484.6" y2="191.6"/>
    <line class="st1" x1="393.3" y1="191.6" x2="466.7" y2="191.6"/>
    <line class="st0" x1="473.2" y1="142" x2="484.6" y2="142"/>
    <line class="st1" x1="404" y1="142" x2="466.7" y2="142"/>
    <polygon class="st5" points="343.5 134.6 342.1 136 336.8 136 335.4 134.6 335.4 129.4 336.8 127.9 342.1 127.9 343.5 129.4 343.5 134.6"/>
    <line class="st5" x1="200.1" y1="9.2" x2="287" y2="9.2"/>
    <line class="st5" x1="300.2" y1="9.2" x2="387.1" y2="9.2"/>
    <polygon class="st5" points="467.1 12.2 474 12.2 474.8 11.7 474.8 4.5 474 3.9 467.1 3.9 466.4 4.5 466.4 11.7 467.1 12.2"/>
    <polygon class="st5" points="467.2 135.9 472.6 135.9 473.2 135.3 473.2 128.3 472.6 127.7 467.2 127.7 466.7 128.3 466.7 135.3 467.2 135.9"/>
    <line class="st5" x1="192.1" y1="14.8" x2="192.1" y2="125.4"/>
    <line class="st5" x1="194.3" y1="14.8" x2="194.3" y2="125.3"/>
    <polygon class="st5" points="467.2 211.8 472.6 211.8 473.2 211.2 473.2 204.2 472.6 203.6 467.2 203.6 466.7 204.2 466.7 211.2 467.2 211.8"/>
    <line class="st6" x1="389.3" y1="211.2" x2="197.6" y2="211.1"/>
    <line class="st6" x1="466.7" y1="211.2" x2="398.6" y2="211.2"/>
    <line class="st6" x1="398.6" y1="205" x2="466.7" y2="205"/>
    <line class="st6" x1="197.6" y1="205" x2="389.2" y2="205"/>
    <line class="st0" x1="393.3" y1="203.3" x2="393.3" y2="142"/>
    <line class="st0" x1="393.3" y1="222.2" x2="393.3" y2="212.8"/>
    <line class="st0" x1="209.4" y1="205" x2="209.4" y2="142"/>
    <line class="st0" x1="209.4" y1="222.2" x2="209.4" y2="211.1"/>
    <line class="st0" x1="226.1" y1="205" x2="226.1" y2="142"/>
    <line class="st0" x1="226.1" y1="222.2" x2="226.1" y2="211.1"/>
    <line class="st0" x1="242.8" y1="205" x2="242.8" y2="142"/>
    <line class="st0" x1="242.8" y1="222.2" x2="242.8" y2="211.1"/>
    <line class="st0" x1="259.6" y1="205" x2="259.6" y2="142"/>
    <line class="st0" x1="259.6" y1="222.2" x2="259.6" y2="211.2"/>
    <line class="st0" x1="276.3" y1="205" x2="276.3" y2="142"/>
    <line class="st0" x1="276.3" y1="222.2" x2="276.3" y2="211.2"/>
    <line class="st0" x1="293" y1="205" x2="293" y2="142"/>
    <line class="st0" x1="293" y1="222.2" x2="293" y2="211.2"/>
    <line class="st0" x1="309.7" y1="205" x2="309.7" y2="142"/>
    <line class="st0" x1="309.7" y1="222.2" x2="309.7" y2="211.2"/>
    <line class="st0" x1="326.5" y1="205" x2="326.5" y2="142"/>
    <line class="st0" x1="326.5" y1="222.2" x2="326.5" y2="211.2"/>
    <line class="st0" x1="343.2" y1="205" x2="343.2" y2="142"/>
    <line class="st0" x1="343.2" y1="222.2" x2="343.2" y2="211.2"/>
    <line class="st0" x1="359.9" y1="205" x2="359.9" y2="142"/>
    <line class="st0" x1="359.9" y1="222.2" x2="359.9" y2="211.2"/>
    <line class="st0" x1="376.6" y1="205" x2="376.6" y2="142"/>
    <line class="st0" x1="376.6" y1="222.2" x2="376.6" y2="211.2"/>
    <line class="st0" x1="473.2" y1="208.1" x2="484.6" y2="208.1"/>
    <line class="st0" x1="192.9" y1="203.3" x2="192.9" y2="142"/>
    <line class="st5" x1="265.2" y1="130.6" x2="265.2" y2="132.7"/>
    <line class="st0" x1="116.6" y1="193.4" x2="168.1" y2="193.4"/>
    <line class="st0" x1="116.6" y1="178.3" x2="168.1" y2="178.3"/>
    <line class="st0" x1="116.6" y1="163.2" x2="168.1" y2="163.2"/>
    <line class="st0" x1="116.6" y1="148.1" x2="168.1" y2="148.1"/>
    <line class="st0" x1="116.6" y1="133" x2="183.6" y2="133"/>
    <line class="st5" x1="263.3" y1="130.4" x2="293.5" y2="130.4"/>
    <line class="st0" x1="180.5" y1="145.2" x2="180.5" y2="197.3"/>
    <rect class="st0" x="168.1" y="145.2" width="24.9" height="52.1"/>
    <line class="st5" x1="323" y1="129" x2="323.8" y2="129.8"/>
    <line class="st5" x1="323.8" y1="129.8" x2="323.8" y2="130.4"/>
    <line class="st5" x1="323" y1="129" x2="293.5" y2="129"/>
    <line class="st5" x1="322" y1="132.7" x2="293.6" y2="132.7"/>
    <line class="st5" x1="323.8" y1="130.4" x2="293.5" y2="130.4"/>
    <line class="st5" x1="322" y1="130.6" x2="322" y2="132.7"/>
    <line class="st5" x1="264.1" y1="129" x2="263.3" y2="129.8"/>
    <line class="st5" x1="263.3" y1="129.8" x2="263.3" y2="130.4"/>
    <line class="st5" x1="264.1" y1="129" x2="293.5" y2="129"/>
    <line class="st5" x1="290.7" y1="130.6" x2="290.7" y2="132.7"/>
    <line class="st5" x1="265.2" y1="132.7" x2="293.6" y2="132.7"/>
  </g>
</svg>