<?xml version="1.0" encoding="UTF-8"?>
<svg id="Layer_2" data-name="Layer 2" xmlns="http://www.w3.org/2000/svg" viewBox="0 0 594.18 594.18">
  <defs>
    <style>
      .cls-1 {
        stroke-dasharray: 3.13 3.13;
      }

      .cls-1, .cls-2, .cls-3, .cls-4, .cls-5, .cls-6, .cls-7, .cls-8, .cls-9, .cls-10, .cls-11, .cls-12, .cls-13, .cls-14, .cls-15, .cls-16, .cls-17, .cls-18, .cls-19, .cls-20, .cls-21, .cls-22 {
        fill: none;
        stroke-linecap: round;
        stroke-linejoin: round;
      }

      .cls-1, .cls-3, .cls-4, .cls-5, .cls-6, .cls-7, .cls-8, .cls-9, .cls-10, .cls-11, .cls-12, .cls-13, .cls-14, .cls-16, .cls-18, .cls-19, .cls-20, .cls-21, .cls-22 {
        stroke-width: .5px;
      }

      .cls-1, .cls-3, .cls-4, .cls-5, .cls-6, .cls-7, .cls-8, .cls-9, .cls-11, .cls-13, .cls-14, .cls-16, .cls-18, .cls-19, .cls-20, .cls-21 {
        stroke: #c4c4c4;
      }

      .cls-2 {
        stroke-width: .25px;
      }

      .cls-2, .cls-10, .cls-15 {
        stroke: #f7f7f7;
      }

      .cls-3 {
        stroke-dasharray: 3.13 3.13;
      }

      .cls-23 {
        stroke-miterlimit: 10;
      }

      .cls-23, .cls-24 {
        fill: #fff;
      }

      .cls-23, .cls-12, .cls-17 {
        stroke: #fff;
      }

      .cls-4 {
        stroke-dasharray: 3.13 3.13;
      }

      .cls-5 {
        stroke-dasharray: 2.78 2.78;
      }

      .cls-7 {
        stroke-dasharray: 3.13 3.13;
      }

      .cls-8 {
        stroke-dasharray: 2.78 2.78;
      }

      .cls-9 {
        stroke-dasharray: 3.13 3.13;
      }

      .cls-11 {
        stroke-dasharray: 3.13 3.13;
      }

      .cls-13 {
        stroke-dasharray: 3.13 3.13;
      }

      .cls-14 {
        stroke-dasharray: 2.78 2.78;
      }

      .cls-15 {
        stroke-width: .75px;
      }

      .cls-16 {
        stroke-dasharray: 3.13 3.13;
      }

      .cls-18 {
        stroke-dasharray: 2.87 2.87;
      }

      .cls-19 {
        stroke-dasharray: 3.13 3.13;
      }

      .cls-20 {
        stroke-dasharray: 2.78 2.78;
      }

      .cls-21 {
        stroke-dasharray: 3.13 3.13;
      }

      .cls-22 {
        stroke: gray;
      }
    </style>
  </defs>
  <g id="thinline">
    <polygon class="cls-6" points="40.98 216.42 125.22 132.19 40.98 47.95 40.98 216.42"/>
    <line class="cls-12" x1="208.48" y1="488.7" x2="78.97" y2="359.19"/>
    <line class="cls-12" x1="200.06" y1="497.11" x2="70.55" y2="367.6"/>
    <polygon class="cls-6" points="377.77 553.2 462 468.97 546.23 553.2 377.77 553.2"/>
    <polygon class="cls-6" points="216.42 553.2 132.19 468.97 47.95 553.2 216.42 553.2"/>
    <polygon class="cls-6" points="40.98 377.77 125.22 462 40.98 546.23 40.98 377.77"/>
    <polygon class="cls-6" points="553.2 216.42 468.97 132.19 553.2 47.95 553.2 216.42"/>
    <polygon class="cls-6" points="377.77 40.98 462 125.22 546.23 40.98 377.77 40.98"/>
    <polyline class="cls-22" points="112.47 227.03 42.4 297.09 167.22 421.9"/>
    <polyline class="cls-22" points="172.76 166.74 297.09 42.4 367.17 112.48"/>
    <polyline class="cls-22" points="505.66 343.21 551.78 297.09 482.42 227.73"/>
    <line class="cls-22" x1="479.21" y1="224.53" x2="426.97" y2="172.28"/>
    <polyline class="cls-22" points="421.43 427.44 297.09 551.78 226.95 481.63"/>
    <line class="cls-12" x1="211.47" y1="508.52" x2="226.58" y2="523.63"/>
    <line class="cls-12" x1="85.66" y1="211.47" x2="70.55" y2="226.58"/>
    <line class="cls-12" x1="92.29" y1="218.09" x2="77.2" y2="233.22"/>
    <polyline class="cls-6" points="155.16 40.98 216.42 40.98 132.19 125.22 47.95 40.98 126.09 40.98"/>
    <line class="cls-12" x1="488.7" y1="385.7" x2="359.19" y2="515.21"/>
    <line class="cls-12" x1="497.11" y1="394.12" x2="367.6" y2="523.63"/>
    <line class="cls-12" x1="105.49" y1="208.48" x2="235" y2="78.97"/>
    <line class="cls-12" x1="97.07" y1="200.06" x2="226.58" y2="70.55"/>
    <line class="cls-12" x1="385.7" y1="105.49" x2="515.21" y2="235"/>
    <line class="cls-12" x1="394.12" y1="97.07" x2="523.63" y2="226.58"/>
    <line class="cls-12" x1="218.09" y1="501.89" x2="233.22" y2="516.99"/>
    <line class="cls-12" x1="508.52" y1="382.72" x2="523.63" y2="367.6"/>
    <line class="cls-12" x1="501.89" y1="376.09" x2="516.99" y2="360.97"/>
    <line class="cls-12" x1="376.09" y1="92.29" x2="360.97" y2="77.2"/>
    <polygon class="cls-6" points="553.2 377.77 468.97 462 553.2 546.23 553.2 377.77"/>
    <line class="cls-12" x1="382.72" y1="85.66" x2="367.6" y2="70.55"/>
  </g>
  <g id="line">
    <polyline class="cls-6" points="551.87 .38 551.87 10.25 341.87 10.25 341.87 .38"/>
    <rect class="cls-10" x="393.86" y="101.61" width="1.22" height="23.57" transform="translate(35.36 312.14) rotate(-45)"/>
    <rect class="cls-10" x="410.3" y="116.33" width="1.22" height="23.57" transform="translate(29.76 328.08) rotate(-45)"/>
    <rect class="cls-10" x="101.61" y="199.11" width="23.57" height="1.22" transform="translate(-108.01 138.67) rotate(-45)"/>
    <rect class="cls-10" x="116.33" y="182.66" width="23.57" height="1.22" transform="translate(-92.07 144.27) rotate(-45)"/>
    <rect class="cls-10" x="131.05" y="166.22" width="23.57" height="1.22" transform="translate(-76.13 149.86) rotate(-45)"/>
    <rect class="cls-10" x="156.73" y="143.99" width="23.57" height="1.22" transform="translate(-52.89 161.51) rotate(-45)"/>
    <rect class="cls-10" x="171.45" y="127.54" width="23.57" height="1.22" transform="translate(-36.95 167.1) rotate(-45)"/>
    <rect class="cls-10" x="186.17" y="111.1" width="23.57" height="1.22" transform="translate(-21.01 172.69) rotate(-45)"/>
    <line class="cls-10" x1="98.23" y1="201.22" x2="146.1" y2="153.35"/>
    <line class="cls-10" x1="99.23" y1="202.23" x2="147.11" y2="154.35"/>
    <line class="cls-10" x1="100.24" y1="203.23" x2="148.11" y2="155.36"/>
    <line class="cls-10" x1="101.24" y1="204.23" x2="149.11" y2="156.36"/>
    <line class="cls-10" x1="99.23" y1="202.23" x2="147.11" y2="154.35"/>
    <rect class="cls-10" x="201.97" y="93.57" width="23.57" height="1.22" transform="translate(-3.99 178.73) rotate(-45)"/>
    <rect class="cls-10" x="220.04" y="80.29" width="13.99" height="1.22" transform="translate(9.29 184.23) rotate(-45)"/>
    <rect class="cls-10" x="215.54" y="75.79" width="13.99" height="1.22" transform="translate(11.16 179.73) rotate(-45)"/>
    <rect class="cls-10" x="197.47" y="89.07" width="23.57" height="1.22" transform="translate(-2.12 174.24) rotate(-45)"/>
    <rect class="cls-10" x="181.67" y="106.6" width="23.57" height="1.22" transform="translate(-19.15 168.19) rotate(-45)"/>
    <rect class="cls-10" x="166.95" y="123.04" width="23.57" height="1.22" transform="translate(-35.09 162.6) rotate(-45)"/>
    <rect class="cls-10" x="152.23" y="139.49" width="23.57" height="1.22" transform="translate(-51.03 157.01) rotate(-45)"/>
    <rect class="cls-10" x="426.75" y="131.05" width="1.22" height="23.57" transform="translate(24.17 344.02) rotate(-45)"/>
    <rect class="cls-10" x="448.98" y="156.73" width="1.22" height="23.57" transform="translate(12.53 367.26) rotate(-45)"/>
    <rect class="cls-10" x="469.01" y="393.86" width="23.57" height="1.22" transform="translate(-138.11 455.51) rotate(-45)"/>
    <rect class="cls-10" x="454.29" y="410.3" width="23.57" height="1.22" transform="translate(-154.05 449.92) rotate(-45)"/>
    <rect class="cls-10" x="439.57" y="426.75" width="23.57" height="1.22" transform="translate(-169.99 444.32) rotate(-45)"/>
    <rect class="cls-10" x="413.89" y="448.98" width="23.57" height="1.22" transform="translate(-193.23 432.68) rotate(-45)"/>
    <rect class="cls-10" x="399.17" y="465.42" width="23.57" height="1.22" transform="translate(-209.17 427.09) rotate(-45)"/>
    <rect class="cls-10" x="384.45" y="481.87" width="23.57" height="1.22" transform="translate(-225.11 421.49) rotate(-45)"/>
    <line class="cls-10" x1="495.95" y1="392.96" x2="448.08" y2="440.83"/>
    <line class="cls-10" x1="494.95" y1="391.96" x2="447.08" y2="439.83"/>
    <line class="cls-10" x1="493.95" y1="390.96" x2="446.08" y2="438.83"/>
    <line class="cls-10" x1="492.95" y1="389.95" x2="445.07" y2="437.83"/>
    <line class="cls-10" x1="494.95" y1="391.96" x2="447.08" y2="439.83"/>
    <rect class="cls-10" x="368.64" y="499.4" width="23.57" height="1.22" transform="translate(-242.13 415.45) rotate(-45)"/>
    <rect class="cls-10" x="360.15" y="512.68" width="13.99" height="1.22" transform="translate(-255.41 409.95) rotate(-45)"/>
    <rect class="cls-10" x="364.65" y="517.18" width="13.99" height="1.22" transform="translate(-257.28 414.45) rotate(-45)"/>
    <rect class="cls-10" x="373.14" y="503.9" width="23.57" height="1.22" transform="translate(-244 419.95) rotate(-45)"/>
    <rect class="cls-10" x="388.95" y="486.37" width="23.57" height="1.22" transform="translate(-226.97 425.99) rotate(-45)"/>
    <rect class="cls-10" x="403.67" y="469.92" width="23.57" height="1.22" transform="translate(-211.03 431.58) rotate(-45)"/>
    <rect class="cls-10" x="418.39" y="453.48" width="23.57" height="1.22" transform="translate(-195.09 437.18) rotate(-45)"/>
    <rect class="cls-10" x="465.42" y="171.45" width="1.22" height="23.57" transform="translate(6.93 383.2) rotate(-45)"/>
    <rect class="cls-10" x="481.87" y="186.17" width="1.22" height="23.57" transform="translate(1.34 399.14) rotate(-45)"/>
    <line class="cls-10" x1="392.96" y1="98.23" x2="440.83" y2="146.1"/>
    <line class="cls-10" x1="391.96" y1="99.23" x2="439.83" y2="147.11"/>
    <line class="cls-10" x1="390.96" y1="100.24" x2="438.83" y2="148.11"/>
    <line class="cls-10" x1="389.95" y1="101.24" x2="437.83" y2="149.11"/>
    <line class="cls-10" x1="391.96" y1="99.23" x2="439.83" y2="147.11"/>
    <rect class="cls-10" x="499.4" y="201.97" width="1.22" height="23.57" transform="translate(-4.7 416.17) rotate(-45)"/>
    <rect class="cls-10" x="512.68" y="220.04" width="1.22" height="13.99" transform="translate(-10.2 429.45) rotate(-45)"/>
    <line class="cls-10" x1="550" y1=".38" x2="554.88" y2=".38"/>
    <line class="cls-10" x1="593.81" y1="44.19" x2="593.81" y2="39.3"/>
    <polyline class="cls-6" points="593.81 41.18 583.93 41.18 583.93 10.25 553.01 10.25 553.01 .38"/>
    <polyline class="cls-15" points="585.92 288.11 585.92 255.32 593.81 255.32 593.81 250.44 585.92 250.44 585.92 44.19 593.81 44.19 593.81 39.3 585.92 39.3 585.92 8.27 554.88 8.27 554.88 .38 550 .38 550 8.27 343.75 8.27 343.75 .38 338.86 .38 338.86 8.27 306.08 8.27"/>
    <polyline class="cls-10" points="593.81 252.31 583.93 252.31 583.93 42.31 593.81 42.31"/>
    <polyline class="cls-6" points="340.74 .38 340.74 10.25 308.06 10.25"/>
    <polyline class="cls-10" points="583.93 286.12 583.93 253.45 593.81 253.45"/>
    <polyline class="cls-6" points="578.26 280.45 578.26 15.92 313.73 15.92"/>
    <polyline class="cls-6" points="580.25 282.44 580.25 13.94 311.75 13.94"/>
    <line class="cls-10" x1=".38" y1="550" x2=".38" y2="554.88"/>
    <line class="cls-10" x1="44.19" y1="593.81" x2="39.3" y2="593.81"/>
    <polyline class="cls-6" points="41.18 593.81 41.18 583.93 10.25 583.93 10.25 553.01 .38 553.01"/>
    <polyline class="cls-15" points="288.11 585.92 255.32 585.92 255.32 593.81 250.44 593.81 250.44 585.92 44.19 585.92 44.19 593.81 39.3 593.81 39.3 585.92 8.27 585.92 8.27 554.88 .38 554.88 .38 550 8.27 550 8.27 343.75 .38 343.75 .38 338.86 8.27 338.86 8.27 306.08"/>
    <polyline class="cls-6" points="252.31 593.81 252.31 583.93 42.31 583.93 42.31 593.81"/>
    <polyline class="cls-6" points=".38 551.87 10.25 551.87 10.25 341.87 .38 341.87"/>
    <polyline class="cls-6" points=".38 340.74 10.25 340.74 10.25 308.06"/>
    <polyline class="cls-6" points="286.12 583.93 253.45 583.93 253.45 593.81"/>
    <polyline class="cls-10" points="280.45 578.26 15.92 578.26 15.92 313.73"/>
    <polyline class="cls-6" points="282.44 580.25 13.94 580.25 13.94 311.75"/>
    <polyline class="cls-6" points="580.25 311.75 580.25 580.25 311.75 580.25"/>
    <polyline class="cls-6" points="578.26 313.73 578.26 578.26 313.73 578.26"/>
    <polyline class="cls-6" points="583.93 308.06 583.93 340.74 593.81 340.74"/>
    <polyline class="cls-6" points="340.74 593.81 340.74 583.93 308.06 583.93"/>
    <polyline class="cls-6" points="551.87 593.81 551.87 583.93 341.87 583.93 341.87 593.81"/>
    <polyline class="cls-6" points="593.81 341.87 583.93 341.87 583.93 551.87 593.81 551.87"/>
    <polyline class="cls-15" points="585.92 306.08 585.92 338.86 593.81 338.86 593.81 343.75 585.92 343.75 585.92 550 593.81 550 593.81 554.88 585.92 554.88 585.92 585.92 554.88 585.92 554.88 593.81 550 593.81 550 585.92 343.75 585.92 343.75 593.81 338.86 593.81 338.86 585.92 306.08 585.92"/>
    <polyline class="cls-6" points="593.81 553.01 583.93 553.01 583.93 583.93 553.01 583.93 553.01 593.81"/>
    <line class="cls-10" x1="593.81" y1="550" x2="593.81" y2="554.88"/>
    <line class="cls-10" x1="550" y1="593.81" x2="554.88" y2="593.81"/>
    <polyline class="cls-6" points="282.44 13.94 13.94 13.94 13.94 282.44"/>
    <polyline class="cls-6" points="280.45 15.92 15.92 15.92 15.92 280.45"/>
    <polyline class="cls-6" points="286.12 10.25 253.45 10.25 253.45 .38"/>
    <polyline class="cls-6" points=".38 253.45 10.25 253.45 10.25 286.12"/>
    <polyline class="cls-6" points=".38 42.31 10.25 42.31 10.25 252.31 .38 252.31"/>
    <polyline class="cls-6" points="252.31 .38 252.31 10.25 42.31 10.25 42.31 .38"/>
    <polyline class="cls-10" points="288.11 8.27 255.32 8.27 255.32 .38 250.44 .38 250.44 8.27 44.19 8.27 44.19 .38 39.3 .38 39.3 8.27 8.27 8.27 8.27 39.3 .38 39.3 .38 44.19 8.27 44.19 8.27 250.44 .38 250.44 .38 255.32 8.27 255.32 8.27 288.11"/>
    <polyline class="cls-6" points="41.18 .38 41.18 10.25 10.25 10.25 10.25 41.18 .38 41.18"/>
    <line class="cls-10" x1="44.19" y1=".38" x2="39.3" y2=".38"/>
    <line class="cls-10" x1=".38" y1="44.19" x2=".38" y2="39.3"/>
    <polyline class="cls-15" points="589.51 300.81 593.23 297.09 589.51 293.37"/>
    <polyline class="cls-15" points="300.81 589.51 297.09 593.23 293.37 589.51"/>
    <polyline class="cls-15" points="293.37 4.68 297.09 .95 300.81 4.68"/>
    <polyline class="cls-15" points="4.68 293.37 .95 297.09 4.68 300.81"/>
    <rect class="cls-10" x="517.18" y="215.54" width="1.22" height="13.99" transform="translate(-5.7 431.31) rotate(-45)"/>
    <rect class="cls-10" x="503.9" y="197.47" width="1.22" height="23.57" transform="translate(-.2 418.03) rotate(-45)"/>
    <rect class="cls-10" x="486.37" y="181.67" width="1.22" height="23.57" transform="translate(5.84 401.01) rotate(-45)"/>
    <rect class="cls-10" x="469.92" y="166.95" width="1.22" height="23.57" transform="translate(11.43 385.06) rotate(-45)"/>
    <rect class="cls-10" x="453.48" y="152.23" width="1.22" height="23.57" transform="translate(17.02 369.13) rotate(-45)"/>
    <rect class="cls-10" x="199.11" y="469.01" width="1.22" height="23.57" transform="translate(-281.48 282.04) rotate(-45)"/>
    <line class="cls-10" x1="135.81" y1="74.97" x2="117.57" y2="93.21"/>
    <line class="cls-10" x1="134.34" y1="72.76" x2="110.5" y2="82.61"/>
    <line class="cls-10" x1="133.82" y1="70.15" x2="108.03" y2="70.1"/>
    <line class="cls-10" x1="134.35" y1="67.54" x2="110.55" y2="57.6"/>
    <line class="cls-10" x1="135.83" y1="65.33" x2="117.67" y2="47.02"/>
    <line class="cls-10" x1="138.05" y1="63.86" x2="128.3" y2="39.98"/>
    <line class="cls-10" x1="140.67" y1="63.36" x2="140.82" y2="37.56"/>
    <line class="cls-10" x1="143.27" y1="63.89" x2="153.31" y2="40.13"/>
    <line class="cls-10" x1="145.47" y1="65.39" x2="163.86" y2="47.29"/>
    <line class="cls-10" x1="146.93" y1="67.61" x2="170.85" y2="57.95"/>
    <line class="cls-10" x1="147.43" y1="70.23" x2="173.22" y2="70.48"/>
    <line class="cls-10" x1="146.88" y1="72.83" x2="170.61" y2="82.96"/>
    <line class="cls-10" x1="145.38" y1="75.03" x2="163.4" y2="93.48"/>
    <line class="cls-10" x1="143.15" y1="76.48" x2="152.72" y2="100.44"/>
    <line class="cls-10" x1="140.53" y1="76.96" x2="140.18" y2="102.76"/>
    <path class="cls-2" d="M117.57,93.21c6,6,14.11,9.43,22.6,9.54"/>
    <line class="cls-10" x1="299.2" y1="331.22" x2="281.08" y2="313.1"/>
    <line class="cls-10" x1="305.21" y1="325.2" x2="287.1" y2="307.09"/>
    <line class="cls-10" x1="311.23" y1="319.19" x2="293.11" y2="301.07"/>
    <line class="cls-10" x1="317.24" y1="313.18" x2="299.12" y2="295.06"/>
    <line class="cls-10" x1="323.25" y1="307.16" x2="305.14" y2="289.05"/>
    <line class="cls-10" x1="320.97" y1="314.75" x2="340.69" y2="334.47"/>
    <line class="cls-10" x1="326.98" y1="308.74" x2="346.7" y2="328.46"/>
    <line class="cls-10" x1="333" y1="302.73" x2="352.72" y2="322.45"/>
    <line class="cls-10" x1="339.01" y1="296.71" x2="358.73" y2="316.43"/>
    <line class="cls-10" x1="345.02" y1="290.7" x2="364.74" y2="310.42"/>
    <line class="cls-10" x1="299.33" y1="336.4" x2="319.05" y2="356.12"/>
    <line class="cls-10" x1="293.31" y1="342.41" x2="313.03" y2="362.13"/>
    <line class="cls-10" x1="287.3" y1="348.42" x2="307.02" y2="368.14"/>
    <line class="cls-10" x1="313.59" y1="316.83" x2="342.37" y2="288.05"/>
    <line class="cls-10" x1="345.02" y1="290.7" x2="342.37" y2="288.05"/>
    <line class="cls-10" x1="287.3" y1="348.42" x2="345.02" y2="290.7"/>
    <line class="cls-10" x1="262.97" y1="294.98" x2="281.08" y2="313.1"/>
    <line class="cls-10" x1="268.98" y1="288.97" x2="287.1" y2="307.09"/>
    <line class="cls-10" x1="275" y1="282.96" x2="293.11" y2="301.07"/>
    <line class="cls-10" x1="281.01" y1="276.94" x2="299.12" y2="295.06"/>
    <line class="cls-10" x1="287.02" y1="270.93" x2="305.14" y2="289.05"/>
    <line class="cls-10" x1="279.43" y1="273.21" x2="259.71" y2="253.49"/>
    <line class="cls-10" x1="285.45" y1="267.2" x2="265.73" y2="247.48"/>
    <line class="cls-10" x1="291.46" y1="261.19" x2="271.74" y2="241.47"/>
    <line class="cls-10" x1="297.47" y1="255.17" x2="277.75" y2="235.45"/>
    <line class="cls-10" x1="303.49" y1="249.16" x2="283.77" y2="229.44"/>
    <line class="cls-10" x1="257.79" y1="294.86" x2="238.07" y2="275.14"/>
    <line class="cls-10" x1="251.77" y1="300.87" x2="232.05" y2="281.15"/>
    <line class="cls-10" x1="245.76" y1="306.89" x2="226.04" y2="287.17"/>
    <line class="cls-10" x1="277.36" y1="280.6" x2="306.14" y2="251.81"/>
    <line class="cls-10" x1="303.49" y1="249.16" x2="306.14" y2="251.81"/>
    <line class="cls-10" x1="245.76" y1="306.89" x2="303.49" y2="249.16"/>
    <g>
      <g>
        <path class="cls-6" d="M360.97,77.2c-.35.36-.7.72-1.02,1.1"/>
        <path class="cls-14" d="M358.26,80.51c-2.3,3.48-3.55,7.58-3.54,11.81,0,4.7,1.56,9.24,4.37,12.93"/>
        <path class="cls-6" d="M359.98,106.33c.33.38.67.74,1.02,1.1"/>
      </g>
      <g>
        <path class="cls-6" d="M204.77,242.4c.35-.35.72-.7,1.1-1.02"/>
        <path class="cls-9" d="M208.39,239.53c3.1-1.91,6.7-2.95,10.41-2.95,4.24,0,8.33,1.35,11.71,3.82"/>
        <path class="cls-6" d="M231.73,241.38c.38.32.75.66,1.1,1.02"/>
      </g>
      <g>
        <path class="cls-6" d="M167.2,280.65c-.35.35-.7.72-1.02,1.1"/>
        <path class="cls-21" d="M164.34,284.27c-1.91,3.1-2.95,6.7-2.95,10.41,0,4.24,1.35,8.33,3.82,11.71"/>
        <path class="cls-6" d="M166.18,307.61c.32.38.66.75,1.02,1.1"/>
      </g>
      <g>
        <path class="cls-6" d="M367.6,70.55c.35-.35.72-.7,1.1-1.02"/>
        <path class="cls-8" d="M370.91,67.85c3.47-2.3,7.57-3.56,11.8-3.56,4.7,0,9.24,1.55,12.94,4.36"/>
        <path class="cls-6" d="M396.73,69.53c.38.33.74.67,1.1,1.02"/>
      </g>
      <g>
        <path class="cls-6" d="M516.99,360.97c-.36-.35-.72-.7-1.1-1.02"/>
        <path class="cls-20" d="M513.68,358.26c-3.48-2.3-7.58-3.55-11.81-3.54-4.7,0-9.24,1.56-12.93,4.37"/>
        <path class="cls-6" d="M487.86,359.98c-.38.33-.74.67-1.1,1.02"/>
      </g>
      <g>
        <path class="cls-6" d="M242.24,390.52c-.35-.35-.7-.72-1.02-1.1"/>
        <path class="cls-21" d="M239.37,386.9c-1.91-3.1-2.95-6.7-2.95-10.41,0-4.24,1.35-8.33,3.82-11.71"/>
        <path class="cls-6" d="M241.22,363.56c.32-.38.66-.75,1.02-1.1"/>
      </g>
      <g>
        <path class="cls-6" d="M255.7,417.13c-.35.35-.72.7-1.1,1.02"/>
        <path class="cls-7" d="M252.08,419.99c-3.1,1.91-6.7,2.95-10.41,2.95-4.24,0-8.33-1.35-11.71-3.82"/>
        <path class="cls-6" d="M228.74,418.15c-.38-.32-.75-.66-1.1-1.02"/>
      </g>
      <g>
        <path class="cls-6" d="M523.63,367.6c.35.35.7.72,1.02,1.1"/>
        <path class="cls-5" d="M526.34,370.91c2.3,3.47,3.56,7.57,3.56,11.8,0,4.7-1.55,9.24-4.36,12.94"/>
        <path class="cls-6" d="M524.66,396.73c-.33.38-.67.74-1.02,1.1"/>
      </g>
      <g>
        <path class="cls-6" d="M233.22,516.99c.35-.36.7-.72,1.02-1.1"/>
        <path class="cls-14" d="M235.92,513.68c2.3-3.48,3.55-7.58,3.54-11.81,0-4.7-1.56-9.24-4.37-12.93"/>
        <path class="cls-6" d="M234.21,487.86c-.33-.38-.67-.74-1.02-1.1"/>
      </g>
      <g>
        <path class="cls-6" d="M77.2,233.22c.36.35.72.7,1.1,1.02"/>
        <path class="cls-14" d="M80.51,235.92c3.48,2.3,7.58,3.55,11.81,3.54,4.7,0,9.24-1.56,12.93-4.37"/>
        <path class="cls-6" d="M106.33,234.21c.38-.33.74-.67,1.1-1.02"/>
      </g>
      <g>
        <path class="cls-6" d="M70.55,226.58c-.35-.35-.7-.72-1.02-1.1"/>
        <path class="cls-8" d="M67.85,223.27c-2.3-3.47-3.56-7.57-3.56-11.8,0-4.7,1.55-9.24,4.36-12.94"/>
        <path class="cls-6" d="M69.53,197.45c.33-.38.67-.74,1.02-1.1"/>
      </g>
      <g>
        <path class="cls-6" d="M226.58,523.63c-.35.35-.72.7-1.1,1.02"/>
        <path class="cls-8" d="M223.27,526.34c-3.47,2.3-7.57,3.56-11.8,3.56-4.7,0-9.24-1.55-12.94-4.36"/>
        <path class="cls-6" d="M197.45,524.66c-.38-.33-.74-.67-1.1-1.02"/>
      </g>
      <g>
        <path class="cls-6" d="M329.1,215.65c.35-.35.7-.72,1.02-1.1"/>
        <path class="cls-19" d="M331.97,212.03c1.91-3.1,2.95-6.7,2.95-10.41,0-4.24-1.35-8.33-3.82-11.71"/>
        <path class="cls-6" d="M330.12,188.69c-.32-.38-.66-.75-1.02-1.1"/>
      </g>
      <g>
        <path class="cls-6" d="M180.59,258.29c-.35-.35-.7-.72-1.02-1.1"/>
        <path class="cls-16" d="M177.73,254.67c-1.91-3.1-2.95-6.7-2.95-10.41,0-4.24,1.35-8.33,3.82-11.71"/>
        <path class="cls-6" d="M179.57,231.33c.32-.38.66-.75,1.02-1.1"/>
      </g>
      <g>
        <path class="cls-6" d="M351.84,203.56c.35.35.7.72,1.02,1.1"/>
        <path class="cls-21" d="M354.71,207.18c1.91,3.1,2.95,6.7,2.95,10.41,0,4.24-1.35,8.33-3.82,11.71"/>
        <path class="cls-6" d="M352.86,230.52c-.32.38-.66.75-1.02,1.1"/>
      </g>
      <g>
        <path class="cls-6" d="M164.91,313.3c-.35-.35-.72-.7-1.1-1.02"/>
        <path class="cls-21" d="M161.29,310.44c-3.1-1.91-6.7-2.95-10.41-2.95-4.24,0-8.33,1.35-11.71,3.82"/>
        <path class="cls-6" d="M137.95,312.28c-.38.32-.75.66-1.1,1.02"/>
      </g>
      <g>
        <path class="cls-6" d="M270.36,323.82c-.35.35-.7.72-1.02,1.1"/>
        <path class="cls-18" d="M267.59,327.2c-2.39,3.59-3.69,7.83-3.69,12.2,0,4.86,1.6,9.55,4.52,13.37"/>
        <path class="cls-6" d="M269.34,353.89c.33.38.67.74,1.02,1.1"/>
      </g>
      <g>
        <path class="cls-6" d="M388.35,350.72c-.35.35-.72.7-1.1,1.02"/>
        <path class="cls-1" d="M384.72,353.58c-3.1,1.91-6.7,2.95-10.41,2.95-4.24,0-8.33-1.35-11.71-3.82"/>
        <path class="cls-6" d="M361.39,351.74c-.38-.32-.75-.66-1.1-1.02"/>
      </g>
      <g>
        <path class="cls-6" d="M270.36,323.82c-.35.35-.72.7-1.1,1.02"/>
        <path class="cls-18" d="M266.98,326.59c-3.59,2.39-7.83,3.69-12.2,3.69-4.86,0-9.55-1.6-13.37-4.52"/>
        <path class="cls-6" d="M240.29,324.85c-.38-.33-.74-.67-1.1-1.02"/>
      </g>
      <g>
        <path class="cls-6" d="M413.59,335.89c.35.35.7.72,1.02,1.1"/>
        <path class="cls-19" d="M416.45,339.52c1.91,3.1,2.95,6.7,2.95,10.41,0,4.24-1.35,8.33-3.82,11.71"/>
        <path class="cls-6" d="M414.61,362.85c-.32.38-.66.75-1.02,1.1"/>
      </g>
      <g>
        <path class="cls-6" d="M426.99,313.54c.35-.35.7-.72,1.02-1.1"/>
        <path class="cls-4" d="M429.85,309.91c1.91-3.1,2.95-6.7,2.95-10.41,0-4.24-1.35-8.33-3.82-11.71"/>
        <path class="cls-6" d="M428,286.57c-.32-.38-.66-.75-1.02-1.1"/>
      </g>
      <g>
        <path class="cls-6" d="M376.53,263.08c.35-.35.72-.7,1.1-1.02"/>
        <path class="cls-3" d="M380.15,260.21c3.1-1.91,6.7-2.95,10.41-2.95,4.24,0,8.33,1.35,11.71,3.82"/>
        <path class="cls-6" d="M403.49,262.06c.38.32.75.66,1.1,1.02"/>
      </g>
      <g>
        <path class="cls-6" d="M429.27,280.88c.35.35.72.7,1.1,1.02"/>
        <path class="cls-13" d="M432.9,283.75c3.1,1.91,6.7,2.95,10.41,2.95,4.24,0,8.33-1.35,11.71-3.82"/>
        <path class="cls-6" d="M456.23,281.9c.38-.32.75-.66,1.1-1.02"/>
      </g>
      <g>
        <path class="cls-6" d="M338.49,177.05c.35-.35.72-.7,1.1-1.02"/>
        <path class="cls-7" d="M342.11,174.19c3.1-1.91,6.7-2.95,10.41-2.95,4.24,0,8.33,1.35,11.71,3.82"/>
        <path class="cls-6" d="M365.45,176.03c.38.32.75.66,1.1,1.02"/>
      </g>
      <g>
        <path class="cls-6" d="M376.53,305.05c.35.35.72.7,1.1,1.02"/>
        <path class="cls-11" d="M380.15,307.91c3.1,1.91,6.7,2.95,10.41,2.95,4.24,0,8.33-1.35,11.71-3.82"/>
        <path class="cls-6" d="M403.49,306.07c.38-.32.75-.66,1.1-1.02"/>
      </g>
    </g>
    <rect class="cls-10" x="139.49" y="418.39" width="1.22" height="23.57" transform="translate(-263.14 225.06) rotate(-45)"/>
    <rect class="cls-10" x="123.04" y="403.67" width="1.22" height="23.57" transform="translate(-257.55 209.12) rotate(-45)"/>
    <rect class="cls-10" x="106.6" y="388.95" width="1.22" height="23.57" transform="translate(-251.96 193.18) rotate(-45)"/>
    <rect class="cls-10" x="89.07" y="373.14" width="1.22" height="23.57" transform="translate(-245.92 176.15) rotate(-45)"/>
    <rect class="cls-10" x="75.79" y="364.65" width="1.22" height="13.99" transform="translate(-240.42 162.88) rotate(-45)"/>
    <rect class="cls-10" x="80.29" y="360.15" width="1.22" height="13.99" transform="translate(-235.92 164.74) rotate(-45)"/>
    <rect class="cls-10" x="93.57" y="368.64" width="1.22" height="23.57" transform="translate(-241.42 178.02) rotate(-45)"/>
    <line class="cls-10" x1="202.23" y1="494.95" x2="154.35" y2="447.08"/>
    <line class="cls-10" x1="204.23" y1="492.95" x2="156.36" y2="445.07"/>
    <line class="cls-10" x1="203.23" y1="493.95" x2="155.36" y2="446.08"/>
    <line class="cls-10" x1="202.23" y1="494.95" x2="154.35" y2="447.08"/>
    <line class="cls-10" x1="201.22" y1="495.95" x2="153.35" y2="448.08"/>
    <rect class="cls-10" x="111.1" y="384.45" width="1.22" height="23.57" transform="translate(-247.46 195.04) rotate(-45)"/>
    <rect class="cls-10" x="127.54" y="399.17" width="1.22" height="23.57" transform="translate(-253.05 210.98) rotate(-45)"/>
    <rect class="cls-10" x="143.99" y="413.89" width="1.22" height="23.57" transform="translate(-258.64 226.92) rotate(-45)"/>
    <rect class="cls-10" x="166.22" y="439.57" width="1.22" height="23.57" transform="translate(-270.29 250.16) rotate(-45)"/>
    <rect class="cls-10" x="182.66" y="454.29" width="1.22" height="23.57" transform="translate(-275.88 266.1) rotate(-45)"/>
  </g>
  <g id="thickline">
    <polygon class="cls-17" points="242.24 390.52 245.44 393.73 241.88 397.3 244.67 400.1 241.67 403.1 238.87 400.3 196.96 442.21 177.95 423.2 161.65 439.49 162.27 440.11 153.92 448.46 151.48 446.03 156.83 440.68 154.45 438.3 149.1 443.65 146.67 441.22 155.02 432.86 155.64 433.48 174.94 414.18 196.76 436 242.24 390.52"/>
    <polygon class="cls-17" points="30.06 309.44 79.39 358.77 70.17 367.98 3.84 301.65 7.05 298.44 70.17 361.57 72.97 358.77 26.85 312.65 30.06 309.44"/>
    <polygon class="cls-17" points="351.95 203.66 348.74 200.46 352.31 196.89 349.51 194.09 352.52 191.08 355.31 193.88 397.22 151.97 416.24 170.99 432.53 154.69 431.92 154.07 440.27 145.72 442.7 148.16 437.35 153.51 439.73 155.88 445.08 150.53 447.52 152.97 439.16 161.32 438.55 160.7 419.25 180.01 397.42 158.18 351.95 203.66"/>
    <polygon class="cls-17" points="390.56 277.11 387.35 280.32 391.1 284.06 387.35 287.81 390.56 291.02 394.31 287.27 402.42 295.38 400.64 297.16 406.51 303.02 408.28 301.24 409.75 302.71 412.95 299.51 411.8 298.35 415.24 294.91 412.03 291.71 408.59 295.15 390.56 277.11"/>
    <line class="cls-17" x1="443.3" y1="266.85" x2="440.09" y2="263.64"/>
    <polygon class="cls-17" points="564.13 284.75 514.8 235.42 524.01 226.2 590.34 292.54 587.14 295.74 524.01 232.62 521.21 235.42 567.33 281.54 564.13 284.75"/>
    <polygon class="cls-17" points="518 355.56 505.66 343.21 502.45 346.42 514.8 358.77 524.01 367.98 590.34 301.65 587.14 298.44 524.01 361.57 521.21 358.77 567.33 312.65 564.13 309.44 518 355.56"/>
    <polyline class="cls-17" points="154.09 330.54 99.34 385.29 96.13 382.09 150.88 327.33"/>
    <line class="cls-17" x1="150.88" y1="327.33" x2="154.09" y2="330.54"/>
    <polygon class="cls-17" points="284.75 30.06 235.42 79.39 226.2 70.17 292.54 3.84 295.74 7.05 232.62 70.17 235.42 72.97 281.54 26.85 284.75 30.06"/>
    <polygon class="cls-17" points="355.56 76.18 343.21 88.53 346.42 91.73 358.77 79.39 367.98 70.17 301.65 3.84 298.44 7.05 361.57 70.17 358.77 72.97 312.65 26.85 309.44 30.06 355.56 76.18"/>
    <polygon class="cls-17" points="423.78 316.74 426.99 313.54 502.34 388.89 497.11 394.12 488.36 385.37 490.38 383.35 428.26 321.22 413.59 335.89 410.38 332.68 425.05 318.02 423.78 316.74"/>
    <polygon class="cls-17" points="396.35 346.72 399.56 349.92 396.76 352.72 441.49 397.45 422.48 416.47 439.87 433.86 440.49 433.24 449.41 442.16 446.97 444.59 441.26 438.88 438.88 441.26 444.59 446.97 442.16 449.41 433.24 440.49 433.86 439.87 413.26 419.27 435.08 397.45 389.42 351.79 392.62 348.58 393.56 349.51 396.35 346.72"/>
    <polygon class="cls-17" points="309.44 564.13 358.77 514.8 367.98 524.01 301.65 590.34 298.44 587.14 361.57 524.01 358.77 521.21 312.65 567.33 309.44 564.13"/>
    <polygon class="cls-17" points="238.62 518 250.97 505.66 247.76 502.45 235.42 514.8 226.2 524.01 292.54 590.34 295.74 587.14 232.62 524.01 235.42 521.21 281.54 567.33 284.75 564.13 238.62 518"/>
    <polygon class="cls-17" points="170.41 277.44 167.2 280.65 91.84 205.29 97.07 200.06 105.82 208.82 103.8 210.84 165.93 272.96 180.59 258.29 183.8 261.5 169.13 276.17 170.41 277.44"/>
    <polygon class="cls-17" points="197.83 247.47 194.63 244.26 197.42 241.47 152.69 196.73 171.71 177.72 154.31 160.33 153.69 160.94 144.78 152.03 147.21 149.59 152.93 155.3 155.3 152.93 149.59 147.21 152.03 144.78 160.94 153.7 160.33 154.31 180.93 174.91 159.11 196.73 204.77 242.4 201.56 245.6 200.63 244.67 197.83 247.47"/>
    <polygon class="cls-17" points="297.57 411.01 306.56 402.02 293.06 388.52 284.06 397.51 294.36 407.81 273.37 428.79 258.7 414.13 255.7 417.13 270.37 431.8 212.16 490 209.67 487.51 200.06 497.11 205.76 502.82 298.7 409.88 297.57 411.01"/>
    <polyline class="cls-17" points="381.8 97.99 376.09 92.29 361 107.42"/>
    <polygon class="cls-17" points="315.07 201.62 311.86 204.83 310.12 203.09 219.86 293.35 216.65 290.14 231.38 275.42 215.59 259.63 218.8 256.43 234.58 272.21 310.12 196.67 315.07 201.62"/>
    <polygon class="cls-17" points="373.32 266.29 325.9 218.86 329.1 215.65 331.32 217.87 334.71 214.49 337.92 217.69 334.53 221.08 376.53 263.08 373.32 266.29"/>
    <polygon class="cls-17" points="374.32 336.69 377.61 333.4 362.89 318.68 376.53 305.05 373.32 301.84 284.06 391.1 225.37 332.4 228.23 329.54 225.82 327.13 222.95 329.99 203.09 310.12 205.83 307.38 202.62 304.17 199.88 306.91 191.77 298.8 193.54 297.03 187.68 291.17 185.91 292.94 184.44 291.47 181.23 294.68 182.38 295.83 178.94 299.27 182.15 302.48 185.59 299.04 259.66 373.1 256.27 376.49 259.48 379.7 262.86 376.31 284.06 397.51 359.6 321.97 374.32 336.69"/>
    <polygon class="cls-17" points="296.62 183.17 287.62 192.17 301.13 205.67 310.12 196.67 299.83 186.38 320.81 165.39 335.48 180.06 338.49 177.05 323.82 162.39 382.02 104.18 384.52 106.68 394.12 97.07 388.42 91.37 295.49 184.3 296.62 183.17"/>
    <line class="cls-17" x1="164.91" y1="313.3" x2="178.94" y2="299.27"/>
    <line class="cls-17" x1="227.64" y1="417.13" x2="241.67" y2="403.1"/>
    <polyline class="cls-17" points="440.09 263.64 494.85 208.89 498.06 212.1 443.3 266.85"/>
    <line class="cls-17" x1="404.59" y1="305.05" x2="390.56" y2="291.02"/>
    <line class="cls-17" x1="242.24" y1="362.46" x2="256.27" y2="376.49"/>
    <line class="cls-17" x1="366.55" y1="177.05" x2="352.52" y2="191.08"/>
    <line class="cls-17" x1="167.2" y1="308.71" x2="181.23" y2="294.68"/>
    <line class="cls-17" x1="457.33" y1="280.88" x2="443.3" y2="266.85"/>
    <line class="cls-17" x1="232.83" y1="242.4" x2="218.8" y2="256.43"/>
    <line class="cls-17" x1="404.59" y1="263.08" x2="390.56" y2="277.11"/>
    <polygon class="cls-17" points="243.07 270.13 262.78 289.85 249.58 303.05 254.78 308.24 257.06 305.96 255.24 304.14 278.07 281.31 254.98 258.22 243.07 270.13"/>
    <line class="cls-17" x1="426.99" y1="285.47" x2="412.95" y2="299.51"/>
    <polygon class="cls-17" points="76.18 238.62 88.53 250.97 91.73 247.76 79.39 235.42 70.17 226.2 3.84 292.54 7.05 295.74 70.17 232.62 72.97 235.42 26.85 281.54 30.06 284.75 76.18 238.62"/>
    <line class="cls-17" x1="413.59" y1="363.95" x2="399.56" y2="349.92"/>
    <polygon class="cls-17" points="324.05 351.11 304.34 331.4 291.14 344.6 285.94 339.41 288.23 337.12 290.05 338.94 312.87 316.12 335.96 339.2 324.05 351.11"/>
    <line class="cls-17" x1="360.29" y1="350.72" x2="374.32" y2="336.69"/>
    <line class="cls-17" x1="239.2" y1="323.82" x2="254.78" y2="308.24"/>
    <line class="cls-17" x1="270.36" y1="354.99" x2="285.94" y2="339.41"/>
    <line class="cls-17" x1="136.85" y1="313.3" x2="150.88" y2="327.33"/>
    <line class="cls-17" x1="351.84" y1="231.62" x2="337.81" y2="217.59"/>
    <path class="cls-17" d="M145.44,65.35c-.61-.61-1.32-1.09-2.11-1.43-.85-.37-1.77-.56-2.7-.56-.93,0-1.85.19-2.7.56-.79.34-1.5.83-2.11,1.43-.61.61-1.09,1.32-1.43,2.11-.37.85-.56,1.77-.56,2.7s.19,1.85.56,2.7c.34.79.83,1.5,1.43,2.11.61.61,1.32,1.09,2.11,1.43.85.37,1.77.56,2.7.56.93,0,1.85-.19,2.7-.56.79-.34,1.5-.83,2.11-1.43.61-.61,1.09-1.32,1.43-2.11.37-.85.56-1.77.56-2.7s-.19-1.85-.56-2.7c-.34-.79-.83-1.5-1.43-2.11Z"/>
    <line class="cls-17" x1="180.59" y1="230.23" x2="194.63" y2="244.26"/>
    <path class="cls-17" d="M140.18,102.76c3.64.05,7.25-.51,10.71-1.65,3.67-1.22,7.1-3.08,10.11-5.5,3.02-2.42,5.58-5.35,7.57-8.67,1.87-3.12,3.21-6.53,3.95-10.09.75-3.56.89-7.22.43-10.83-.49-3.84-1.66-7.55-3.45-10.98-1.79-3.43-4.18-6.51-7.06-9.1-2.7-2.44-5.79-4.4-9.14-5.82-3.35-1.42-6.91-2.26-10.54-2.5-3.86-.25-7.73.18-11.44,1.29-3.71,1.1-7.19,2.86-10.28,5.18-2.91,2.19-5.43,4.84-7.46,7.86-2.03,3.02-3.54,6.35-4.47,9.87-.99,3.74-1.3,7.62-.93,11.47.37,3.85,1.43,7.6,3.11,11.08,1.59,3.27,3.71,6.26,6.28,8.83"/>
    <line class="cls-17" x1="329.1" y1="187.59" x2="315.07" y2="201.62"/>
    <polyline class="cls-17" points="205.29 502.34 211.47 508.52 196.36 523.63"/>
    <polyline class="cls-17" points="91.84 205.29 85.66 211.47 70.55 196.36"/>
    <polyline class="cls-17" points="98.46 211.91 92.29 218.09 107.42 233.19"/>
    <polyline class="cls-17" points="211.91 495.72 218.09 501.89 233.19 486.76"/>
    <polyline class="cls-17" points="502.34 388.89 508.52 382.72 523.63 397.83"/>
    <polyline class="cls-17" points="495.72 382.28 501.89 376.09 486.76 361"/>
    <polyline class="cls-17" points="388.89 91.84 382.72 85.66 397.83 70.55"/>
  </g>
  <g id="structure">
    <rect class="cls-23" x="286.04" y="15.72" width="22.11" height="22.11" transform="translate(68.09 217.92) rotate(-45)"/>
    <rect class="cls-23" x="15.72" y="286.04" width="22.11" height="22.11" transform="translate(-202.24 105.95) rotate(-45)"/>
    <rect class="cls-23" x="556.36" y="286.04" width="22.11" height="22.11" transform="translate(-43.88 488.24) rotate(-45)"/>
    <rect class="cls-23" x="286.04" y="556.36" width="22.11" height="22.11" transform="translate(-314.21 376.27) rotate(-45)"/>
    <rect class="cls-23" x="286.04" y="15.72" width="22.11" height="22.11" transform="translate(68.09 217.92) rotate(-45)"/>
    <rect class="cls-23" x="286.04" y="556.36" width="22.11" height="22.11" transform="translate(-314.21 376.27) rotate(-45)"/>
    <rect class="cls-23" x="556.36" y="286.04" width="22.11" height="22.11" transform="translate(-43.88 488.24) rotate(-45)"/>
    <rect class="cls-23" x="15.72" y="286.04" width="22.11" height="22.11" transform="translate(-202.24 105.95) rotate(-45)"/>
  </g>
  <g id="hatch">
    <polygon class="cls-24" points="324.05 351.11 335.96 339.2 312.87 316.12 290.05 338.94 288.23 337.12 285.94 339.41 291.14 344.6 304.34 331.4 324.05 351.11"/>
    <polygon class="cls-24" points="76.18 238.62 30.06 284.75 26.85 281.54 72.97 235.42 70.17 232.62 7.05 295.74 3.84 292.54 70.17 226.2 79.39 235.42 91.73 247.76 88.53 250.97 76.18 238.62"/>
    <polygon class="cls-24" points="243.07 270.13 254.98 258.22 278.07 281.31 255.24 304.14 257.06 305.96 254.78 308.24 249.58 303.05 262.78 289.85 243.07 270.13"/>
    <polygon class="cls-24" points="564.13 284.75 514.8 235.42 524.01 226.2 590.34 292.54 587.14 295.74 524.01 232.62 521.21 235.42 567.33 281.54 564.13 284.75"/>
    <polygon class="cls-24" points="373.32 266.29 325.9 218.86 329.1 215.65 331.32 217.87 334.71 214.49 337.92 217.69 334.53 221.08 376.53 263.08 373.32 266.29"/>
    <polygon class="cls-24" points="518 355.56 564.13 309.44 567.33 312.65 521.21 358.77 524.01 361.57 587.14 298.44 590.34 301.65 524.01 367.98 514.8 358.77 502.45 346.42 505.66 343.21 518 355.56"/>
    <polygon class="cls-24" points="315.07 201.62 311.86 204.83 310.12 203.09 219.86 293.35 216.65 290.14 231.38 275.42 215.59 259.63 218.8 256.43 234.58 272.21 310.12 196.67 315.07 201.62"/>
    <rect class="cls-24" x="86.39" y="354.05" width="77.43" height="4.54" transform="translate(-215.31 192.83) rotate(-45)"/>
    <rect class="cls-24" x="430.36" y="235.6" width="77.43" height="4.54" transform="translate(-30.81 401.36) rotate(-45)"/>
    <polygon class="cls-24" points="423.78 316.74 426.99 313.54 502.34 388.89 497.11 394.12 488.36 385.37 490.38 383.35 428.26 321.22 413.59 335.89 410.38 332.68 425.05 318.02 423.78 316.74"/>
    <polygon class="cls-24" points="390.56 277.11 408.59 295.15 412.03 291.71 415.24 294.91 411.8 298.35 412.95 299.51 409.75 302.71 408.28 301.24 406.51 303.02 400.64 297.16 402.42 295.38 394.31 287.27 390.56 291.02 387.35 287.81 391.1 284.06 387.35 280.32 390.56 277.11"/>
    <polygon class="cls-24" points="296.62 183.17 388.42 91.37 394.12 97.07 384.52 106.68 382.02 104.18 323.82 162.39 338.49 177.05 335.48 180.06 320.81 165.39 299.83 186.38 310.12 196.67 301.13 205.67 287.62 192.17 296.62 183.17"/>
    <polygon class="cls-24" points="374.32 336.69 359.6 321.97 284.06 397.51 262.86 376.31 259.48 379.7 256.27 376.49 259.66 373.1 185.59 299.04 182.15 302.48 178.94 299.27 182.38 295.83 181.23 294.68 184.44 291.47 185.91 292.94 187.68 291.17 193.54 297.03 191.77 298.8 199.88 306.91 202.62 304.17 205.83 307.38 203.09 310.12 222.95 329.99 225.82 327.13 228.23 329.54 225.37 332.4 284.06 391.1 373.32 301.84 376.53 305.05 362.89 318.68 377.61 333.4 374.32 336.69"/>
    <polygon class="cls-24" points="351.95 203.66 348.74 200.46 352.31 196.89 349.51 194.09 352.52 191.08 355.31 193.88 397.22 151.97 416.24 170.99 432.53 154.69 431.92 154.07 440.27 145.72 442.7 148.16 437.35 153.51 439.73 155.88 445.08 150.53 447.52 152.97 439.16 161.32 438.55 160.7 419.25 180.01 397.42 158.18 351.95 203.66"/>
    <polygon class="cls-24" points="297.57 411.01 205.76 502.82 200.06 497.11 209.67 487.51 212.16 490 270.37 431.8 255.7 417.13 258.7 414.13 273.37 428.79 294.36 407.81 284.06 397.51 293.06 388.52 306.56 402.02 297.57 411.01"/>
    <polygon class="cls-24" points="242.24 390.52 245.44 393.73 241.88 397.3 244.67 400.1 241.67 403.1 238.87 400.3 196.96 442.21 177.95 423.2 161.65 439.49 162.27 440.11 153.92 448.46 151.48 446.03 156.83 440.68 154.45 438.3 149.1 443.65 146.67 441.22 155.02 432.86 155.64 433.48 174.94 414.18 196.76 436 242.24 390.52"/>
    <polygon class="cls-24" points="396.35 346.72 399.56 349.92 396.76 352.72 441.49 397.45 422.48 416.47 439.87 433.86 440.49 433.24 449.41 442.16 446.97 444.59 441.26 438.88 438.88 441.26 444.59 446.97 442.16 449.41 433.24 440.49 433.86 439.87 413.26 419.27 435.08 397.45 389.42 351.79 392.62 348.58 393.56 349.51 396.35 346.72"/>
    <polygon class="cls-24" points="284.75 30.06 235.42 79.39 226.2 70.17 292.54 3.84 295.74 7.05 232.62 70.17 235.42 72.97 281.54 26.85 284.75 30.06"/>
    <polygon class="cls-24" points="238.62 518 284.75 564.13 281.54 567.33 235.42 521.21 232.62 524.01 295.74 587.14 292.54 590.34 226.2 524.01 235.42 514.8 247.76 502.45 250.97 505.66 238.62 518"/>
    <polygon class="cls-24" points="309.44 564.13 358.77 514.8 367.98 524.01 301.65 590.34 298.44 587.14 361.57 524.01 358.77 521.21 312.65 567.33 309.44 564.13"/>
    <polygon class="cls-24" points="197.83 247.47 194.63 244.26 197.42 241.47 152.69 196.73 171.71 177.72 154.31 160.33 153.69 160.94 144.78 152.03 147.21 149.59 152.93 155.3 155.3 152.93 149.59 147.21 152.03 144.78 160.94 153.7 160.33 154.31 180.93 174.91 159.11 196.73 204.77 242.4 201.56 245.6 200.63 244.67 197.83 247.47"/>
    <polygon class="cls-24" points="170.41 277.44 167.2 280.65 91.84 205.29 97.07 200.06 105.82 208.82 103.8 210.84 165.93 272.96 180.59 258.29 183.8 261.5 169.13 276.17 170.41 277.44"/>
    <polygon class="cls-24" points="355.56 76.18 309.44 30.06 312.65 26.85 358.77 72.97 361.57 70.17 298.44 7.05 301.65 3.84 367.98 70.17 358.77 79.39 346.42 91.73 343.21 88.53 355.56 76.18"/>
    <polygon class="cls-24" points="30.06 309.44 79.39 358.77 70.17 367.98 3.84 301.65 7.05 298.44 70.17 361.57 72.97 358.77 26.85 312.65 30.06 309.44"/>
  </g>
</svg>